<?xml version="1.0" standalone="no"?>
<!DOCTYPE svg PUBLIC "-//W3C//DTD SVG 1.1//EN" "http://www.w3.org/Graphics/SVG/1.1/DTD/svg11.dtd" >
<svg xmlns="http://www.w3.org/2000/svg" xmlns:xlink="http://www.w3.org/1999/xlink" version="1.1">
<metadata>
Created by FontForge 20161003 at Thu May 10 06:24:33 2018
 By www-data
Typeface (c) Galdino Otten. 2016. All Rights Reserved
</metadata>
<defs>
<font id="SoftMarshmallow" horiz-adv-x="1057" >
  <font-face 
    font-family="Soft Marshmallow"
    font-weight="400"
    font-stretch="normal"
    units-per-em="2048"
    panose-1="2 0 5 0 0 0 0 0 0 0"
    ascent="1638"
    descent="-410"
    x-height="979"
    cap-height="1431"
    bbox="-150.064 -494.493 2035.83 1844"
    underline-thickness="150"
    underline-position="-442"
    unicode-range="U+001D-F002"
  />
<missing-glyph horiz-adv-x="1123" 
d="M258 926q66 -36 112 -15q23 11 45 62q12 29 23 46q17 27 43 48l3 3l5 4q5 5 10 8q14 10 27 17q37 20 70 15q59 -8 101 -77q40 -69 20 -122q-8 -21 -28 -34q-13 -9 -49 -22l-15 -5l-16 -7q-19 -7 -36 -15q-44 -22 -84 -54l-14 -11l-15 -13q-18 -15 -32 -30
q-37 -39 -58 -85l-3 -7l-4 -8l-8 -22q-11 -29 -16 -55q-14 -77 23 -121q33 -39 92 -47q58 -8 102 19q28 17 42 47q8 19 17 61l3 16l4 17q4 20 10 35q14 40 41 69q46 51 144 63l37 4q21 3 36 7q39 11 66 37q39 38 57 105q17 66 9 144q-17 176 -134 292q-114 112 -284 120
q-160 8 -280 -77q-80 -56 -128 -138q-59 -98 -29 -175q23 -62 91 -99zM310 61q26 -49 72 -74q61 -33 132 -14q72 19 108 81q31 52 25 114q-6 63 -49 105q-50 49 -127 42q-69 -6 -119 -48l-2 -3l-3 -2q-4 -4 -8 -7q-10 -10 -18 -21q-24 -33 -29 -71q-8 -52 18 -102z" />
    <glyph glyph-name=".notdef" horiz-adv-x="1123" 
d="M258 926q66 -36 112 -15q23 11 45 62q12 29 23 46q17 27 43 48l3 3l5 4q5 5 10 8q14 10 27 17q37 20 70 15q59 -8 101 -77q40 -69 20 -122q-8 -21 -28 -34q-13 -9 -49 -22l-15 -5l-16 -7q-19 -7 -36 -15q-44 -22 -84 -54l-14 -11l-15 -13q-18 -15 -32 -30
q-37 -39 -58 -85l-3 -7l-4 -8l-8 -22q-11 -29 -16 -55q-14 -77 23 -121q33 -39 92 -47q58 -8 102 19q28 17 42 47q8 19 17 61l3 16l4 17q4 20 10 35q14 40 41 69q46 51 144 63l37 4q21 3 36 7q39 11 66 37q39 38 57 105q17 66 9 144q-17 176 -134 292q-114 112 -284 120
q-160 8 -280 -77q-80 -56 -128 -138q-59 -98 -29 -175q23 -62 91 -99zM310 61q26 -49 72 -74q61 -33 132 -14q72 19 108 81q31 52 25 114q-6 63 -49 105q-50 49 -127 42q-69 -6 -119 -48l-2 -3l-3 -2q-4 -4 -8 -7q-10 -10 -18 -21q-24 -33 -29 -71q-8 -52 18 -102z" />
    <glyph glyph-name=".null" horiz-adv-x="0" 
 />
    <glyph glyph-name="glyph2" horiz-adv-x="508" 
 />
    <glyph glyph-name="uni001D" horiz-adv-x="0" 
 />
    <glyph glyph-name="uni001D" horiz-adv-x="0" 
 />
    <glyph glyph-name="space" unicode=" " horiz-adv-x="508" 
 />
    <glyph glyph-name="space" unicode="&#xa0;" horiz-adv-x="508" 
 />
    <glyph glyph-name="exclam" unicode="!" horiz-adv-x="542" 
d="M324 202q15 -27 16 -61q9 -152 -149 -178q-47 -7 -87 8q-63 24 -78 68q-7 56 -1 106q5 32 14 53q38 78 154 79q41 1 70 -15q39 -21 61 -60zM348 388q-9 -17 -23 -27q-36 -24 -94 -18q-57 7 -87 38q-23 24 -23 64q0 22 12 90q39 230 55 510q4 69 5 153v15v15v28q0 30 1 48
q2 47 11 74q11 31 35 53q61 57 159 47q45 -4 80 -23q37 -20 54 -52q17 -30 8 -94q-6 -45 -37 -169q-22 -89 -69 -348l-9 -49l-9 -49q-11 -55 -18 -93q-19 -100 -31 -152q-9 -41 -20 -61z" />
    <glyph glyph-name="quotedbl" unicode="&#x22;" horiz-adv-x="272" 
d="M-54 1328q-47 64 -64 93q-27 45 -30 77q-3 38 25 66q61 60 136 69q34 4 58 -7q25 -11 32 -37q10 -39 -17 -82q-32 -51 -33 -80q-2 -36 26 -111q27 -72 24 -97q-4 -32 -42 -19q-19 6 -38 19q-24 38 -77 109zM178 1348q-24 75 -31 108q-12 52 -4 83q9 37 45 54
q77 38 150 23q34 -7 53 -25q20 -19 19 -45q-3 -40 -42 -73q-47 -38 -57 -65q-14 -34 -11 -113q3 -78 -8 -100q-14 -29 -46 -5q-16 12 -29 30q-11 44 -39 128z" />
    <glyph glyph-name="numbersign" unicode="#" horiz-adv-x="1265" 
d="M684 582l-4 2l-6 1q-7 2 -16 4q-17 3 -34 2h-14l-12 -1q-27 -3 -41 2q-23 9 -7 95q17 88 57 120q39 31 84 30q40 -2 62 -27q10 -11 -13 -115q-24 -106 -43 -113q-5 -2 -13 0zM1233 1047q-11 3 -26 6l-13 1l-13 1q-32 4 -67 -1q-22 -3 -53 -11q-52 -14 -59 -5q-8 10 9 40
q7 12 23 36l8 11l8 12q9 15 17 28q82 125 103 188q8 23 8 36q0 5 -1 9l-2 3l-1 2q-11 21 -45 29q-12 3 -28 4l-12 1h-11h-9h-12q-17 -1 -33 -5q-45 -10 -75 -36q-17 -15 -27 -43q-4 -11 -36 -117q-38 -130 -71 -163l-5 -6l-8 -7q-9 -9 -19 -16q-26 -18 -55 -23h-1h-3l-6 -1
q-10 -1 -19 0q-26 2 -37 15q-13 14 -6 44q4 17 28 82q62 169 54 201v2l-1 3q-1 4 -3 9q-6 15 -14 28q-27 40 -73 50q-37 8 -76 -3q-40 -11 -67 -38q-37 -35 -48 -126q-3 -30 -1 -59q1 -11 2 -24l2 -10l1 -10q6 -44 -11 -74l-1 -2l-2 -2l-4 -6q-5 -8 -12 -15q-20 -22 -44 -33
q-41 -17 -101 7l-23 9q-12 5 -21 7q-24 6 -44 -2q-46 -20 -67 -93q-21 -74 12 -112q26 -29 115 -21l33 3q18 1 31 0q33 -4 50 -23q34 -39 11 -116q-24 -77 -75 -98q-23 -10 -49 -3q-11 3 -24 10l-24 12q-32 16 -51 21q-31 7 -60 -3q-39 -14 -69 -53q-29 -39 -34 -83
q-3 -35 9 -66q13 -35 43 -50q25 -13 59 -9q24 3 60 15l14 5l13 5q15 5 24 7q23 6 32 -3q12 -13 -11 -54q-9 -16 -26 -42l-15 -23l-17 -24q-40 -61 -55 -98q-21 -54 -3 -86q16 -30 67 -45q17 -4 36 -7l14 -2h5h3l4 -1h6h12q16 0 31 2q43 6 71 26q34 26 44 78q5 32 2 103
l-1 26l-1 27q0 28 3 49q9 53 41 78q37 28 91 28q53 -1 72 -28q15 -21 -3 -61q-7 -16 -22 -39l-13 -21l-14 -22q-36 -58 -49 -96q-20 -56 -6 -102q10 -35 35 -60q28 -28 63 -32q47 -4 100 35q51 36 77 88q19 38 20 84q1 18 -2 40q-1 14 -5 37q-8 47 -7 65q2 32 24 50
q15 13 40 21q9 3 18 4l6 2h3h2q21 3 48 -3l11 -2l12 -3q15 -2 32 -2q57 1 82 17q31 21 42 66q3 16 4 34q1 6 1 13v6v4l-1 22q-1 12 -3 21q-6 23 -21 32q-14 7 -41 1l-14 -2l-15 -3q-20 -3 -40 -3q-66 0 -81 17q-26 31 11 103q37 74 94 91q25 8 71 -6q23 -7 38 -9q23 -2 48 5
l3 1l3 1l8 2q11 4 22 10q31 16 52 40q28 34 35 75q7 44 -14 72q-15 20 -44 29z" />
    <glyph glyph-name="dollar" unicode="$" horiz-adv-x="1286" 
d="M740 190q0 114 2 341q50 5 78 -21q42 -40 43 -117q1 -78 -43 -137q-32 -43 -80 -66zM481 954q25 50 70 71q14 7 30 10q13 2 26 1q10 -20 17 -42q10 -31 13 -64q2 -34 -4 -68q-3 -13 -7 -26q-3 -10 -7 -20q-43 -12 -83 1q-39 12 -57 43q-24 41 2 94zM1056 807q-5 0 -312 6
q2 127 2 208l29 -5l30 -4l61 -8q69 -8 117 -8q128 1 166 60q21 32 10 87q-4 19 -11 38q-6 15 -10 20q-105 145 -390 158v21v28q2 36 10 71q3 13 7 27l4 12l3 12q16 51 7 80q-9 30 -33 53q-25 24 -53 25q-33 1 -64 -34q-11 -12 -21 -28q-3 -5 -7 -11l-2 -5l-2 -4
q-35 -65 -21 -152q5 -30 16 -61l8 -22l4 -8l2 -6q-32 -3 -65 -7q-46 -7 -91 -18q-166 -40 -294 -134q-115 -83 -131 -153q-9 -39 -6 -89q1 -17 3 -34l2 -12v-5l1 -3q14 -85 62 -160q17 -26 37 -50q7 -9 15 -17l6 -6l5 -5q86 -88 219 -125q46 -13 97 -20l38 -4q7 0 15 -1h7h6
q49 -3 100 2q-2 -78 -3 -150q-2 -87 -6 -183q-33 15 -89 91q-26 36 -48 57q-32 30 -71 48q-65 29 -137 25q-75 -4 -106 -44q-42 -57 4 -166q42 -103 125 -177q73 -64 174 -91q36 -9 74 -13q14 -2 29 -2q11 -1 22 -1q-27 -39 -30 -83q-2 -44 20 -76q15 -21 38 -34
q28 -16 56 -12q25 3 46 22q7 7 13 15l4 5l2 3l1 1q29 45 14 110q-5 21 -15 42q-3 7 -6 13l-2 4v1h-1q129 24 235 89l4 2l5 3q7 5 14 9q19 13 38 27q54 42 98 90q132 146 140 319v4v4q1 6 1 12v32q-2 46 -9 87q-24 122 -98 176q-37 27 -112 32z" />
    <glyph glyph-name="percent" unicode="%" horiz-adv-x="1294" 
d="M920 872q16 19 35 42l17 21l15 19q37 45 56 69q55 70 78 118q28 57 31 117l1 4v5q0 7 -1 14q0 20 -3 40q-10 56 -38 89q-43 52 -118 30q-68 -20 -105 -75q-543 -811 -606 -881q-97 -109 -129 -156q-48 -69 -55 -133q-8 -65 18 -124q9 -19 21 -37q4 -6 8 -11l3 -3l2 -3h1
l1 -1l3 -3q4 -5 10 -10q17 -15 36 -25q58 -31 112 -8q51 21 96 105q15 26 45 90l12 26l14 27q15 32 29 59q55 106 246 376q75 107 165 219zM292 1035q-15 -10 -35 -9q-20 2 -29 14q-6 7 -4 18q1 7 7 24l3 7l3 8q3 10 5 18q6 23 7 46q1 15 -1 31q0 4 -1 12l-1 6l-1 6
q-2 25 6 47l1 1l1 2l2 6l8 14q12 18 25 18q5 0 11 -5q7 -6 14 -19q21 -38 19 -91q-1 -33 -15 -102q-9 -41 -25 -52zM497 1235l-6 26q-6 29 -15 51q-22 57 -64 89q-51 39 -121 40q-68 1 -125 -34q-50 -33 -80 -91q-10 -20 -17 -43q-3 -9 -5 -18q-1 -7 -3 -13q-5 -29 0 -62
l2 -7l1 -8q1 -9 2 -17q3 -23 4 -48q0 -45 -7 -84q-2 -15 -6 -31q-2 -6 -4 -13l-3 -12q-8 -29 -10 -42q-1 -20 6 -40q23 -56 104 -83q67 -23 139 -18h5q4 1 8 1q10 1 21 3q30 5 57 14q80 28 108 86q9 18 12 102q9 188 2 226zM1030 254q-15 -10 -35 -9q-20 2 -29 14
q-6 7 -4 18q1 7 7 24l3 7l3 8q3 10 5 18q6 23 7 46q1 15 -1 31q0 4 -1 12l-1 6l-1 6q-2 25 6 47l1 1l1 2l2 6l8 14q12 18 25 18q5 0 11 -5q7 -6 14 -19q21 -38 19 -91q-1 -33 -15 -102q-9 -41 -25 -52zM1235 454l-6 26q-6 29 -15 51q-22 57 -64 89q-51 39 -121 40
q-68 1 -125 -34q-50 -33 -80 -91q-10 -20 -17 -43q-3 -9 -5 -18q-1 -7 -3 -13q-5 -29 0 -62l2 -7l1 -8q1 -9 2 -17q3 -23 4 -48q0 -45 -7 -84q-2 -15 -6 -31q-2 -6 -4 -13l-3 -12q-8 -29 -10 -42q-1 -20 6 -40q23 -56 104 -83q67 -23 139 -18h5q4 1 8 1q10 1 21 3
q30 5 57 14q80 28 108 86q9 18 12 102q9 188 2 226z" />
    <glyph glyph-name="ampersand" unicode="&#x26;" horiz-adv-x="1272" 
d="M456 205l-2 1l-8 2q-12 5 -23 11q-34 20 -48 52q-18 41 1 95q6 19 17 38l8 14l3 5l3 4l9 13q69 -84 126 -140q36 -36 56 -55q-77 -56 -141 -40h-1zM431 964q-11 76 12 91q3 2 8 8l5 5l6 5q15 15 29 22q45 21 102 -19q6 -5 8 -39q2 -38 -4 -80q-19 -119 -89 -172l-12 -9
q-11 19 -20 40q-33 76 -45 148zM1218 262q-32 28 -99 61q64 87 86 186l3 10l2 11q3 13 5 24q4 29 5 54q1 67 -30 111q-45 62 -132 70q-86 9 -131 -39q-27 -29 -25 -108v-17v-19q0 -22 -2 -41q-5 -50 -22 -100l-6 -17q-24 13 -45 27q-104 64 -181 129l22 15l21 15
q25 16 39 26q41 29 64 50q57 52 66 110q29 196 -44 321q-62 105 -187 146q-108 36 -226 15q-112 -20 -161 -75q-91 -103 -60 -295q23 -150 100 -282q-14 -6 -34 -15l-16 -7l-16 -7q-34 -15 -55 -26q-53 -30 -83 -79q-45 -72 -45 -173q-1 -88 31 -166q57 -138 214 -202
q122 -50 256 -42q140 8 287 116q75 -50 156 -74l5 -2l6 -2l14 -4q18 -5 34 -8q43 -11 79 -13q103 -8 145 48q32 44 28 115q-2 23 -7 46q-1 8 -3 15l-2 4v2q-17 51 -56 86z" />
    <glyph glyph-name="quotesingle" unicode="'" horiz-adv-x="147" 
d="M134 1135q-15 -25 -34 -42q-38 -35 -59 3q-16 28 -20 130q-4 106 -24 148q-16 36 -79 82q-53 40 -60 92q-5 35 19 62q22 25 64 37q92 26 193 -17q48 -21 63 -68q13 -40 3 -110q-6 -44 -29 -145q-26 -113 -37 -172z" />
    <glyph glyph-name="parenleft" unicode="(" horiz-adv-x="800" 
d="M677 1499q63 -49 71 -114q5 -45 -18 -89q-13 -23 -61 -85q-23 -29 -38 -51q-22 -31 -39 -61q-44 -78 -67 -172q-38 -149 -34 -318q4 -189 64 -286q7 -13 21 -31l11 -14l11 -15q26 -38 41 -87l2 -6l3 -8q3 -10 5 -20q7 -29 11 -56q11 -80 -9 -144q-25 -82 -78 -107
q-55 -26 -125 41q-25 24 -50 59q-10 14 -19 28q-8 11 -15 23q-3 5 -5 9l-3 6q-147 266 -173 586q-12 159 5 266q15 99 48 194q12 37 29 79l16 36l15 34q76 175 117 238q68 103 142 107q61 4 122 -42z" />
    <glyph glyph-name="parenright" unicode=")" horiz-adv-x="765" 
d="M292 1558q74 -4 141 -107q41 -63 118 -238l15 -34l15 -36q17 -42 30 -79q33 -95 48 -194q17 -107 4 -266q-25 -320 -172 -586l-3 -6q-3 -4 -6 -9q-7 -12 -14 -23q-10 -14 -19 -28q-26 -35 -51 -59q-69 -67 -124 -41q-53 25 -79 107q-19 64 -8 144q3 27 10 56l6 20l3 8
l2 6q15 49 41 87l11 15l11 14q13 18 21 31q59 97 64 286q4 169 -34 318q-24 94 -67 172q-17 30 -39 61q-15 22 -38 51q-48 62 -61 85q-23 44 -18 89q7 65 71 114q61 46 122 42z" />
    <glyph glyph-name="asterisk" unicode="*" horiz-adv-x="861" 
d="M568 373q5 -8 9 -17q5 -10 10 -18q12 -27 42 -40q30 -12 51 -1q6 3 12 5q48 19 62 34l10 10q7 8 10 12q15 15 17 26q2 8 -1 17q-5 17 -17 31q-14 15 -28 17q-8 0 -33 5q-2 1 -16 3q-11 3 -16 4q-13 3 -15 5q-65 36 -151 145q131 48 215 57q9 1 20 2h20q29 0 53 22
q23 22 22 46q0 7 1 14q3 51 -4 69q-3 5 -6 15q-4 9 -6 14q-7 19 -17 25q-7 5 -15 6q-19 3 -36 -2q-19 -6 -26 -19q-5 -7 -19 -27q-2 -2 -10 -13q-7 -8 -10 -13q-9 -11 -11 -12q-46 -34 -137 -61q42 62 57 73q38 29 54 46q27 32 31 67q7 53 -58 90q-8 5 -16 9q-9 3 -18 7
q-96 38 -135 12q-7 -4 -12 -9q-5 -6 -9 -14q-10 -25 -10 -33l-2 -22q2 -11 2 -23q1 -47 -7 -98q-2 -12 -3 -24q-9 -26 -17 -51q-63 96 -69 120q-13 49 -24 73q-21 40 -53 60q-50 29 -115 -20q-8 -6 -15 -13q-9 -7 -16 -15q-78 -80 -69 -130q1 -8 4 -15q4 -8 11 -16
q20 -21 28 -24q11 -5 21 -10q12 -3 24 -8q48 -20 95 -49q11 -7 23 -13q14 -12 27 -24q-88 -12 -109 -9q-51 10 -77 9q-44 -1 -77 -23q-47 -32 -29 -112q2 -10 5 -19q3 -10 7 -21q39 -104 89 -117q7 -2 16 -2q8 0 18 3q28 9 34 15q9 7 18 16q8 8 18 17q37 35 83 66
q12 8 22 15l18 8q-30 -60 -58 -99q-6 -7 -11 -15q-7 -6 -13 -14q-18 -19 -18 -50q1 -29 17 -43l9 -9q34 -34 51 -41q4 -1 12 -5q9 -3 14 -4q18 -7 28 -4q7 1 13 6q14 11 21 26q8 17 4 29q-2 8 -7 30q0 3 -3 15q-2 10 -2 15q-2 12 -2 15q7 63 60 164q97 -97 140 -169z" />
    <glyph glyph-name="plus" unicode="+" horiz-adv-x="1144" 
d="M702 517q-4 -25 -9 -51l-9 -49l-9 -49q-11 -55 -18 -93q-19 -100 -31 -152q-9 -41 -20 -61q-9 -17 -23 -27q-36 -24 -94 -18q-57 7 -87 38q-23 24 -23 64q0 22 12 90q24 140 39 298q-59 -5 -128 -12l-16 -2l-15 -1l-27 -3q-30 -4 -49 -5q-46 -3 -74 3q-32 7 -56 28
q-64 55 -66 154q0 44 15 81q15 39 45 60q28 20 93 19q44 -1 172 -18q43 -5 125 -12q2 35 2 73v58q0 30 1 48q2 47 11 74q11 31 35 53q61 57 159 47q45 -4 80 -23q37 -20 54 -52q17 -30 8 -94q-6 -45 -37 -169q-4 -16 -9 -38l24 -1q55 -4 94 -7q101 -7 155 -13q42 -5 63 -13
q17 -7 28 -20q29 -33 29 -91q0 -57 -28 -91q-21 -26 -61 -30q-21 -3 -90 1q-125 7 -265 6z" />
    <glyph glyph-name="comma" unicode="," horiz-adv-x="494" 
d="M384 105q-3 -161 -56 -212q-55 -51 -191 -21q-26 6 -27.5 27t20.5 28q117 3 103 117l-30 -33q-46 -27 -120 -3q-35 17 -48 62q-4 58 6 110q6 33 19 56q45 80 170 81q44 1 74 -16q42 -21 62 -62q10 -18 18 -134z" />
    <glyph glyph-name="hyphen" unicode="-" horiz-adv-x="843" 
d="M749 667q12 -6 19 -16q18 -26 18 -72q0 -86 -18 -113q-14 -20 -39 -24q-14 -2 -59 1q-151 11 -332 -2q-45 -3 -99 -10l-10 -2l-10 -1q-11 -2 -17 -3q-19 -2 -32 -3q-30 -3 -48 2q-20 6 -36 23q-42 43 -43 122q0 35 10 64q10 31 29 48q18 16 60 15q29 -1 111 -14
q59 -9 239.5 -4.5t215.5 -0.5q27 -4 41 -10z" />
    <glyph glyph-name="hyphen" unicode="&#xad;" horiz-adv-x="843" 
d="M749 667q12 -6 19 -16q18 -26 18 -72q0 -86 -18 -113q-14 -20 -39 -24q-14 -2 -59 1q-151 11 -332 -2q-45 -3 -99 -10l-10 -2l-10 -1q-11 -2 -17 -3q-19 -2 -32 -3q-30 -3 -48 2q-20 6 -36 23q-42 43 -43 122q0 35 10 64q10 31 29 48q18 16 60 15q29 -1 111 -14
q59 -9 239.5 -4.5t215.5 -0.5q27 -4 41 -10z" />
    <glyph glyph-name="period" unicode="." horiz-adv-x="365" 
d="M338 308q15 -30 14 -68q0 -171 -168 -200q-49 -8 -90 9q-65 27 -78 76q-4 63 6 119q6 36 18 60q44 87 166 88q43 1 72 -17q41 -23 60 -67z" />
    <glyph glyph-name="slash" unicode="/" horiz-adv-x="838" 
d="M702 911q13 21 28 47l14 22l13 22q30 50 46 76q44 77 61 128q20 60 15 120l-1 3v6q-1 6 -3 14q-3 20 -9 38q-17 54 -49 84q-50 45 -122 13q-64 -29 -93 -88q-426 -879 -479 -957q-81 -121 -106 -172q-38 -75 -37 -139q1 -66 36 -121q11 -18 25 -33l10 -10l3 -3l3 -2v-1
l1 -1l4 -2q5 -4 11 -8q19 -12 39 -20q62 -23 113 7q47 28 81 117q10 29 31 96l9 27l9 29q11 34 21 62q40 113 192 407q60 116 134 239z" />
    <glyph glyph-name="zero" unicode="0" 
d="M532 359q-38 -28 -90 -24q-53 3 -77 37q-15 21 -11 50q3 20 20 67l7 20l8 22q8 26 14 50q16 63 18 128q1 40 -3 84q-1 12 -4 34l-1 17l-2 16q-7 71 16 131l1 3l2 6q3 7 6 15q10 21 21 39q32 52 64 50q15 0 29 -13q18 -16 38 -54q54 -104 49 -251q-3 -92 -40 -283
q-23 -113 -65 -144zM974 954l-11 57q-14 63 -32 112q-45 123 -131 193q-104 84 -246 87q-141 3 -256 -75q-104 -70 -163 -196q-22 -45 -36 -95q-5 -19 -10 -39q-3 -14 -5 -29q-11 -63 0 -133l2 -16l3 -17q3 -21 5 -38q6 -49 6 -105q2 -98 -12 -182q-5 -33 -13 -67
q-4 -13 -8 -29l-7 -26q-17 -63 -19 -91q-4 -44 12 -87q46 -122 212 -181q137 -49 284 -39q5 0 11 1q7 0 15 1q21 2 43 6q62 11 117 31q165 60 221 188q18 39 25 220q18 411 3 494z" />
    <glyph glyph-name="one" unicode="1" 
d="M211 1278q-106 -45 -126 -123q-13 -49 10 -105q22 -51 64 -86l2 -2l3 -2l8 -6q9 -7 19 -13q29 -15 59 -19q38 -5 77 21q29 19 63 60l14 17l13 16q15 18 24 27q24 26 39 21q19 -7 22 -60q1 -20 0 -51l-1 -27l-2 -27q-7 -142 -5 -263q1 -41 3 -89l1 -20l1 -18q1 -22 2 -33
q6 -128 -31 -225q-15 -41 -35 -80q-6 -12 -15 -29l-7 -13l-6 -11q-24 -46 -11 -75q17 -40 79 -69q60 -28 137 -33q81 -5 148 17q76 26 115 82q26 38 28 94q2 42 -12 165q-63 570 -65 600q-5 108 3 217q2 37 7 84l2 18l2 18q2 21 4 33q6 70 0 104q-8 43 -40 70
q-58 48 -154 46q-97 -2 -141 -53q-14 -15 -25 -42l-9 -23l-8 -23q-20 -55 -52 -64q-10 -3 -20 -2l-9 1l-7 1q-75 13 -168 -26z" />
    <glyph glyph-name="two" unicode="2" 
d="M252 890q73 4 117 50q21 23 31 57q4 14 6 30l3 31q4 39 9 54q7 27 27 40q38 26 99 1q62 -25 94 -78q41 -65 23 -165q-16 -89 -68 -163q-41 -60 -103 -94q-25 -13 -57 -25l-29 -10l-29 -9q-77 -25 -116 -47q-62 -36 -104 -100l-1 -2l-1 -2q-2 -2 -4 -5q-4 -8 -9 -17
q-15 -27 -26 -57q-33 -90 -29 -181v-9l1 -10l1 -21q3 -25 7 -45q13 -54 44 -81q33 -28 97 -13q10 3 32 9l18 4l19 5q47 12 90 17q65 7 128 -1q23 -3 52 -9l25 -6l25 -5q124 -28 234 -4q106 24 140 77q35 53 28 128q-6 74 -48 108q-23 20 -68 16q-12 -2 -57 -8q-21 -3 -37 -6
q-23 -3 -45 -5l-6 -1h-6l-16 -2q-19 -1 -37 -3q-50 -4 -89 -4q-115 -2 -122 25q-4 16 44 51q9 6 25 17l14 10l16 10q40 28 70 50q131 99 181 147q82 77 111 154q52 137 -6 310q-61 182 -205 273q-119 75 -265 60q-49 -5 -97 -20q-17 -5 -32 -11q-6 -2 -11 -4l-5 -2l-3 -2
l-4 -1l-4 -2q-6 -3 -11 -6q-15 -7 -29 -15q-41 -22 -74 -50q-99 -81 -120 -190v-4l-2 -7q-1 -9 -2 -19q-3 -27 -2 -52q5 -75 46 -117q46 -47 122 -44z" />
    <glyph glyph-name="three" unicode="3" 
d="M157 1145q43 -84 102 -89q26 -3 50 15q10 7 22 19l21 23q27 30 44 42q28 20 57 19q63 -2 116 -73q52 -70 35 -123q-7 -21 -46 -42q-7 -3 -25 -12q-9 -5 -14 -8q-9 -4 -17 -9q-44 -22 -88 -49q-106 -63 -116 -98q-10 -38 11 -83q20 -42 55 -71q36 -30 84 -39q34 -6 85 -3
l19 1l19 1q20 2 32 1q33 -2 44 -20q15 -26 -4 -76q-18 -46 -57 -95t-81 -77q-47 -30 -79 -21q-19 6 -33 28q-5 8 -11 22l-11 24q-14 32 -26 49q-19 25 -47 35q-36 14 -79 4q-40 -10 -72 -35l-1 -2l-3 -2q-3 -3 -7 -6q-10 -10 -19 -21q-27 -35 -32 -72q-9 -69 55 -145
q54 -64 127 -100q89 -43 210 -33q113 9 225 63q112 55 187 137q80 88 94 185q12 73 -11 148q-25 83 -82 128q-37 30 -91 42q-41 10 -94 10q-18 0 -41 -1l-17 -1h-16q-30 -1 -31 5t24 13l13 3l14 4q20 5 35 10q44 13 77 31q45 24 73 57q70 82 67 218q-4 138 -82 240
q-98 127 -283 135q-63 3 -131 -8q-24 -4 -48 -9q-8 -2 -17 -4l-7 -2l-6 -2l-12 -3l-14 -4l-27 -8q-32 -10 -55 -22q-62 -32 -82 -85q-27 -73 18 -159z" />
    <glyph glyph-name="four" unicode="4" 
d="M154 1086q56 122 126 130q59 6 119 -46q58 -52 67 -115q4 -27 -15 -69q-1 -4 -81 -168q-46 -94 -56 -123q-10 -28 -2 -44q25 -50 123 -53q99 -3 130 47q14 21 8 55q-2 12 -8 29l-4 14l-5 14q-59 169 -59 343q1 192 81 257q35 28 122 39h7l8 1l22 2q29 2 55 0
q75 -6 110 -42q32 -32 24 -122q-6 -58 -59 -359q-22 -123 -24 -171q-4 -74 24 -89q13 -7 44 4l8 2l8 3l18 4q23 5 47 6h28q19 -1 35 -3q44 -8 66 -32q40 -44 20 -128t-75 -110q-23 -11 -52 -6q-18 2 -50 14q-61 22 -81 5q-17 -14 -13 -70l1 -13l1 -15v-32q0 -41 -8 -82
q-19 -97 -55 -131q-49 -47 -129 -50t-115 40q-20 26 -16 96q3 46 26 193q10 60 10 75q1 30 -13 44q-19 17 -63 8q-15 -3 -41 -11l-22 -7l-22 -6q-121 -35 -245 -22q-133 15 -178 76q-8 10 -11 22q-4 17 -3 43q5 67 49 211q81 263 118 342z" />
    <glyph glyph-name="five" unicode="5" 
d="M83 743q-5 -81 10 -97t46 -13q19 1 68 16l21 6l22 6q25 7 47 11q58 11 110 6h3h3q5 0 9 -1q13 -1 26 -3q39 -7 72 -18q103 -35 131 -106q35 -85 -30 -189q-62 -101 -140 -106q-36 -2 -96 44q-30 24 -51 34q-33 17 -71 18q-43 2 -83 -13q-48 -17 -71 -51q-33 -48 -18 -123
q13 -70 56 -118q50 -54 145 -75q92 -21 201 -5q251 37 386 215q85 112 105 255q22 160 -54 284q-46 76 -121 131q-85 62 -177 71q-41 4 -89 -2q-18 -3 -41 -7l-18 -4l-18 -4q-79 -17 -94 5q-9 13 16 105q29 105 51 122q24 18 65 13q16 -2 43 -8l12 -3l13 -3l27 -6
q139 -31 191 -36q83 -8 121 21q53 39 55 134q3 95 -48 139q-24 20 -81 14l-17 -2l-9 -1l-10 -1q-28 -3 -48 -5q-67 -6 -140 -9q-24 0 -57 -1l-26 -1h-25q-58 -2 -117 -7q-142 -13 -164 -26q-46 -28 -72 -112q-18 -56 -50 -234q-5 -34 -19 -260z" />
    <glyph glyph-name="six" unicode="6" 
d="M631 391q-33 -51 -76 -54q-52 -4 -96 59q-44 62 -37 131q6 56 43 101q40 48 86 46q49 -3 83 -62q32 -55 30 -117q-3 -55 -33 -104zM820 823q-106 66 -209 57q-46 -5 -90 -25q-34 -15 -69 -41q-11 -8 -26 -21l-11 -8q-6 -5 -9 -7q-19 -14 -24 -9q-9 8 5 44q14 38 44 81
q82 116 196 152q44 14 91 14q18 -1 39 -3q13 -1 35 -4q42 -6 58 -5q27 1 43 18q23 23 25 71q2 45 -14 97q-39 122 -128 165q-124 59 -320 -65q-186 -119 -296 -308q-106 -182 -117 -389q-13 -252 133 -419q107 -121 258 -179q186 -72 342 5q165 81 224 273q58 189 -26 345
q-53 98 -154 161z" />
    <glyph glyph-name="seven" unicode="7" 
d="M42 1273v-4q-1 -4 -1 -8q-2 -13 -3 -26q-2 -39 0 -74q9 -105 65 -143q27 -18 89 -9q68 10 279 69q135 38 154 42q37 8 47 -3q23 -27 -62 -159q-15 -24 -45 -70l-13 -19l-13 -20q-16 -23 -28 -42q-72 -108 -126 -200q-158 -265 -199 -359q-64 -146 -19 -210
q47 -67 173 -66q129 1 212 71q52 44 71 144l4 25l3 14l2 14q7 36 12 64q18 83 45 167q42 128 109 268q23 48 48 95q9 17 18 33q4 7 8 13q2 5 5 10q18 32 40 67l19 30l17 29q43 68 59 98q50 93 32 165q-13 52 -52 96q-13 14 -27 26q-5 4 -10 7l-3 2l-2 2q-56 37 -144 26
q-16 -2 -42 -7l-23 -3l-24 -4q-62 -10 -114 -12q-89 -4 -177 11q-33 6 -71 15l-32 8l-29 7q-67 17 -99 17q-45 0 -80 -28q-35 -29 -53 -81q-7 -20 -12 -45l-4 -21l-3 -20z" />
    <glyph glyph-name="eight" unicode="8" 
d="M520 236q-32 19 -55 52q-55 79 -40 202q16 123 81 151q40 18 91 -12q48 -29 75 -81q44 -86 14 -198q-30 -109 -95 -127q-34 -10 -71 13zM465 1102q30 37 60 36q43 -1 72 -67q30 -68 15 -137q-9 -39 -29 -72q-24 -39 -52 -42q-44 -3 -82 64q-40 72 -22 142q11 42 38 76z
M894 695q-13 5 -29 10l-14 4l-13 4q-62 16 -63 34q0 13 23 28l12 6l12 7q15 9 25 16q76 54 104 179q27 127 -17 235q-61 150 -251 200q-62 16 -131 19q-23 2 -44 1h-14h-5h-4l-3 -1h-4q-5 0 -11 -1q-15 -2 -31 -4q-45 -7 -87 -21q-125 -42 -189 -136q-17 -25 -29 -52
q-4 -9 -7 -18q-1 -4 -2 -7l-1 -2l-1 -2q-29 -97 6 -205q34 -106 113 -165q20 -15 44 -27q10 -5 21 -10l9 -4l9 -4q38 -15 36 -24q-1 -10 -52 -15q-15 -2 -24 -3q-14 -1 -26 -3q-32 -6 -56 -16q-85 -33 -145 -125q-58 -88 -66 -183q-12 -150 110 -285q107 -117 255 -166
q178 -59 364 3q195 66 276 228q60 121 48 265q-12 149 -92 211q-22 17 -56 29z" />
    <glyph glyph-name="nine" unicode="9" 
d="M634 777q-56 -18 -117 -4q-75 18 -105 79q-33 64 0 144q11 28 28 52q6 9 12 16l8 8q123 84 187 -73q23 -55 30 -122q7 -61 -3 -76q-10 -14 -40 -24zM996 925l-4 26q-4 30 -9 56q-13 67 -32 121q-53 146 -163 219q-120 80 -284 64q-53 -5 -106 -20q-18 -5 -34 -11
q-6 -2 -11 -4l-4 -1l-2 -1q-7 -3 -12 -5q-7 -3 -13 -6q-17 -7 -32 -16q-41 -23 -76 -55q-78 -73 -117 -179q-40 -109 -26 -222l1 -8l1 -11q2 -13 4 -25q7 -36 19 -68q34 -94 102 -154q77 -68 188 -85q40 -6 82 -4q17 0 33 2l24 2q35 6 71 17q13 5 29 10l12 5l12 5
q50 20 57 9q13 -16 -21 -69q-33 -52 -83 -95q-75 -64 -181 -94q-35 -10 -70 -15q-12 -2 -24 -3q-4 -1 -8 -1h-3h-2q-28 -2 -57 0q-9 0 -21 1l-10 1l-9 1q-35 2 -51 -13q-39 -37 -28 -125q12 -91 65 -136q48 -40 134 -38q83 3 182 44q221 91 354 281q107 153 129 353
q7 68 4 139q-1 25 -3 50q-1 9 -3 19v8l-1 6z" />
    <glyph glyph-name="colon" unicode=":" horiz-adv-x="449" 
d="M377 308q15 -30 14 -68q0 -171 -168 -200q-49 -8 -90 9q-65 27 -78 76q-4 63 6 119q6 36 18 60q44 87 166 88q43 1 72 -17q41 -23 60 -67zM377 940q15 -30 14 -68q0 -171 -168 -200q-49 -8 -90 9q-65 27 -78 76q-4 63 6 119q6 36 18 60q44 87 166 88q43 1 72 -17
q41 -23 60 -67z" />
    <glyph glyph-name="semicolon" unicode=";" horiz-adv-x="453" 
d="M448 105q-3 -161 -56 -212q-55 -51 -191 -21q-26 6 -27.5 27t20.5 28q117 3 103 117l-30 -33q-46 -27 -120 -3q-35 17 -48 62q-4 58 6 110q6 33 19 56q45 80 170 81q44 1 74 -16q42 -21 62 -62q10 -18 18 -134zM361 940q15 -30 14 -68q0 -171 -168 -200q-49 -8 -90 9
q-65 27 -78 76q-4 63 6 119q6 36 18 60q44 87 166 88q43 1 72 -17q41 -23 60 -67z" />
    <glyph glyph-name="semicolon" unicode="&#x37e;" horiz-adv-x="453" 
d="M448 105q-3 -161 -56 -212q-55 -51 -191 -21q-26 6 -27.5 27t20.5 28q117 3 103 117l-30 -33q-46 -27 -120 -3q-35 17 -48 62q-4 58 6 110q6 33 19 56q45 80 170 81q44 1 74 -16q42 -21 62 -62q10 -18 18 -134zM361 940q15 -30 14 -68q0 -171 -168 -200q-49 -8 -90 9
q-65 27 -78 76q-4 63 6 119q6 36 18 60q44 87 166 88q43 1 72 -17q41 -23 60 -67z" />
    <glyph glyph-name="less" unicode="&#x3c;" horiz-adv-x="1191" 
d="M185 1068q138 120 337 201q191 79 354 89q172 11 233 -59q59 -70 26 -206q-33 -137 -124 -198q-38 -26 -112 -32l-19 -2l-21 -1q-28 -2 -49 -4q-66 -6 -133 -17l-19 -3l-21 -3q-24 -4 -44 -7q-52 -9 -89 -18q-98 -23 -98 -45q-1 -19 89 -34q17 -2 45 -6l24 -4l26 -3
q67 -10 113 -18q142 -27 232 -69q118 -56 160 -145q42 -90 16 -200q-25 -109 -93 -141q-41 -19 -91 7q-29 15 -109 79q-41 32 -69 53q-43 31 -84 56q-106 63 -225 98q-58 17 -137 31l-31 6l-30 5q-33 6 -54 10q-114 26 -158 94q-34 53 -36 125q-1 25 3 51q1 9 2 19l2 8l1 6
q28 143 183 277z" />
    <glyph glyph-name="equal" unicode="=" horiz-adv-x="1001" 
d="M931 980q15 -6 24 -16q23 -26 23 -72t-23 -73q-17 -20 -49 -24q-18 -2 -74 1q-190 11 -419 -2q-56 -3 -124 -10l-13 -2l-12 -1q-14 -2 -22 -3q-24 -2 -40 -3q-38 -3 -60 2q-26 6 -46 23q-53 43 -54 122q0 35 12 64q13 31 37 48q23 16 76 15q36 -1 140 -14q74 -9 288 -24
l41 -2l41 -3q45 -3 77 -5q82 -6 126 -11q34 -4 51 -10zM135 599q44 5 126 11q32 2 78 5l40 3l41 2q214 15 288 24q104 13 141 14q52 1 76 -15q23 -17 36 -48q12 -29 12 -64q-1 -79 -53 -122q-21 -17 -46 -23q-23 -5 -61 -2q-15 1 -39 3q-8 1 -23 3l-12 1l-13 2
q-68 7 -124 10q-228 13 -419 2q-56 -3 -74 -1q-32 4 -49 24q-23 27 -23 73t24 72q9 10 23 16q17 6 51 10z" />
    <glyph glyph-name="greater" unicode="&#x3e;" horiz-adv-x="1195" 
d="M980 405q-138 -120 -337 -201q-191 -78 -354 -89q-172 -11 -233 59q-59 70 -26 206q33 137 124 198q38 26 112 32l19 2l21 1q28 2 49 4q65 6 133 17l19 3l21 3q24 4 44 7q52 9 89 18q98 23 98 45q1 19 -89 34q-17 2 -45 6l-24 4l-26 3q-67 10 -113 19q-142 26 -232 68
q-118 56 -160 145q-42 90 -16 200q25 109 93 141q41 19 91 -7q29 -15 109 -79q41 -32 69 -53q43 -31 84 -56q106 -63 224 -98q59 -17 138 -31l31 -6l29 -5q34 -6 55 -10q114 -25 158 -94q34 -52 36 -125q1 -24 -3 -51q-1 -9 -3 -19l-1 -8l-1 -6q-28 -143 -183 -277z" />
    <glyph glyph-name="question" unicode="?" horiz-adv-x="881" 
d="M89 926q66 -36 112 -15q23 11 45 62q12 29 23 46q17 27 43 48l3 3l5 4q5 5 10 8q14 10 27 17q37 20 70 15q59 -8 101 -77q40 -69 20 -122q-8 -21 -28 -34q-13 -9 -49 -22l-15 -5l-16 -7q-19 -7 -36 -15q-44 -22 -84 -54l-14 -11l-15 -13q-18 -15 -32 -30q-37 -39 -58 -85
l-3 -7l-4 -8l-8 -22q-11 -29 -16 -55q-14 -77 23 -121q33 -39 92 -47q58 -8 102 19q28 17 42 47q8 19 17 61l3 16l4 17q4 20 10 35q14 40 41 69q46 51 144 63l37 4q21 3 36 7q39 11 66 37q39 38 57 105q17 66 9 144q-17 176 -134 292q-114 112 -284 120q-160 8 -280 -77
q-80 -56 -128 -138q-59 -98 -29 -175q23 -62 91 -99zM141 61q26 -49 72 -74q61 -33 132 -14q72 19 108 81q31 52 25 114q-6 63 -49 105q-50 49 -127 42q-69 -6 -119 -48l-2 -3l-3 -2q-4 -4 -8 -7q-10 -10 -18 -21q-24 -33 -29 -71q-8 -52 18 -102z" />
    <glyph glyph-name="at" unicode="@" horiz-adv-x="1529" 
d="M758 524q-65 18 -94 63q-41 63 -1 153q38 88 98 93q28 3 58 -18q29 -21 42 -50q10 -23 1 -64l-2 -9l-2 -11q-3 -13 -4 -25q-5 -31 -5 -66q1 -53 -6 -59q-23 -24 -85 -7zM780 1424q-142 -6 -280 -64q-137 -58 -244 -156q-111 -102 -172 -229q-97 -203 -62 -432
q37 -240 206 -389q198 -174 514 -162q111 4 210 31q85 23 102 44q6 8 10 16q12 30 -6 71q-15 34 -38 54q-37 32 -130 7l-20 -6l-21 -6q-27 -7 -45 -12q-54 -13 -99 -14q-135 -4 -268 83q-134 87 -194 220q-81 178 10 388q29 68 74 133q15 21 31 41q6 7 11 13l4 5l3 3l3 4
l5 5q6 7 13 14q17 18 35 34q53 49 111 84q173 106 353 74q169 -31 287 -167q107 -123 125 -272l1 -3v-4q0 -5 1 -10l2 -28q1 -43 -5 -82q-17 -118 -93 -176q-40 -30 -86 -43q-53 -14 -82 6q-34 25 -28 103q3 29 11 66q3 14 7 31l4 14l3 13q14 52 36 101q8 17 18 38l8 17
l8 15q32 63 16 92q-21 39 -84 52q-62 13 -108 -10q-13 -6 -24 -17q-6 -6 -14 -19q-17 -24 -35 -31q-38 -16 -104 23l-26 16q-15 9 -26 14q-31 15 -57 15q-52 -1 -114 -58q-60 -56 -102 -141q-45 -90 -51 -179q-6 -100 42 -174q46 -73 131 -117q91 -47 169 -31q21 5 42 16
l17 9l15 11q40 25 79 27q51 3 105 -32l22 -15l22 -13q25 -15 48 -20q101 -20 229 92q126 111 168 257q57 199 -71 415q-125 209 -341 298q-131 53 -281 47z" />
    <glyph glyph-name="A" unicode="A" horiz-adv-x="1257" 
d="M589 632q-74 -10 -99 16q-17 17 -13 91q4 69 24 149q22 85 50 132q32 54 63 37q14 -8 23 -30q3 -9 10 -29l3 -9l3 -9q4 -13 8 -23q36 -104 46 -189t-12 -101q-37 -26 -106 -35zM924 1064l-5 21q-7 24 -12 42q-15 50 -31 87q-45 99 -122 146q-61 39 -139 47
q-82 9 -150 -21q-52 -21 -81 -63q-25 -36 -51 -114q-7 -22 -26 -82q-9 -29 -15 -48q-9 -29 -17 -54q-47 -139 -105 -276q-134 -317 -191 -668l-1 -6l-1 -8q-1 -10 -1 -20q1 -28 11 -53q23 -52 88 -82q55 -25 117 -26q71 -1 137 33q70 36 101 97q17 33 30 286q5 96 22 117
q38 50 122 55q85 5 133 -42q28 -26 34 -94l1 -16l2 -16q2 -20 5 -38q8 -47 27 -96q46 -122 98 -156q68 -44 171 -28q105 17 157 84q39 52 24 126q-12 55 -72 180l-13 28l-14 29q-17 36 -30 64q-37 78 -66 148q-79 192 -132 397z" />
    <glyph glyph-name="B" unicode="B" horiz-adv-x="1098" 
d="M492 333q-16 142 -4 280q12 3 46 3q38 0 73 -5q99 -15 101 -59q3 -67 -45 -135q-48 -67 -108 -85q-31 -9 -63 1zM452 1125q34 -5 69 -22q91 -43 92 -115q1 -43 -33 -86q-30 -37 -73 -56l-6 -3l-6 -3q-8 -3 -14 -4q-16 -5 -27 1q-16 7 -17 40v16v19q1 25 0 42
q-2 36 -10 69q-3 13 -7 27q-3 9 -8 21q-15 39 -5 47q12 11 45 7zM881 770q67 100 78 222q8 103 -24 193q-31 86 -130 139q-37 20 -86 36q-19 6 -42 13l-19 5l-19 6q-166 44 -332 20q-187 -28 -236 -133q-19 -41 -2 -134l2 -11l2 -12q2 -14 4 -26q5 -31 9 -62q10 -80 10 -172
q1 -44 -2 -86l-1 -17l-1 -19l-2 -44l-1 -46l-1 -48q-1 -55 -1 -100q1 -115 12 -200q29 -225 136 -285q17 -10 117 -15q116 -7 232 3q338 30 425 178q56 94 65 207q11 133 -51 242q-50 91 -142 146z" />
    <glyph glyph-name="C" unicode="C" horiz-adv-x="1076" 
d="M731 951q45 -20 74 -27q46 -10 94 -1l5 1l6 1q8 1 15 3q20 5 37 12q50 21 77 58q42 56 35 143q-6 80 -48 139q-45 62 -136 95q-88 31 -200 29q-247 -6 -422 -151q-122 -102 -180 -270q-21 -60 -33 -130q-5 -26 -9 -55q-1 -11 -3 -24l-1 -12l-1 -10l-2 -12l-1 -14
q-2 -15 -3 -28q-3 -35 -4 -66q-3 -83 7 -155q28 -199 156 -327q130 -129 329 -156q66 -9 135 -6q24 1 48 4q8 1 17 2l6 1h6l17 3l19 3q21 3 39 7q46 10 82 24q95 37 134 113q40 77 24 172q-16 94 -72 121q-23 11 -52 3q-17 -5 -60 -26l-36 -18q-22 -10 -43 -17
q-53 -18 -111 -22l-10 -1l-11 -1q-14 0 -25 -1q-31 0 -57 4q-70 9 -119 47q-69 53 -90 155q-17 88 5 175q22 85 77 153q62 77 140 92q54 11 145 -30z" />
    <glyph glyph-name="D" unicode="D" horiz-adv-x="1106" 
d="M636 414q-26 -22 -56 -30q-36 -9 -56 8q-14 12 -17 36q-2 18 3 59l2 18l2 20q3 26 4 46q5 58 3 114q-2 52 -10 108q-2 19 -7 44l-3 19l-3 18q-11 73 11 96q19 21 55 17q12 -1 25 -5q5 -1 9 -3l3 -1l2 -1q39 -15 67 -61q10 -17 19 -38l8 -18l3 -9l2 -7q32 -89 21 -193
q-5 -37 -15 -78q-4 -15 -9 -32l-4 -14l-4 -13q-22 -72 -55 -100zM633 1366q-77 21 -198 35l-49 6l-47 5q-54 6 -89 12t-54 8q-31 3 -54 2q-57 -4 -82 -40q-11 -18 -16 -43l-2 -18v-8v-6q0 -71 72 -287q0 -52 -1 -153v-41v-42v-87q-1 -468 -71 -676v-10l1 -10q0 -14 2 -25
q6 -32 22 -53q30 -40 101 -37q40 2 178 30q298 60 398 116q179 101 258 351v1l1 2l1 5q2 7 4 16q7 25 13 52q19 85 26 172q20 272 -83 470q-98 190 -331 253z" />
    <glyph glyph-name="E" unicode="E" horiz-adv-x="967" 
d="M463 1082l-4 -2q3 2 4 2zM162 1212q8 17 16 30q19 34 48 57l27 22q17 14 28 22q35 26 72 40q98 39 269 19q223 -28 224 -28q60 -11 81 -45q32 -51 20 -127q-13 -76 -60 -108q-29 -19 -70 -14q-16 2 -39 8l-21 6l-21 6q-56 17 -93 19q-55 4 -105 -17q-34 -15 -58 -38
q-9 -8 -16 -17q-3 -3 -6 -7q-1 -3 -3 -6q-32 -49 -28 -114q3 -64 39 -91q18 -13 55 -8q6 1 21 3l13 2l14 2q37 6 75 8q85 7 114 6q43 -3 63 -20q45 -39 43 -121q-1 -83 -46 -118q-21 -17 -67 -14l-13 1l-13 1q-18 1 -32 2q-43 1 -89 -2q-78 -5 -119 -18q-15 -5 -24 -11
q-3 -2 -6 -5l-2 -1l-2 -2q-35 -36 -39 -97q-3 -61 28 -97q18 -21 57 -27q26 -3 139 -7q164 -5 210 -11q43 -6 55 -22q31 -42 4 -124q-27 -84 -91 -130q-35 -26 -76 -29q-28 -1 -88 11l-13 2l-14 3q-17 4 -30 6q-36 7 -69 11q-90 11 -189 7q-17 -1 -39 -2l-18 -1l-18 -2
q-39 -2 -62 -1q-61 3 -95 36q-52 48 -55 168q-2 89 1 203q3 136 13 263q26 330 88 488q7 19 12 30z" />
    <glyph glyph-name="F" unicode="F" horiz-adv-x="913" 
d="M824 1354q-1 0 -213 28q-165 22 -269 -14q-41 -14 -78 -38q-14 -10 -30 -23q-10 -8 -26 -22q-28 -24 -46 -59q-8 -14 -15 -31q-5 -12 -12 -31q-57 -160 -69 -511q-5 -125 -4 -276q1 -55 2 -118q0 -23 1 -50l1 -23v-21q3 -125 52 -175q33 -34 91 -37q21 -1 59 2l16 1l18 1
q21 1 37 2v0q41 2 70 28q46 41 38 100q-5 35 -9 92q-5 65 -6 124q-4 156 17 179l1 2l2 2q3 2 6 5q9 6 23 11q39 14 113 19q44 3 84 1q14 0 31 -1l13 -1l11 -1q45 -3 64 14q43 37 44 122q2 86 -40 126q-20 18 -61 20q-28 2 -108 -5q-36 -3 -71 -9l-13 -2l-12 -2
q-15 -2 -21 -3q-35 -6 -52 8q-34 28 -37 95t26 118l4 6q2 4 5 8q7 9 15 18q23 23 56 38q47 22 100 19q34 -3 88 -20l20 -7l19 -6q22 -6 37 -8q40 -5 67 14q45 33 57 112t-19 133q-20 34 -77 46z" />
    <glyph glyph-name="G" unicode="G" horiz-adv-x="1167" 
d="M1070 631l2 16l3 14q2 17 3 26q6 48 -16 74q-18 20 -61 28q-52 10 -196 13q-185 4 -256 -7q-54 -8 -72 -34q-17 -26 -15 -64q1 -14 4 -29q2 -5 3 -11l1 -5l2 -4q11 -39 37 -70q32 -38 72 -48q29 -7 62 2q21 6 54 23l12 6l11 6q13 7 22 10q22 8 36 -1q17 -10 16 -48
q0 -15 -4 -42l-3 -24l-4 -27q-60 -21 -124 -25l-11 -1l-12 -1q-13 0 -25 -1q-31 0 -58 3q-72 9 -122 45q-71 52 -92 149q-18 84 5 167q22 81 78 146q65 74 144 88q55 11 149 -29q46 -19 76 -25q46 -10 96 -2l5 1l7 2q8 1 15 3q20 4 38 11q50 20 79 55q43 54 36 137
q-7 77 -50 133q-46 59 -140 91q-90 30 -204 27q-254 -5 -433 -144q-126 -98 -185 -257q-21 -58 -34 -125q-5 -25 -9 -53q-1 -11 -3 -23l-1 -11l-1 -10l-1 -11l-2 -13q-2 -15 -3 -28q-3 -33 -4 -62q-3 -80 7 -148q28 -191 160 -313q134 -124 337 -149q68 -9 139 -6q25 1 49 4
q9 1 17 2l7 1h5q21 3 34 5q20 3 37 6q8 -12 16 -20q31 -32 80 -44q49 -11 90 3q38 13 65 51q11 14 20 32l7 15q2 6 6 14q33 79 13 186l-5 23l-5 25l-9 54q-9 68 -5 138q2 38 8 80z" />
    <glyph glyph-name="H" unicode="H" horiz-adv-x="1220" 
d="M436 877q-5 25 -1 83l1 27l2 29q2 35 2 64q1 82 -10 157q-16 104 -56 132q-54 37 -145 26q-92 -11 -143 -59q-38 -37 -42 -97q-2 -33 11 -134q40 -327 39 -700q0 -85 -6 -188l-2 -20l-1 -18q-1 -23 -2 -34q-2 -37 -2 -59q-1 -57 9 -89q12 -36 43 -61q80 -64 215 -48
q133 15 191 91q28 37 24 113q-2 53 -28 204q-10 62 -23 121q-2 9 -5 21l-2 9l-2 8q-5 19 -6 28q-7 38 19 72q40 53 125 71q84 17 124 -16q25 -21 20 -88q-2 -19 -9 -82q-4 -31 -7 -52q-3 -32 -6 -62q-2 -27 -6 -55l-3 -23l-2 -20q-7 -45 -7 -61q-1 -44 40 -88
q46 -49 125 -66q26 -6 53 -8q9 0 18 -1h6l5 1h1h1h6q9 1 19 2q31 4 60 12q88 26 125 84q34 54 10 142q-8 28 -31 90l-9 26l-10 27q-11 31 -20 59q-32 104 -62 397q-11 108 -13 228v46v22v20v74q-3 73 -17 112q-17 47 -60 79l-3 2l-3 3q-6 3 -11 7q-16 10 -33 17
q-51 23 -101 19q-55 -3 -107 -36q-49 -30 -76 -72q-38 -59 -27 -143q7 -56 43 -148l14 -35q9 -21 14 -33q14 -37 19 -61q14 -61 -18 -86q-19 -14 -87 -27l-16 -3l-19 -4q-22 -3 -40 -5q-48 -3 -73 10t-32 47z" />
    <glyph glyph-name="I" unicode="I" horiz-adv-x="577" 
d="M489 970q5 21 10 47l5 22l4 22q10 49 15 76q13 75 7 120q-8 52 -46 94l-2 3l-4 3q-4 5 -10 9q-14 14 -31 25q-49 32 -102 40q-84 11 -153 -43q-62 -49 -65 -105q-52 -829 -73 -909q-34 -124 -38 -173q-6 -71 29 -117q35 -48 105 -73q23 -9 48 -14q9 -2 17 -3l6 -1h4h1
l1 -1h6q9 -1 18 -1q29 -1 57 3q86 9 131 53q42 41 35 121q-2 26 -12 84l-4 24l-3 25q-5 29 -8 55q-11 100 17 381q12 111 35 233z" />
    <glyph glyph-name="J" unicode="J" horiz-adv-x="837" 
d="M369 291q54 26 66 130q4 40 3 92q0 21 -2 45q-1 17 -3 41q-11 157 -33 318q-4 28 -9 61l-4 28l-4 27q-9 64 -13 93q-11 87 -5 131q7 51 40 85q53 55 145 66q90 10 146 -28q31 -21 45 -75q15 -61 25 -226q7 -118 10 -234v-87v-35v-28q-2 -366 -32 -434l-5 -13l-7 -14
q-8 -17 -15 -31q-21 -40 -45 -72q-68 -90 -166 -129q-105 -43 -224 -24q-112 17 -195 81l-4 2l-4 3l-9 7q-11 9 -21 18q-28 24 -47 48q-55 69 -36 131q16 57 81 92q63 35 112 19q17 -6 32 -20q5 -6 12 -14l11 -14q31 -39 66 -48q48 -12 89 8z" />
    <glyph glyph-name="K" unicode="K" horiz-adv-x="1127" 
d="M85 1251q0 -26 4 -61l4 -30l4 -31q21 -153 -4 -668q-5 -94 -16 -203l-2 -20l-2 -20q-2 -25 -3 -36q-4 -38 -6 -62q-3 -58 5 -91q8 -36 36 -62q51 -46 133 -52q83 -6 137 36l2 2l3 2q3 3 7 6q9 10 17 23q24 39 37 100q17 76 8 160q-3 33 -11 70q-5 26 -15 63
q-19 78 -21 102q-5 45 19 65q14 12 36 15q18 2 34 -3q38 -11 60 -72q9 -23 19 -61l8 -34l9 -36q43 -175 71 -242q43 -107 111 -156q52 -37 117 -48q70 -12 132 11l5 1l6 3q8 3 15 6q19 8 34 18q45 28 60 67q36 92 -84 255q-42 57 -102 121q-22 23 -47 48q-9 10 -20 20l-9 9
l-7 7q-19 18 -42 40l-21 19l-20 19q-49 44 -71 68q-67 72 -54 120q4 14 14 26q3 4 8 9l4 3l3 3q208 184 268 249q90 99 93 170q2 49 -28 97q-27 42 -67 65q-65 36 -156 13q-87 -22 -147 -84q-44 -45 -81 -163q-19 -58 -37 -96q-28 -58 -73 -110l-3 -3l-3 -4q-4 -5 -8 -9
q-11 -12 -20 -20q-26 -23 -36 -18q-9 5 -4 31q2 12 16 68q7 27 12 47q7 28 11 54q12 66 14 128l2 39v38q0 43 -5 73q-11 75 -55 104q-54 36 -138 8q-83 -28 -127 -92q-32 -47 -33 -114z" />
    <glyph glyph-name="L" unicode="L" horiz-adv-x="955" 
d="M85 788q2 -45 4 -88q1 -14 1 -27q1 -5 1 -10v-3v-3q7 -141 -2 -278q-3 -49 -9 -105q-2 -18 -5 -46l-3 -21l-2 -20q-9 -86 -4 -124q7 -49 42 -78q30 -23 93 -18l18 2l20 2q27 2 50 3q68 4 144 3q89 -2 178 -12q27 -3 66 -8l14 -2l14 -1q15 -2 25 -3q98 -11 144 26
q62 50 78 143t-27 152q-36 50 -124 67q-32 7 -75 9q-17 1 -37 1h-33q-42 0 -85 -5q-14 -2 -33 -5l-15 -3l-14 -2q-56 -9 -80 11q-27 22 -28 76q-1 41 15 142q16 98 34 187q6 32 14 69l7 30l6 29q26 119 29 198l2 52l1 51q0 57 -6 99q-16 105 -78 145q-63 41 -155 21
q-91 -19 -145 -81q-33 -39 -42 -102q-8 -52 -5 -197q2 -138 7 -276z" />
    <glyph glyph-name="M" unicode="M" horiz-adv-x="1616" 
d="M185 1216q-4 -22 -13 -105q-4 -40 -8 -72q-5 -43 -12 -86q-17 -107 -46 -225l-12 -48l-12 -46q-15 -56 -22 -88q-47 -197 -29 -385q11 -112 36 -172q27 -63 77 -88q65 -32 153 -4q83 26 138 88q50 56 60 144q4 35 3 87q0 18 -1 48l-1 25l-1 26q-6 223 13 417q7 66 15 114
q3 19 5 30q2 10 3 10l11 -138q6 -78 13 -152q10 -98 23 -190q29 -213 62 -303q33 -87 94 -120q56 -31 125 -26q69 4 115 42q52 43 64 130q5 33 4 79l-1 39l-1 38q-7 236 37 448q16 73 34 126q15 45 20 44q8 -1 23 -166q17 -188 25 -424q4 -125 12 -168q16 -77 63 -119
q63 -55 160 -56q96 -2 157 50q60 51 62 160q1 73 -30 257q-88 516 -145 691q-24 76 -49 111q-18 24 -47 39q-79 39 -180 36q-96 -4 -162 -44q-71 -43 -107 -146q-22 -63 -47 -220q-5 -33 -9 -73q-2 -14 -4 -32l-1 -15l-1 -13q-6 -57 -12 -57t-7 62v15v16q-1 19 -1 36
q-2 44 -6 82q-11 103 -43 180q-40 99 -113 157q-88 69 -214 89q-129 21 -206 -25q-51 -30 -64 -110z" />
    <glyph glyph-name="N" unicode="N" horiz-adv-x="1189" 
d="M104 176q5 -23 10 -38q6 -22 15 -39q21 -43 59 -59q59 -26 145 8t131 99q29 43 27 110q-1 21 -6 87q-3 35 -4 59q-3 37 -5 72l-1 21l-1 23l-1 48q-2 57 -2 97q1 107 18 110q27 4 86 -136q67 -155 95 -328q2 -15 6 -37l2 -17l2 -17q6 -38 12 -59q15 -57 56 -84
q51 -33 131 -30q79 4 137 42q34 23 49 57q14 32 19 94q2 25 4 68q0 14 1 41l1 22l1 24q5 129 14 241l1 3v3q0 5 1 10q1 14 2 30q3 47 5 100q7 161 4 323q-2 106 -12 148q-13 56 -52 78q-50 28 -128 10t-122 -67q-34 -37 -34 -112q0 -25 3 -104q2 -43 3 -73q1 -45 2 -89
q2 -116 -3 -164q-2 -19 -5 -27q-2 -6 -5 -7q-5 0 -12 48l-1 12l-2 12q-2 16 -4 29q-5 35 -13 67q-19 85 -53 155q-45 89 -114 152q-80 72 -179 110q-111 41 -180 8q-43 -20 -62 -77q-15 -43 -34 -171q-83 -549 -7 -886z" />
    <glyph glyph-name="O" unicode="O" horiz-adv-x="1333" 
d="M775 543q-90 -89 -183 -52q-64 25 -106 104q-41 78 -41 166q-1 148 100 252q46 48 97 64q55 16 102 -7q62 -30 100 -119q37 -87 30 -182q-9 -137 -99 -226zM686 1387q-154 -20 -305 -109q-148 -87 -251 -216q-108 -135 -137 -278q-28 -136 16 -279q15 -49 38 -97
q8 -17 17 -34q7 -12 14 -23q100 -164 276 -256q195 -102 401 -67q251 43 409 274q51 76 87 164q12 29 21 57l6 20l2 6l1 5q59 226 -18 452q-82 242 -276 336q-134 66 -301 45z" />
    <glyph glyph-name="P" unicode="P" horiz-adv-x="993" 
d="M475 1140q35 -3 73 -19q96 -42 103 -118q4 -46 -28 -92q-29 -42 -71 -64l-6 -3l-7 -4q-7 -3 -14 -5q-16 -5 -28 0q-17 7 -21 42q0 7 -1 17l-1 19q-1 27 -3 45q-5 39 -15 73q-4 14 -10 28q-3 9 -9 22q-18 41 -9 50q12 12 47 9zM826 1368q-40 19 -92 34q-20 6 -44 12l-21 5
l-20 4q-174 39 -345 6q-192 -38 -235 -152q-17 -45 7 -142l3 -12l4 -13q3 -14 6 -27q8 -33 14 -65q15 -84 23 -182q3 -47 4 -91v-19v-19q1 -24 1 -48l2 -48l3 -51q2 -58 6 -106q9 -122 27 -212q46 -236 161 -295q80 -41 182 -9q99 31 125 98q9 24 -1 63q-5 19 -49 154
q-40 118 -32 249q50 12 179 92q49 30 91 59q40 28 48 37q115 122 132 285q15 134 -35 252q-38 90 -144 141z" />
    <glyph glyph-name="Q" unicode="Q" horiz-adv-x="1533" 
d="M593 410q-59 79 -74 177q-23 141 51 254t182 98q73 -11 136 -81q62 -68 83 -158q36 -149 -47 -281q-37 -59 -88 -87q-54 -31 -109 -19q-73 16 -134 97zM1370 179q-13 -5 -31 -15l-16 -9l-17 -10q-43 -25 -73 -34q-44 -13 -88 -3q-12 3 -59 22q166 124 267 301
q104 183 101 357q-2 144 -82 279q-27 47 -63 89q-13 16 -26 31l-20 20q-145 141 -352 192q-231 56 -441 -31q-255 -104 -368 -378q-36 -89 -53 -187q-6 -33 -9 -64q-1 -11 -2 -21v-7v-5q-10 -244 125 -455q143 -225 371 -274q151 -32 316 25q49 -83 184 -137
q129 -52 262 -49l26 1l27 1q31 3 54 8q61 14 92 54q52 67 26 174q-25 105 -90 128q-27 10 -61 -3z" />
    <glyph glyph-name="R" unicode="R" horiz-adv-x="1283" 
d="M666 664q-43 -37 -96 -52l-8 -2l-8 -2q-10 -2 -17 -3q-21 -1 -33 6q-17 12 -13 50q1 7 2 18l4 21q5 29 7 48q4 42 0 81q-1 15 -4 31q-2 11 -5 26q-11 47 1 55q16 10 56 -1q39 -11 78 -37q101 -65 90 -148q-6 -49 -54 -91zM1227 63q-10 0 -21 -1l-21 -3q-50 -6 -67 12
q-15 16 -10 54q1 6 3 19l2 11l2 12q4 30 6 56l1 13l1 13q0 17 1 30q0 38 -4 69q-11 85 -53 132q-22 24 -55 41q-24 11 -58 22l-14 4l-12 3q-13 4 -21 7q-18 7 -17 17q0 10 22 20q7 3 20 7l9 4l9 2q99 37 164 162t41 236q-22 101 -126 176q-39 28 -94 54q-20 11 -46 21
l-21 10l-21 9q-183 78 -379 80q-220 2 -294 -105q-29 -43 -25 -147l1 -13v-13q1 -16 1 -29q1 -36 0 -70q-2 -89 -16 -191q-8 -49 -17 -95l-4 -19l-4 -20l-10 -48l-9 -51l-9 -52q-11 -61 -18 -110q-18 -127 -19 -222q-3 -252 109 -337q79 -60 199 -49q117 10 160 74
q16 22 14 65q-1 20 -19 168q-22 177 -11 238q4 23 13 33q2 4 7 7l8 6q24 18 65 12q44 -6 81 -37q99 -86 76 -281q-13 -117 12 -203q9 -34 26 -66q11 -23 31 -51q51 -77 171 -104q39 -9 83 -11q14 -1 29 -1h9h7l11 1l12 1q17 1 32 3q42 5 77 15q101 31 136 107q38 80 -1 176
q-37 91 -108 118q-21 9 -47 9z" />
    <glyph glyph-name="S" unicode="S" horiz-adv-x="1210" 
d="M976 -10q-60 -24 -133 -41q-25 -6 -51 -10l-20 -4l-8 -1l-6 -1q-184 -28 -363 11q-217 48 -293 180q-4 6 -8 22q-5 19 -7 39q-6 56 17 86q35 47 122 49q65 1 176 -24l45 -11l45 -11q54 -13 82 -19q86 -17 113 -3q46 23 72 74q26 50 13 86q-12 30 -60 44q-36 9 -146 22
q-57 6 -119 12q-22 2 -49 5l-23 3l-22 2q-93 9 -127 14q-81 11 -115 43q-68 61 -79 186q-4 42 -1 89l2 32l2 12v5l1 3q23 174 164 310q47 45 103 83q20 13 39 24q7 4 14 7l6 3l4 2q162 84 343 72q197 -13 310 -137q75 -81 106 -191q33 -114 -11 -166q-33 -38 -107 -35
q-70 2 -130 37q-41 23 -71 61q-12 15 -24 34l-10 18l-10 17q-24 43 -40 60q-25 28 -59 36q-45 11 -94 -12q-43 -19 -74 -55q-48 -56 -54 -135q-6 -78 31 -122q28 -32 98 -27l17 1l18 2q23 1 42 2q53 1 104 -6l6 -1l6 -1q8 -1 15 -2q19 -4 36 -8q49 -10 93 -27
q125 -49 202 -145l4 -6l5 -7q7 -9 13 -18q18 -26 31 -54q40 -80 47 -167v-3v-5q1 -6 1 -12v-35q-2 -51 -14 -89q-40 -125 -220 -197z" />
    <glyph glyph-name="T" unicode="T" horiz-adv-x="1159" 
d="M968 1445l-33 -10l-33 -11q-40 -13 -62 -19q-64 -36 -277 -93q-236 -63 -319 -50q-59 -1 -96 -6q-54 -7 -74 -23q-65 -49 -57 -190q9 -158 85 -175q38 -9 109 18l30 12l29 12q36 16 54 22q9 4 23 9l11 4l10 4q22 7 34 9q30 3 40 -30q9 -34 -6 -324q-6 -110 -14 -234
q-7 -110 -13 -183q-11 -129 39 -218q48 -85 135 -104q74 -17 102 -8q12 3 32 14l9 5l11 6q13 7 26 13q58 27 90 137q30 104 18 212q-4 40 -28 162l-6 27l-5 27q-8 37 -12 58q-14 68 -23 118q-56 301 -25 351q34 54 104 59q24 2 67 -1l37 -4q22 -1 38 -2q95 -4 123 11
q48 25 70 132q26 124 1 197q-27 79 -109 86q-55 4 -135 -20z" />
    <glyph glyph-name="U" unicode="U" horiz-adv-x="1178" 
d="M68 856q6 54 12 96q16 107 34 178q48 183 138 205q52 12 113 -23q57 -33 89 -88q37 -61 18 -165q-4 -18 -11 -52l-7 -29l-6 -31q-17 -80 -25 -152v-2v-4l-1 -8l-2 -22q-3 -34 -4 -66q-2 -96 14 -165q49 -210 250 -103q39 21 49 123q13 134 -29 389q-14 83 -34 171
q-3 14 -7 32l-4 15l-3 15q-7 32 -11 49q-17 85 12 124q56 75 192 72q138 -2 213 -84q39 -43 47 -114q5 -47 0 -197q-20 -547 -23 -590q-8 -110 -44 -163q-94 -141 -266 -215q-55 -24 -112 -38q-19 -5 -37 -8q-6 -1 -11 -2h-4l-2 -1h-3h-4q-6 -1 -13 -1q-21 -2 -44 -2
q-70 0 -135 11q-205 36 -307 174q-64 85 -68 221q-4 91 25 354z" />
    <glyph glyph-name="V" unicode="V" horiz-adv-x="1043" 
d="M185 444q-22 81 -47 205q-8 41 -21 114l-6 30l-6 30q-6 36 -12 63q-58 307 -61 338q-11 97 33 135q57 51 160 42t159 -69q39 -40 42 -116q0 -23 -1 -85q-1 -32 -1 -52v-61q4 -172 38 -329q32 -150 59 -150q30 0 68 179q39 180 52 383q2 25 3 56l2 25l1 23q2 52 5 77
q9 65 46 94q75 58 211 23q137 -35 183 -128q24 -47 3 -115q-6 -22 -83 -209q-18 -44 -41 -103l-39 -100q-49 -123 -82 -199q-98 -227 -214 -402q-8 -10 -13 -18q-7 -11 -14 -20q-18 -23 -35 -39q-46 -43 -93 -44q-40 -1 -81 30q-29 22 -61 64q-99 125 -154 328z" />
    <glyph glyph-name="W" unicode="W" horiz-adv-x="1721" 
d="M380 115q-24 1 -47 3l-3 1q24 0 50 -1v-3zM1575 1430q-64 17 -123 11q-62 -6 -100 -36q-39 -31 -48 -102q-4 -26 -6 -82l-1 -25l-2 -27q-1 -33 -3 -60q-14 -219 -55 -412q-40 -193 -72 -193q-8 0 -15 101l-2 24l-1 25q-2 30 -4 55q-6 65 -14 118q-21 144 -63 224
q-54 103 -143 105q-216 6 -305 -322q-15 -55 -27 -121q-5 -26 -10 -56q-3 -19 -7 -50q-15 -103 -24 -103q-30 0 -63 162q-36 168 -40 354q-1 31 0 65q0 22 1 56q1 68 0 92q-3 81 -43 125q-60 64 -169 74q-108 10 -169 -45q-46 -41 -35 -145q3 -34 65 -364q6 -30 13 -68
l6 -33l6 -32q14 -79 23 -123q25 -134 49 -221q59 -218 163 -353q34 -45 65 -69q43 -33 85 -32q50 1 99 48q18 17 36 42q8 10 15 21q6 8 13 19q35 53 96 217l12 32l12 31q14 39 22 59q24 64 38 92q10 -34 24 -107l6 -32l6 -33q7 -41 12 -67q34 -169 74 -221q35 -45 65 -69
q43 -33 86 -32q50 1 98 48q18 17 37 42q7 10 15 21q6 8 13 19q124 189 227 433q35 82 86 214l42 109q25 63 43 110q81 201 88 225q22 73 -3 124q-49 101 -194 138z" />
    <glyph glyph-name="X" unicode="X" horiz-adv-x="1508" 
d="M426 886q-50 58 -173 154l-47 36q-25 20 -43 35q-47 38 -73 67q-65 72 -37 125q16 29 57 52q34 19 74 29q79 18 176 -13q32 -10 64 -26q11 -5 22 -11l8 -4l3 -2l3 -1q104 -61 174 -179q26 -43 49 -97q8 -20 17 -44l7 -20l7 -18l7 -22l6 -19q8 -23 11 -32q11 -29 22 -29
q12 0 24 30q4 11 12 35l3 10l4 11q4 14 7 25q22 65 46 118q35 76 81 142q45 66 85 99q15 13 30 21q9 5 21 9q99 36 227 4q128 -33 169 -105q42 -72 -35 -178q-28 -39 -73 -84q-18 -18 -39 -38l-19 -17l-17 -15q-56 -50 -130 -100q-25 -17 -60 -39l-14 -9l-14 -8
q-17 -11 -26 -17q-57 -36 -78 -57q-27 -28 -20 -54q6 -19 31 -35q10 -6 24 -14l27 -12q196 -94 323 -261q129 -167 112 -308l-2 -13l-2 -14q-3 -17 -8 -30q-14 -33 -43 -53q-71 -45 -207 -23q-137 22 -225 94q-62 50 -104 149q-28 65 -85 260l-5 21l-6 19q-6 21 -11 33
q-13 32 -28 32q-18 1 -45 -68l-7 -17l-7 -19q-10 -25 -17 -43q-22 -54 -44 -101q-69 -141 -102 -186q-50 -69 -122 -93q-80 -27 -177 -12q-99 16 -149 68q-26 26 -35 62q-12 47 4 113q25 98 101 177q50 53 150 119l38 25l37 25q40 27 65 50q64 57 71 120q9 81 -70 171z" />
    <glyph glyph-name="Y" unicode="Y" horiz-adv-x="1226" 
d="M990 1441q-148 21 -230 -14q-25 -11 -37 -26q-24 -32 -29 -81q-1 -17 0 -36q1 -7 1 -14l1 -5l2 -4q16 -115 -19 -314q-37 -201 -76 -205q-18 -2 -50 47q-31 50 -58 122q-67 184 -36 300l2 4l1 7q2 7 3 14q4 20 4 39q3 54 -19 93q-10 18 -35 32q-63 36 -174 42
q-114 5 -177 -26q-47 -23 -36 -81q3 -19 67 -204q19 -55 79 -178q18 -37 55 -111l30 -58l28 -59q142 -291 128 -342q-47 -168 -55 -230q-14 -96 18 -142q28 -39 94 -57q62 -16 137 -10q76 6 136 34q65 30 89 77q22 40 -2 111l-5 17l-7 19q-9 24 -14 44q-18 58 -27 119
q-23 138 118 408q50 97 116 200q50 77 91 133q145 195 88 258q-51 56 -202 77z" />
    <glyph glyph-name="Z" unicode="Z" horiz-adv-x="1095" 
d="M70 1034l6 -28q7 -31 15 -54q22 -58 61 -76q27 -13 61 -5q26 6 78 30l12 5l12 6l26 13q33 15 61 27q79 33 161 57q71 20 101 22q11 1 16 -1l4 -2l1 -2q10 -16 -98 -109l-12 -11l-14 -12q-17 -15 -29 -25q-36 -31 -64 -57q-80 -71 -148 -140q-201 -204 -269 -353
q-24 -52 -31 -95q-2 -16 -2 -30v-12l1 -9l1 -5l1 -7q1 -9 3 -17q4 -24 12 -45q21 -60 64 -94q38 -30 87 -31q36 -1 105 15l16 4l15 3l33 8q41 9 74 14q93 14 186 10q56 -2 119 -13l25 -4l23 -4q27 -5 41 -7q84 -13 133 22q46 33 71 95q9 23 17 53q3 12 6 26l2 12l3 12
q7 38 10 83q3 52 -2 98q-12 116 -72 150q-45 25 -118 -1q-52 -18 -133 -69l-32 -20l-15 -10l-15 -10q-35 -22 -55 -33q-55 -30 -72 -14q-20 19 12 94q12 27 30 60q7 13 15 27l6 12l6 10q58 99 133 188q27 33 63 72q11 11 30 32l14 15l15 15q128 139 151 264l3 20l3 21
q3 23 3 41q0 47 -21 81q-47 76 -204 84q-102 4 -404 -26q-151 -16 -218 -39q-59 -20 -89 -60q-39 -54 -43 -138q-1 -30 2 -63q2 -11 4 -24l1 -10l2 -9z" />
    <glyph glyph-name="bracketleft" unicode="[" horiz-adv-x="985" 
d="M391 1200q5 7 17 21q3 4 63 -5q60 -8 63 -5q26 32 36 42q18 18 14 49q-3 29 -22 55q-9 12 -22 19q-70 40 -170 44q-10 0 -30 1t-30 1q-40 1 -132 -29q-13 -4 -24 -8q-44 -10 -67 -57q-23 -48 -2 -92q8 -14 14 -30q7 -14 13 -30q80 -227 46 -724q-5 -20 -10 -41
q-23 -84 -59 -159q-9 -18 -19 -36q-7 -17 -16 -34q-5 -12 -2 -59q3 -16 8 -29q6 -12 15 -22q63 -67 283 -72q142 -3 249 0q6 0 8 -1h8q159 16 185 103q15 52 -118 127q-225 27 -240 46q-30 39 -38 394q-85 353 -35 508q1 4 14 23z" />
    <glyph glyph-name="backslash" unicode="\" horiz-adv-x="975" 
d="M332 672q152 -294 192 -407q10 -28 21 -62l9 -29l9 -27q21 -67 31 -96q34 -89 81 -117q51 -30 113 -7q20 8 39 20q6 4 11 8l4 2l1 1v1l3 2l3 3l10 10q14 15 25 33q35 55 36 121q1 64 -37 139q-25 51 -106 172q-53 78 -479 957q-29 59 -93 88q-72 32 -122 -13
q-32 -30 -49 -84q-6 -18 -9 -38q-2 -8 -3 -14v-6l-1 -3q-5 -60 15 -120q17 -51 61 -128q16 -26 46 -76l13 -22l14 -22q15 -26 28 -47q74 -123 134 -239z" />
    <glyph glyph-name="bracketright" unicode="]" horiz-adv-x="1039" 
d="M469 221q-5 -7 -17 -21q-3 -4 -63 5q-60 8 -63 5q-26 -32 -36 -42q-18 -18 -14 -49q3 -29 22 -55q9 -12 22 -19q70 -40 170 -44q10 0 30 -1t30 -1q40 -1 132 29q13 4 24 8q44 10 67 57q23 48 2 92q-8 14 -14 30q-7 14 -13 30q-80 227 -46 724q5 20 10 41q23 84 59 159
q9 18 19 36q7 17 16 34q5 12 2 59q-3 16 -8 29q-6 12 -15 22q-63 67 -283 72q-142 3 -249 0q-6 0 -8 1h-8q-159 -16 -185 -103q-15 -52 118 -127q225 -27 240 -46q30 -39 38 -394q85 -353 35 -508q-1 -4 -14 -23z" />
    <glyph glyph-name="asciicircum" unicode="^" horiz-adv-x="785" 
d="M628 1255l-9 7l-10 8q-12 10 -22 19q-26 24 -47 53q-19 28 -34 59l-5 13l-5 11q-6 14 -8 20l-1 2q-7 30 -33 51q-9 7 -20 13q-4 1 -8 3l-3 1l-2 1q-50 19 -117 -10q-23 -10 -45 -24q-8 -5 -15 -10l-6 -4l-3 -3q-67 -52 -98 -143q-18 -55 -34 -175q-3 -27 -2 -44
q3 -25 16 -41t35 -23t43 -1q24 7 45 37q4 5 10 15l5 9l6 9q16 24 31 43q26 34 54 59q9 8 22 18l11 9l10 8q27 -54 51 -112q4 -10 9 -22l4 -10l4 -10q9 -22 14 -32q24 -54 54 -60q38 -6 81 28q14 10 27 24l8 10l3 3v1h1l2 3l2 3q4 5 7 10q8 13 13 27q17 40 9 78q-7 36 -50 69
z" />
    <glyph glyph-name="underscore" unicode="_" horiz-adv-x="1696" 
d="M1574 -158q25 -6 42 -16q41 -26 41 -72t-40 -73q-30 -20 -88 -24q-31 -2 -130 1q-337 11 -742 -2q-99 -3 -219 -10l-23 -2l-21 -1q-26 -2 -40 -2q-43 -3 -70 -4q-67 -3 -107 2q-46 6 -82 23q-92 43 -94 122q0 35 21 64q23 31 65 48q41 16 134 15q65 -1 249 -14
q130 -9 510 -24l72 -2l72 -3q80 -3 136 -5q146 -6 223 -11q61 -4 91 -10z" />
    <glyph glyph-name="grave" unicode="`" horiz-adv-x="1024" 
d="M708 1073q-6 -21 -33 -31t-55 -3q-17 4 -56 32q-96 70 -142 113q-63 58 -70 77q-10 30 -1 60q9 31 35 44q25 12 59 4q12 -2 25 -7q4 -2 9 -4l4 -2l2 -1q25 -12 48 -37q16 -16 78 -96q72 -91 83 -108q18 -26 14 -41z" />
    <glyph glyph-name="a" unicode="a" horiz-adv-x="894" 
d="M556 325l-2 10q-2 12 -5 21q-8 25 -25 41q-27 25 -69 27q-41 3 -75 -15q-46 -23 -64 -74q-18 -50 4 -91q30 -55 111 -59q77 -5 111 36q15 19 17 49q1 11 0 25l-1 11l-1 9zM667 -56q-46 22 -56 55q-3 11 -48 1q-15 -4 -49 -13l-14 -4l-15 -4l-31 -8q-79 -19 -138 -23
q-79 -6 -135 15q-50 19 -92 70q-41 51 -63 119q-50 157 24 284q46 79 132 128q88 51 175 45q35 -3 69 -16q13 -5 28 -12q10 -5 24 -13q29 -15 39 -19q18 -6 29 2q18 12 20 51q1 36 -13 80q-32 106 -93 118q-23 4 -49 -12q-10 -6 -23 -17l-13 -10l-12 -11q-34 -28 -58 -41
q-38 -20 -78 -21q-38 0 -71 12q-38 14 -49 39q-17 39 32 99q42 52 104 90q101 62 232 65q142 3 238 -68q83 -62 107 -192q17 -86 22 -350v-15l1 -15v-32v-69q-1 -82 -9 -141q-19 -158 -86 -178q-35 -11 -81 11z" />
    <glyph glyph-name="b" unicode="b" horiz-adv-x="1189" 
d="M449 429l4 14q5 16 11 29q16 33 42 52q40 29 97 25q55 -3 98 -33q57 -41 72 -114q15 -72 -22 -125q-49 -70 -158 -63q-105 7 -143 70q-17 28 -15 70q1 16 5 34l3 15l3 13zM233 -78q65 23 84 67q7 15 66 -7q18 -7 63 -26l18 -8l19 -8q22 -9 41 -16q103 -41 180 -57
q106 -21 184 -2q71 17 136 81q64 63 106 154q95 207 18 396q-48 117 -154 200q-109 85 -227 91q-47 2 -95 -10q-19 -4 -40 -12q-14 -5 -35 -13q-41 -17 -55 -20q-25 -5 -39 8q-19 17 -9 172q11 162 47 296q58 218 -62 273q-47 21 -110 10q-59 -10 -105 -44
q-212 -156 -188 -888q2 -62 -8 -182l-5 -50l-4 -49q-5 -57 -7 -97q-10 -224 70 -260q46 -21 111 1z" />
    <glyph glyph-name="c" unicode="c" horiz-adv-x="965" 
d="M845 1014q65 -47 77 -110q10 -54 -16 -111q-27 -58 -75 -78q-38 -15 -85 3q-29 10 -85 46l-42 26q-24 13 -43 20q-47 18 -85 4q-61 -24 -90 -119q-10 -32 -15 -69q-2 -13 -3 -26q-1 -5 -1 -10v-4l-1 -3q-7 -93 23 -179q33 -98 94 -116q28 -8 59 4q13 5 29 14l28 18
q38 24 63 33q39 13 78 7q51 -8 92 -41q43 -34 52 -76q14 -67 -61 -143q-68 -70 -158 -103q-161 -58 -352 25q-192 83 -275 251q-41 81 -33 240q9 175 76 317q81 171 224 238q170 79 409 -1q71 -24 116 -57z" />
    <glyph glyph-name="d" unicode="d" horiz-adv-x="1055" 
d="M507 257q-95 -6 -138 57q-33 47 -19 112q13 66 63 102q37 28 85 31q50 3 85 -23q23 -18 36 -47q5 -12 9 -26l4 -13l3 -12l2 -11l3 -13q3 -17 4 -31q2 -38 -13 -63q-33 -56 -124 -63zM793 1366q-40 30 -91 40q-55 10 -96 -10q-104 -49 -54 -245q31 -121 41 -267
q9 -139 -8 -154q-12 -11 -34 -7q-12 3 -48 18q-18 7 -31 12q-18 6 -34 11q-42 10 -83 8q-103 -5 -198 -82q-92 -74 -134 -180q-67 -169 16 -356q36 -81 92 -138q57 -57 118 -73q69 -17 161 2q67 14 157 51q16 6 35 15l17 7l16 7q39 17 55 23q51 20 57 6q17 -39 74 -59
q56 -20 97 -2q69 33 60 235q-2 35 -6 87l-4 44l-4 44q-9 108 -7 164q21 659 -164 799z" />
    <glyph glyph-name="e" unicode="e" horiz-adv-x="997" 
d="M618 758q23 -28 -6 -63q-41 -49 -321 -104q24 98 112 162q80 58 139 44q56 -13 76 -39zM414 284q-85 38 -76 97q7 46 108 68q19 4 47 9l25 4l26 5q64 11 103 22q120 34 210 127q107 111 88 240q-21 131 -210 158q-160 23 -362 -30q-168 -44 -266 -221q-90 -165 -90 -382
q-5 -51 19 -116q46 -130 185 -197q153 -75 300 -67q113 6 260 67q118 49 147 114q23 53 -7 139q-21 64 -123 29q-19 -7 -46 -18l-25 -10l-25 -11q-64 -28 -102 -38q-98 -28 -186 11z" />
    <glyph glyph-name="f" unicode="f" horiz-adv-x="836" 
d="M226 1138q-3 19 -4 31q-2 19 -2 35q0 41 9 77q18 72 77 133q20 21 43 39l18 12l6 5l6 3l1 2l3 1l6 4q9 5 19 10q30 15 61 25q97 31 192 12l9 -2l11 -2q14 -4 26 -7q34 -9 60 -22q75 -35 87 -92q9 -45 -19 -93q-27 -48 -71 -64q-25 -9 -52 -4q-11 2 -24 7l-23 9
q-60 24 -90 9q-43 -21 -59 -86q-16 -64 13 -103q11 -15 39 -28q26 -13 53 -10q19 3 46 15l20 9q12 5 20 7q21 5 36 -4q31 -20 41 -71q4 -20 4 -43q0 -19 -2 -36q-6 -42 -26 -77q-25 -46 -64 -59q-26 -9 -58 -7q-21 1 -55 9q-65 15 -83 2q-21 -15 -15 -68q2 -18 8 -40
q2 -7 4 -16l2 -6l1 -5q1 -2 1 -4q1 -3 2 -7q3 -10 5 -21q9 -32 17 -67q24 -107 36 -202q38 -298 -54 -385q-30 -28 -94 -38q-69 -11 -128 10q-160 55 -114 275q26 129 31 359q4 236 -23 255q-15 10 -35 9q-8 -1 -18 -3l-18 -4q-48 -12 -72 5q-29 20 -37 67q-6 37 1 76
q9 42 34 77q29 41 66 48q19 3 38 -4q13 -5 32 -16q36 -23 48 -16q16 9 8 75z" />
    <glyph glyph-name="g" unicode="g" horiz-adv-x="1101" 
d="M685 472l-3 -13q-3 -16 -8 -28q-12 -32 -35 -51q-35 -30 -87 -30q-50 0 -91 26q-55 35 -73 102t13 119q41 69 141 68q96 0 134 -57q17 -25 18 -65q0 -15 -2 -32l-2 -14l-3 -12zM854 961q-59 -25 -74 -67q-5 -15 -60 2q-17 6 -59 21l-17 6l-18 6q-20 8 -38 14
q-96 32 -167 42q-98 14 -168 -9q-64 -20 -120 -84q-55 -63 -87 -150q-75 -201 6 -374q50 -107 152 -179q104 -74 212 -72q43 1 86 15q17 5 36 13q12 6 31 15q37 18 49 21q23 7 36 -4q21 -17 20 -68q-1 -48 -22 -104q-20 -59 -52 -98q-35 -44 -72 -49q-29 -4 -60 19
q-12 9 -28 25l-14 14l-14 15q-39 40 -69 59q-44 29 -94 33q-46 4 -88 -9q-49 -15 -64 -47q-24 -49 31 -132q48 -72 121 -127q119 -89 281 -104q174 -15 299 70q107 74 148 242q28 112 56 456l2 19l1 20l3 43q4 49 6 90q5 106 1 184q-11 209 -91 241q-43 16 -101 -8z" />
    <glyph glyph-name="h" unicode="h" horiz-adv-x="1158" 
d="M98 1067q19 256 34 329q20 92 69 113q63 26 150 -20q87 -47 116 -122q10 -25 6 -73q-2 -12 -10 -77q-4 -31 -7 -58q-4 -36 -8 -74q-19 -174 0 -181q10 -3 31 22l9 12l11 14q14 17 26 29q58 56 149 81q81 21 146 7q120 -26 195 -207q27 -66 50 -155q8 -33 17 -73
q3 -15 7 -34l3 -15l3 -15l2 -12l3 -13q3 -16 5 -31q7 -38 12 -74q14 -97 14 -176q1 -228 -109 -291q-60 -35 -141 -22q-82 12 -121 63q-21 28 -22 65q0 26 11 82l5 24l5 27q6 31 9 59q9 74 3 150l-1 17l-2 18q-2 21 -4 39q-6 48 -16 83q-27 96 -86 120q-40 16 -90 1
q-47 -15 -78 -50q-32 -35 -36 -95q-3 -49 12 -166q13 -101 30 -204q3 -17 6 -38l3 -17l3 -17q6 -36 9 -55q14 -90 -15 -126q-44 -58 -138 -67t-152 37q-28 21 -44 57q-6 12 -10 26l-4 12l-1 4l-1 5q-104 450 -58 1062z" />
    <glyph glyph-name="i" unicode="i" horiz-adv-x="497" 
d="M70 769q-2 -41 2 -87q1 -16 3 -33l2 -14l1 -5l1 -6q19 -134 16 -261q-2 -47 -6 -98q-2 -19 -4 -43l-2 -19l-2 -19q-8 -83 -2 -116q8 -46 48 -72q64 -40 158 -27q92 13 137 66q29 33 21 98q-1 12 -4 37l-3 21l-3 23q-8 61 -11 120q-2 59 14 373q9 161 7 194q-4 55 -34 84
q-39 36 -102 46q-66 10 -117 -14q-22 -11 -40 -28q-7 -6 -13 -14q-5 -6 -10 -13q-52 -74 -57 -193zM93 1246q23 -72 86 -109q53 -32 118 -27q60 6 107 41l3 2l4 3q6 5 11 10q16 14 28 30q36 49 38 107q1 64 -38 118q-13 17 -29 32q-6 5 -11 9l-4 3l-2 2q-56 40 -130 34
q-24 -2 -48 -9q-8 -2 -15 -5l-5 -2l-3 -1l-3 -1l-5 -2q-5 -3 -11 -6q-16 -8 -30 -19q-41 -32 -59 -76q-25 -64 -2 -134z" />
    <glyph glyph-name="j" unicode="j" horiz-adv-x="631" 
d="M102 799q-1 -104 35 -218l1 -9l2 -11q2 -14 3 -27q5 -37 8 -74q10 -106 11 -212q1 -139 -16 -206q-16 -62 -53 -82q-21 -12 -59 -7l-15 1q-9 1 -17 0q-19 -1 -38 -8q-54 -22 -88 -80q-35 -59 -23 -111q16 -70 117 -104q85 -29 178 -21q99 8 189 71q31 21 59 48
q10 9 20 20q3 4 7 7q3 4 5 7q82 95 93 265q3 51 4 220q1 85 2 147q2 92 6 40q3 62 8 123q3 43 7 97q9 106 10 133q1 50 -10 78t-43 57q-75 67 -188 70q-115 2 -175 -63q-39 -43 -40 -151zM105 1195q28 -72 103 -109q64 -32 141 -27q72 6 129 41l3 2l5 3q7 5 13 10
q19 14 33 30q44 49 46 107q2 64 -46 118q-15 17 -34 32q-7 5 -13 9l-5 3l-2 2q-68 40 -156 34q-29 -2 -57 -9q-10 -2 -19 -5l-6 -2l-3 -1l-4 -1l-5 -2l-14 -6q-19 -8 -35 -19q-50 -32 -71 -76q-30 -64 -3 -134z" />
    <glyph glyph-name="k" unicode="k" horiz-adv-x="1094" 
d="M69 566q-1 48 -1 94q0 17 1 34v13v11q14 553 16 567q6 79 23 118q16 39 52 64q63 46 150 51q87 4 132 -36q32 -28 34 -85q2 -23 -1 -57q-2 -13 -4 -32l-3 -34q-23 -209 -20 -385q4 -167 26 -171q8 -2 23 28q5 10 16 36l5 10l6 12q6 13 11 24q31 66 61.5 182.5t84.5 183.5
q51 65 99 85q90 38 202 3t138 -109q8 -21 -9 -44q-13 -18 -56 -55l-10 -9l-11 -9q-14 -12 -23 -20q-29 -24 -53 -47q-68 -62 -112 -235l-12 -14l-12 -15q-15 -19 -24 -36q-24 -45 -19 -86q5 -38 61 -100q59 -65 228 -296q88 -121 80 -151q-17 -63 -121 -94q-106 -33 -184 6
q-36 18 -60 62q-5 10 -13 25l-7 14l-7 15q-22 43 -41 78q-62 109 -129 195q-77 99 -106 89q-20 -8 -16 -83q2 -46 20 -171q7 -51 17 -105l4 -20l3 -18q4 -20 6 -31q8 -51 -11 -74q-39 -48 -138 -46q-100 2 -170 55q-42 32 -64 94q-28 76 -45 245q-14 136 -17 274z" />
    <glyph glyph-name="l" unicode="l" horiz-adv-x="593" 
d="M507 275q-7 1 -14 1h-14q-33 -2 -51 10q-31 23 -40 87q-9 68 2 205q10 119 31 237q4 -1 18 86q14 89 26 195q33 287 10 321q-48 69 -148 74q-100 6 -171 -56q-56 -48 -80 -616q-24 -579 44 -685q2 -4 4 -7l6 -8q7 -11 15 -21q23 -29 48 -53q74 -68 160 -83q81 -15 158 8
q91 28 111 96q15 51 -11 112q-26 60 -71 86q-16 9 -33 11z" />
    <glyph glyph-name="m" unicode="m" horiz-adv-x="1838" 
d="M1639 941q-52 80 -126 115q-125 59 -288 9q-158 -47 -251 -164q-57 92 -137 113q-65 17 -147 -2q-92 -20 -152 -75l-8 -7l-8 -8l-17 -15q-20 -18 -32 -22q-33 -13 -20 69q11 79 -46 103q-52 22 -133 -8q-83 -31 -143 -97q-68 -74 -74 -161q-7 -99 -4 -274q1 -63 4 -125
q2 -51 3 -77q2 -29 5 -56q4 -39 11 -78q18 -105 53 -203q19 -53 34 -79q9 -18 21 -27q56 -48 150 -44q95 5 142 61q29 36 20 126q-2 19 -7 56l-2 16l-3 17q-2 22 -4 39q-13 103 -22 204q-10 118 -4 167q6 60 39 94q32 33 81 46q50 13 89 -5q58 -26 81 -123q8 -36 12 -83
q2 -18 3 -40l1 -18v-17q3 -76 -9 -150q-4 -27 -11 -59l-7 -26l-6 -24q-13 -56 -14 -81q0 -38 19 -66q37 -53 118 -69q81 -15 143 17q112 58 121 286q3 79 -7 177q-3 36 -9 74q-2 15 -4 31l-2 13l-2 12q-4 29 -7 47q10 14 23 33l24 36q31 45 50 68q60 73 111 65q30 -5 56 -38
q10 -12 21 -30l9 -15l8 -15q26 -51 30 -119q4 -60 -9 -202q-3 -37 -7 -75q-1 -15 -3 -31l-2 -15l-1 -13q-6 -60 -7 -80q-3 -52 16 -73q51 -58 146 -58q88 0 153 45q124 86 112 336q-9 205 -95 409q-48 115 -79 163z" />
    <glyph glyph-name="n" unicode="n" horiz-adv-x="1130" 
d="M76 225q-7 39 -11 78q-3 27 -5 56q-1 26 -3 77q-3 62 -4 125q-3 175 4 274q6 87 74 161q60 66 143 97q81 30 133 8q57 -24 46 -103q-13 -82 20 -69q12 4 32 22l17 15l8 8l8 7q60 55 152 75q82 19 147 2q118 -31 185 -215q25 -67 44 -157q7 -34 14 -74q2 -16 5 -34l3 -16
l2 -15l2 -12l2 -13q2 -16 4 -31q6 -38 9 -74q10 -98 7 -177q-9 -228 -121 -286q-62 -32 -143 -17q-81 16 -118 69q-19 28 -19 66q1 25 14 81l6 24l7 26q7 32 11 59q12 74 9 150v17l-1 18q-1 22 -3 40q-4 47 -12 83q-23 97 -81 123q-39 18 -89 5q-49 -13 -81 -46
q-33 -34 -39 -94q-6 -49 4 -167q9 -101 22 -204q2 -17 4 -39l3 -17l2 -16q5 -37 7 -56q9 -90 -20 -126q-47 -56 -142 -61q-94 -4 -150 44q-12 9 -21 27q-15 26 -34 79q-35 98 -53 203z" />
    <glyph glyph-name="o" unicode="o" horiz-adv-x="971" 
d="M554 381q-53 -50 -107 -29q-37 14 -61 58q-24 43 -24 93q-1 82 58 140q27 26 57 35q31 10 59 -3q36 -17 58 -67q21 -48 17 -101q-5 -76 -57 -126zM514 979q-112 -15 -220 -81q-106 -64 -181 -160q-77 -100 -98 -207q-20 -100 11 -206q11 -37 27 -72q6 -13 13 -26
q5 -8 10 -17q72 -121 198 -189q141 -76 289 -50q181 31 294 203q37 56 63 121q8 22 15 43q2 8 4 14l1 5l1 4q43 167 -12 335q-59 180 -199 250q-97 49 -216 33z" />
    <glyph glyph-name="p" unicode="p" horiz-adv-x="1066" 
d="M499 748q97 17 148 -40q38 -43 31 -108t-55 -106q-35 -30 -84 -38q-51 -9 -89 13q-25 14 -42 42q-7 11 -12 24l-5 12l-4 11l-4 11l-4 13q-5 15 -7 29q-6 37 6 63q29 59 121 74zM317 -362q44 -26 97 -29q57 -5 98 19q102 59 31 244q-44 115 -69 256q-23 134 -7 152
q11 12 34 9q12 -1 51 -12q19 -5 32 -8q20 -5 37 -7q44 -6 86 0q104 16 194 101q88 82 120 190q52 172 -52 345q-45 76 -108 125q-64 50 -129 59q-72 9 -164 -19q-68 -21 -156 -66q-16 -8 -35 -18l-16 -9l-16 -8q-38 -21 -54 -29q-51 -25 -58 -12q-21 37 -81 50
q-60 14 -100 -9q-68 -38 -38 -234q5 -35 14 -84l9 -43l8 -43q20 -104 24 -159q45 -644 248 -761z" />
    <glyph glyph-name="q" unicode="q" horiz-adv-x="1112" 
d="M667 470l-2 -13q-2 -14 -5 -26q-9 -31 -30 -51q-31 -31 -83 -37q-50 -5 -92 16q-58 27 -82 87q-25 61 1 112q34 68 133 77q94 9 138 -39q19 -22 23 -60q2 -13 1 -30v-13l-1 -11zM786 940q-56 -29 -66 -70q-4 -14 -60 -3q-18 3 -61 13l-17 4l-18 4q-21 5 -39 9
q-98 20 -170 23q-98 3 -165 -25q-61 -25 -110 -90q-48 -64 -72 -148q-54 -193 43 -345q61 -95 168 -152q110 -58 217 -46q42 5 84 22q16 7 33 16q12 7 29 17q35 20 47 25q22 8 36 -1q20 -12 34 -147q14 -143 2 -264q-19 -197 96 -227q46 -12 100 7q51 17 87 53
q167 165 37 796q-11 54 -20 159l-3 43l-4 44q-4 50 -8 84q-24 196 -101 216q-44 11 -99 -17z" />
    <glyph glyph-name="r" unicode="r" horiz-adv-x="973" 
d="M18 570q-43 254 68 332q29 21 67 29q45 9 79 -6q22 -9 38 -28q10 -13 23 -37q24 -46 43 -48q17 -2 32 16q10 11 30 46q11 19 18 29q10 17 21 31q26 34 58 56q68 47 160 49q96 1 169 -50q57 -39 90 -97q44 -75 24 -148q-17 -63 -72 -106q-55 -44 -114 -41q-36 1 -70 24
q-20 14 -53 48l-13 13l-12 13q-13 13 -25 21q-29 19 -58 16q-48 -5 -89 -63q-32 -45 -47 -101q-16 -60 21 -139l21 -42l6 -12l7 -12q8 -15 13 -26q36 -69 63 -130q57 -131 56 -177q-1 -25 -38 -78q-39 -54 -136 -58q-96 -4 -158 47q-22 18 -37 44q-5 9 -10 19q-2 3 -3 7
l-1 3l-1 2q-138 364 -170 554z" />
    <glyph glyph-name="s" unicode="s" horiz-adv-x="1167" 
d="M94 1098q74 63 184 103q249 90 473 15q119 -40 211 -119q91 -79 76 -126q-13 -40 -115 -53q-34 -5 -74 -6h-27h-15q-56 1 -112 12q-21 5 -45 11l-20 6l-19 5q-83 22 -125 -3q-41 -24 -62 -72q-20 -47 -4 -78q13 -25 60 -34q35 -6 139 -8q54 -1 113 -2h47l22 -1h20
q90 -1 122 -3q77 -4 112 -29q69 -49 90 -160q7 -37 9 -79v-29l-1 -10v-5v-3q-8 -157 -130 -289q-40 -44 -90 -82q-17 -13 -35 -24l-12 -8l-5 -3l-4 -3q-146 -86 -318 -90q-186 -4 -303 97q-77 67 -116 163q-40 99 -3 148q28 37 98 40q65 4 125 -22q40 -18 72 -50
q13 -12 26 -28l11 -15l10 -14q52 -72 101 -78q44 -7 89 18q39 20 65 55q41 53 40 125q-1 69 -40 105q-28 27 -95 17l-16 -3l-17 -2q-21 -4 -39 -6q-49 -5 -98 -2h-12l-14 1q-18 2 -35 4q-47 6 -90 17q-122 34 -202 114l-5 5l-5 5l-14 16q-18 21 -34 45q-44 68 -57 145l-1 2
v3q-1 5 -1 10q-2 16 -3 32q-3 48 5 83q16 72 93 137z" />
    <glyph glyph-name="t" unicode="t" horiz-adv-x="859" 
d="M726 257q-7 1 -14 0l-14 -1q-33 -5 -51 7q-33 20 -47 82q-15 67 -14 206q0 119 11 238q19 -2 40 -3q89 -7 118 -6q44 2 63 18q46 39 43 121q-2 81 -46 108q-13 8 -97 4h-93q17 168 12 247q-4 78 -34 115q-53 65 -154 63q-99 -3 -165 -70q-43 -43 -46 -104q-1 -23 12 -223
q-34 10 -57 14q-36 6 -72 5q-59 -1 -81 -16q-44 -31 -50 -103t32 -126l4 -5l4 -6q7 -8 14 -14q20 -19 44 -28q35 -13 78 3l20 7l23 9q28 10 53 16q2 -75 3 -157q1 -31 1 -68v-32v-30q2 -139 5 -196q11 -154 80 -246q3 -3 5 -6l6 -8q9 -11 18 -20q24 -27 52 -48
q79 -63 166 -71q81 -8 157 21q88 34 102 104q11 52 -20 111q-30 58 -77 80q-17 7 -34 8z" />
    <glyph glyph-name="u" unicode="u" horiz-adv-x="1111" 
d="M1044 558q-24 -110 -20 -213q1 -39 6 -82q2 -17 5 -36q2 -12 6 -33q13 -79 11 -109q-3 -50 -38 -87q-79 -83 -238 -75q-65 3 -114 23q-50 19 -61 47q-4 9 -4 22l1 11l1 11q2 26 -7 30t-32 -13l-10 -7l-10 -9q-13 -10 -21 -15q-68 -45 -161 -52q-85 -6 -146 20
q-112 48 -152 240q-14 70 -19 162q-2 34 -3 75q-1 16 -1 34v16v15v26v31q1 39 2 75q5 98 20 176q42 224 162 265q66 23 143 -5q78 -28 107 -85q15 -31 9 -68q-4 -25 -26 -78l-10 -23l-9 -25q-12 -30 -21 -57q-22 -71 -31 -147l-2 -16l-2 -19q-2 -21 -3 -39q-3 -47 0 -84
q8 -100 62 -134q36 -23 88 -18q49 6 86 34q38 29 53 87q12 47 20 165q7 101 9 206q0 17 1 38v18l1 17q0 37 1 56q4 90 39 121q54 48 148 39t143 -65l4 -6q19 -25 27 -57q7 -23 7 -50q7 -222 -21 -353z" />
    <glyph glyph-name="v" unicode="v" horiz-adv-x="1190" 
d="M30 847q9 -15 26 -46l14 -25l14 -27q36 -66 59 -126q24 -62 33 -126q2 -18 4 -28q3 -18 7 -36q10 -45 29 -105q54 -170 81 -225q40 -82 103 -118q72 -40 160 -36q90 5 148 53q30 26 50 63q6 14 12 29q2 5 4 11l1 5l2 4q38 124 122 274q29 51 74 125l18 30l18 29
q21 34 35 57q78 131 101 210q30 103 -9 178q-2 3 -3 5q-2 4 -5 8q-7 11 -14 20q-22 27 -51 44q-66 38 -156 21q-87 -16 -139 -73q-34 -37 -39 -101q-1 -11 -2 -34l-1 -19l-1 -21q-4 -53 -13 -103q-25 -149 -86 -282q-55 -122 -80 -116q-8 2 -10 28q0 9 -1 35l-1 11v13
q-1 15 -1 29q-4 81 -18 160l-3 19l-3 21q-5 25 -8 50q-10 67 -20 156q-13 122 -16 137q-7 37 -26 60q-40 46 -114 63q-26 6 -57 8q-11 1 -24 1l-10 1h-9h-19l-20 -1q-25 -1 -45 -5q-56 -11 -92 -46q-23 -22 -38 -53q-5 -10 -9 -22l-2 -8l-1 -4l-1 -2q-19 -72 32 -170z" />
    <glyph glyph-name="w" unicode="w" horiz-adv-x="1620" 
d="M1542 1050q-49 45 -125 46q-75 2 -119 -39q-22 -20 -55 -146l-14 -50l-14 -51q-18 -63 -27 -101q-76 -316 -85 -315q-6 1 -8 66q-1 21 -2 36q-1 23 -2 44q-4 55 -11 109q0 4 -4 55q-2 27 -4 48q-3 29 -5 54q-15 144 -29 175q-1 2 -3 5l-4 8q-6 11 -13 20q-20 27 -46 44
q-60 38 -141 21q-79 -16 -126 -73q-30 -37 -35 -101q0 -11 -1 -34l-1 -19l-2 -21q-3 -53 -11 -103q-23 -149 -78 -282q-49 -122 -73 -116q-6 2 -8 28q0 9 -1 35l-1 11v13q-1 15 -1 29q-4 81 -16 160l-3 19l-3 21q-4 25 -7 50q-9 67 -18 156q-12 122 -14 137q-6 37 -24 60
q-36 46 -103 63q-24 6 -51 8q-11 1 -22 1l-10 1h-8h-16l-19 -1q-22 -1 -41 -5q-50 -11 -82 -46q-21 -22 -35 -53q-4 -10 -8 -22l-2 -8l-1 -4l-1 -2q-16 -72 30 -170q7 -15 23 -46l12 -25l13 -27q33 -66 54 -126q21 -62 29 -126q3 -18 4 -28l6 -36q9 -45 27 -105
q48 -170 73 -225q36 -82 93 -118q64 -40 145 -36q81 5 133 53q28 26 45 63q6 14 11 29q2 5 4 11l1 5l1 4q35 124 111 275q48 -159 111 -256q85 -133 196 -151l3 -1l5 -1q5 0 11 -1q15 -1 29 -1q42 2 78 19q41 20 65 60q19 33 34 95q5 20 14 61l4 17l4 18q4 20 8 36
q21 92 49 171q26 71 62 147l15 30l14 29q17 34 26 53q53 114 46 222q-6 104 -56 150z" />
    <glyph glyph-name="x" unicode="x" horiz-adv-x="1115" 
d="M70 930q31 -53 118 -144q23 -24 47 -48q17 -17 41 -40q47 -46 61 -61q46 -50 41 -85q-4 -26 -28 -48q-8 -8 -20 -16l-10 -7l-10 -6q-139 -92 -238 -255q-99 -162 -60 -230q27 -48 129 -48q100 0 182 45q32 17 61 43q10 9 18 19q4 3 7 7q2 2 4 5q21 25 109 240
q37 91 48 90q13 0 51.5 -95t61.5 -144q29 -65 80 -96q85 -107 215 -103t150 131t-163.5 270t-176.5 201q1 6 2 11q2 7 5 16q9 24 29 63q43 84 102 162q23 31 50 63q18 21 45 52q53 59 67 78q23 34 15 56q-14 39 -93 52q-74 11 -145 -8q-54 -14 -101 -50q-17 -12 -33 -28
q-5 -5 -11 -12l-5 -5l-4 -4q-34 -40 -58 -91q-18 -37 -32 -86l-5 -19l-4 -17q-5 -20 -8 -29q-8 -25 -18 -24q-9 0 -18 24q-3 8 -8 26l-4 14l-5 16l-1 3l-1 3q-2 5 -3 9q-5 14 -10 27q-16 39 -35 75q-58 108 -136 156q-76 46 -169 46q-95 1 -133 -50q-10 -13 -14 -29
q-2 -7 -3 -14l-1 -6l-1 -5q-5 -47 26 -100z" />
    <glyph glyph-name="y" unicode="y" horiz-adv-x="1020" 
d="M127 -156q6 3 17 8l10 5l11 6q28 14 54 31l13 8l13 8q15 10 28 19q33 22 56 43q63 54 74 108q8 42 -15 90q-9 18 -23 40l-13 18l-13 18q-189 255 -250 366q-99 183 -63 291q15 44 53 80q12 12 27 22q6 4 11 7l4 2l4 2q63 36 143 30t126 -50q34 -33 35 -103l1 -35v-41
q2 -53 11 -105q21 -119 73 -222q47 -95 73 -90q12 3 14 67v17l1 19q0 27 1 45q1 60 5 116q13 188 27 250q20 91 72 123q45 28 108 26q62 -2 110 -30l2 -2l4 -2q4 -2 7 -5q11 -7 20 -16q25 -23 35 -52q12 -37 -1 -81q-5 -16 -13 -32l-6 -12l-3 -5l-2 -4q-9 -16 -20 -79
q-9 -49 -31 -130q-29 -112 -82 -282q-121 -387 -171 -454l-2 -2l-2 -2q-2 -4 -5 -7q-8 -10 -17 -20q-25 -29 -55 -56q-89 -84 -197 -136q-74 -35 -110 -44q-57 -15 -100 4q-55 23 -83 84q-27 60 -7 106q10 23 41 40z" />
    <glyph glyph-name="z" unicode="z" horiz-adv-x="904" 
d="M75 867q-2 -24 0 -48q1 -8 2 -17l1 -6l1 -4l6 -30q4 -17 8 -30q12 -32 35 -46q25 -17 77 -5q11 3 30 8l17 5l19 5q52 14 98 24q110 24 116 14q7 -13 -46 -57q-10 -8 -27 -22l-16 -13l-16 -13q-41 -34 -72 -62q-93 -84 -154 -167q-81 -110 -115 -228q-20 -68 -16 -112
q1 -17 6 -31q4 -10 10 -19q16 -23 44 -30q22 -6 72 -5q10 0 24 1l13 1h14q36 1 63 2q83 1 167 -6q66 -5 169 -5l85 1l84 -1h25q14 1 25 3q27 4 44 21q45 42 35 135q-10 96 -66 138q-35 26 -89 25q-36 0 -98 -15l-24 -6l-22 -5q-25 -6 -41 -7q-42 -4 -56 18q-17 24 9 92
q40 107 156 211l22 19l22 20q24 23 42 43q45 51 70 111l1 2l1 2q1 4 3 8l8 22q11 32 17 62q19 91 -17 131q-18 21 -49 21q-19 0 -72 -11l-22 -5l-24 -4q-28 -5 -54 -7q-67 -5 -135 6q-24 4 -62 13l-29 7l-29 6q-66 12 -130 2q-50 -8 -82 -26q-12 -6 -22 -14q-3 -3 -7 -6
l-5 -5q-39 -42 -44 -111z" />
    <glyph glyph-name="braceleft" unicode="{" horiz-adv-x="965" 
d="M734 100q-14 10 -31 19q-31 16 -42 32q-26 35 -17 91q4 23 13 53l10 28l10 28q27 76 34 115q10 63 -14 109q-14 27 -40 48q-10 8 -23 17l-11 8l-11 6q-53 33 -51 59q2 25 57 50l22 11q13 6 22 13q24 17 35 41q18 40 -16 129l-8 21l-8 24q-11 29 -19 54q-21 69 -33 142
q-16 102 12 124l7 4l11 -4l12 -4q15 -5 24 -7q30 -9 53 -4q28 -5 50 4q44 17 69 73t10 107q-17 55 -83 83q-56 24 -126 19q-41 3 -77 -5q-60 -13 -109 -56q-16 -14 -30 -30q-4 -6 -9 -12l-3 -4l-2 -3q-34 -52 -41 -121q-3 -26 -2 -57l2 -27l2 -26q7 -69 30 -139
q9 -27 21 -57q8 -19 21 -49q26 -56 31 -76q8 -34 -6 -52q-13 -16 -62 -18q-25 -1 -41 -6q-24 -6 -44 -24q-59 -51 -53 -131q2 -38 23 -71q7 -12 17 -24l8 -9l7 -7q20 -21 44 -33q15 -8 38 -14q46 -13 59 -29q19 -24 8 -66q-6 -24 -36 -86q-15 -32 -23 -51q-13 -30 -20 -56
q-20 -66 -15 -125q11 -112 93 -203q82 -92 175 -94q10 0 22 1l17 -1q56 -1 108 31q53 33 57 74q3 28 -22 62q-16 20 -61 64q-24 22 -45 37z" />
    <glyph glyph-name="bar" unicode="|" horiz-adv-x="602" 
d="M443 960q2 29 4 65l3 30l2 29q5 69 8 105q5 104 0 163q-7 70 -32 122l-2 3l-2 4q-4 6 -7 12q-10 16 -20 29q-33 37 -68 41q-54 5 -97 -78q-39 -74 -39 -150q-9 -1127 -20 -1238q-18 -172 -19 -238q-2 -97 22 -156q25 -59 70 -85q15 -8 31 -12q6 -2 12 -2l3 -1h3v0h1h4
q6 1 12 1q19 3 37 11q55 24 82 89q26 61 20 168q-3 34 -10 112l-3 32l-4 33q-4 39 -6 73q-11 134 -1 518q4 152 16 320z" />
    <glyph glyph-name="braceright" unicode="}" horiz-adv-x="1098" 
d="M247 41q-45 -44 -61 -64q-25 -34 -22 -62q4 -41 57 -74q52 -32 109 -31l16 1q12 -1 22 -1q93 2 175 94q83 91 93 203q5 59 -14 125q-8 26 -21 56q-8 19 -23 51q-30 62 -36 86q-11 42 8 66q13 16 59 29q23 6 39 14q23 12 43 33l7 7l8 9q10 12 17 24q21 33 24 71
q5 80 -54 131q-20 18 -44 24q-16 5 -41 6q-48 2 -61 18q-15 18 -7 52q6 20 31 76q13 30 21 49q12 30 21 57q23 70 30 139l2 26l2 27q1 31 -1 57q-7 69 -42 121l-2 3l-3 4q-4 6 -9 12q-14 16 -30 30q-49 43 -109 56q-36 8 -77 5q-70 5 -126 -19q-66 -28 -82 -83
q-15 -51 10 -107q24 -56 68 -73q22 -9 50 -4q23 -5 53 4q9 2 25 7l11 4l11 4l7 -4q28 -22 12 -124q-12 -73 -33 -142q-8 -25 -18 -54l-9 -24l-8 -21q-34 -89 -15 -129q11 -24 34 -41q10 -7 22 -13l22 -11q55 -25 57 -50q2 -26 -50 -59l-12 -6l-11 -8q-13 -9 -23 -17
q-26 -21 -39 -48q-25 -46 -14 -109q6 -39 33 -115l10 -28l10 -28q10 -30 13 -53q9 -56 -17 -91q-11 -16 -42 -32q-17 -9 -31 -19q-21 -15 -45 -37z" />
    <glyph glyph-name="asciitilde" unicode="~" horiz-adv-x="856" 
d="M689 458q-3 -2 -6 -5q-34 -28 -92 -32q-61 -4 -110 10q-54 16 -79 60q-16 27 -32 74q-10 21 -22 31q-24 20 -72 20q-21 -14 -14 -32q1 -1 36 -34q17 -15 6 -25q-6 -6 -24 -7q-121 -8 -150 54q-12 26 29 91q39 61 63 70q83 32 192 -19q33 -15 68 -40q17 -11 64 -59
q38 -39 67 -25q11 4 22 13q0 7 -2 13q0 3 -38 60q-18 27 -6 44q7 10 26 12q51 6 95 -18q49 -26 63 -77q14 -48 -10 -100q-22 -49 -65 -74q-4 -2 -9 -5z" />
    <glyph glyph-name="exclamdown" unicode="&#xa1;" horiz-adv-x="542" 
d="M245 783q-15 27 -16 61q-9 152 149 178q47 7 87 -8q63 -24 78 -68q7 -56 1 -106q-5 -32 -14 -53q-38 -78 -154 -79q-41 -1 -70 15q-39 21 -61 60zM221 597q9 17 23 27q36 24 94 18q57 -7 87 -38q23 -24 23 -64q0 -22 -12 -90q-39 -230 -55 -510q-4 -69 -5 -153v-15v-15
v-28q0 -30 -1 -48q-2 -47 -11 -74q-11 -31 -35 -53q-61 -57 -159 -47q-45 4 -80 23q-37 20 -54 52q-17 30 -8 94q6 45 37 169q22 89 69 348l9 49l9 49q11 55 18 93q19 100 31 152q9 41 20 61z" />
    <glyph glyph-name="cent" unicode="&#xa2;" 
d="M923 1024q5 -3 9 -6q65 -47 77 -110q10 -54 -16 -111q-27 -58 -75 -78q-38 -15 -85 3q-4 1 -8 3q-1 -5 -3 -9q-45 -123 -82 -239q-27 -85 -47 -154l8 5q38 24 63 33q39 13 78 7q51 -8 92 -41q43 -34 52 -76q14 -67 -61 -143q-68 -70 -158 -103q-77 -28 -162 -23v-3
l-5 -27q-13 -67 -19 -96q-21 -89 -50 -117q-31 -30 -69 -7q-12 8 -24 20l-6 8l-3 2v2l-2 2l-2 3l-6 10q-9 15 -15 33q-22 55 -22 121q-1 50 13 106q-176 83 -255 242q-41 81 -33 240q9 175 76 317q81 171 224 238q139 65 324 23q14 50 30 102q18 59 57 88q44 32 74 -13
q20 -30 30 -84q4 -18 6 -38q1 -8 2 -14v-9q3 -53 -7 -107zM648 819q-38 11 -70 -1q-61 -24 -90 -119q-10 -32 -15 -69q-2 -13 -3 -26q-1 -5 -1 -10v-4l-1 -3q-7 -93 23 -179q8 -24 18 -44q46 145 139 455z" />
    <glyph glyph-name="sterling" unicode="&#xa3;" horiz-adv-x="1245" 
d="M318 835q1 19 -7 65l-4 19l-3 21q-4 24 -5 44q-4 53 5 99q22 109 110 198q88 88 202 119q118 32 238 2q128 -32 169 -118q21 -44 17 -98q-3 -59 -39 -94q-21 -21 -50 -31q-33 -12 -61 -3q-27 8 -50 47l-9 14q-5 9 -10 15q-12 15 -29 22q-37 16 -87 0q-49 -15 -76 -51
q-20 -27 -17 -82l1 -14l1 -16q1 -19 1 -37q0 -49 -7 -104q-8 -58 0 -68q13 -18 47 -16q13 1 34 5l18 4l19 4q51 12 78 12q43 2 69 -18q49 -36 50 -124q0 -88 -46 -120q-23 -15 -59 -10q-14 2 -33 8l-34 12q-45 17 -66 20q-34 5 -56 -12q-20 -17 -26 -74q-1 -16 -2 -26
q-2 -16 -6 -30q-8 -36 -26 -72q-11 -22 -26 -43q-6 -8 -12 -17l-6 -8l-5 -6q-21 -27 -17 -34q7 -9 70 19l15 6l17 7q19 8 36 15q45 17 86 27l16 4l18 4q20 5 38 9q46 9 85 11q106 5 177 -41q88 -55 125 -170q15 -48 14 -87q-1 -40 -19 -55q-14 -12 -41 -4q-13 3 -61 25
q-23 10 -40 17q-24 9 -46 16q-57 17 -116 19q-55 1 -111 -14q-15 -5 -58 -19q-20 -6 -34 -11q-21 -6 -41 -12l-7 -2l-9 -3l-24 -6q-33 -9 -65 -17q-94 -23 -171 -35q-235 -35 -280 37q-27 43 8 130q13 31 32 67q8 13 16 27l7 11l3 5l3 4q18 31 43 60q8 10 21 24l19 22
q44 52 62 108l1 4l2 6l4 16q6 24 8 45q7 63 -19 83q-22 17 -84 -7q-32 -13 -49 -16q-27 -4 -47 6q-49 27 -55 115q-7 89 38 121q20 14 50 9q19 -3 57 -17q77 -29 103 -10q17 14 18 43z" />
    <glyph glyph-name="currency" unicode="&#xa4;" horiz-adv-x="1014" 
d="M365 671q-42 81 -1 145q26 39 77 62q56 25 107 11q46 -13 72 -54q20 -33 22 -70q5 -67 -52 -126q-56 -58 -116 -53q-68 6 -109 85zM878 513q-29 6 -42 13q-21 10 -31 29q-10 18 -4 41q3 13 17 44q8 16 11 26q6 14 10 28q9 33 5 67q-3 27 -14 51q-4 9 -10 20l-5 8l-5 8
q-23 38 -15 63q10 31 67 54l21 9q12 5 19 10q20 13 26 32q14 41 -19 91q-34 54 -91 62q-23 3 -45 -20q-14 -15 -36 -51l-9 -15l-8 -13q-10 -15 -17 -24q-19 -23 -37 -20q-9 1 -17 11l-4 5l-5 6q-6 7 -13 13q-43 34 -116 32q-66 -3 -124 -32q-15 -8 -27 -16q-4 -3 -9 -7
l-4 -3l-4 -3q-15 -11 -28 -10q-22 2 -39 25q-11 15 -27 50l-13 27q-7 15 -14 24q-16 24 -37 27q-44 7 -91 -56q-48 -63 -29 -109q10 -23 40 -43q12 -7 26 -14q5 -3 12 -6l5 -2l5 -2q13 -6 24 -9q5 -1 9 -2l7 -1q13 -2 18 -7q18 -16 10 -56q-2 -15 -10 -39l-7 -21l-8 -23
q-19 -59 -23 -96q-6 -54 16 -93q5 -10 13 -19l6 -8l5 -6q12 -14 11 -28q-1 -22 -25 -40q-15 -11 -54 -30l-14 -7l-14 -7q-16 -8 -26 -15q-26 -19 -29 -41q-6 -40 46 -83t94 -31q21 6 36 31q6 10 12 24l6 14l5 13q13 36 22 50q15 24 35 27q16 3 35 -11l8 -7l10 -7
q12 -8 25 -13q37 -15 80 -7q28 6 74 27l18 8l18 8q19 9 34 13q37 10 65 -1q26 -11 42 -41q10 -19 21 -57l3 -15l4 -14q5 -16 9 -25q12 -25 31 -30q24 -5 57 16q31 20 57 56q28 36 39 71q12 39 0 64t-70 38z" />
    <glyph glyph-name="yen" unicode="&#xa5;" horiz-adv-x="1264" 
d="M1032 318q66 -2 87 -1q38 3 59 17q26 18 26 50t-27 50q-12 6 -29 11q-19 4 -60 7q-51 3 -149 8q-37 1 -90 3l-48 2l-23 1q5 36 16 78q116 0 222 -4q65 -2 86 0q39 2 59 17q26 18 26 50q0 31 -27 50q-12 7 -28 11q-20 4 -61 6q-51 4 -148 8q-34 2 -81 4q14 37 32 77
q41 94 97 194q41 75 75 129q120 189 73 250q-43 55 -168 75q-123 21 -191 -13q-20 -11 -31 -26q-20 -31 -23 -78q-1 -17 0 -35q1 -7 1 -14l1 -5v-4q15 -111 -16 -304q-30 -195 -62 -199q-15 -2 -41 45q-27 49 -48 119q-57 178 -31 291l2 4l1 7q2 6 3 13q3 20 3 38
q2 53 -16 90q-9 18 -28 31q-53 35 -146 41q-94 5 -146 -25q-39 -22 -31 -79q3 -18 57 -198q16 -53 65 -173q15 -35 45 -107l25 -57l24 -57q2 -4 4 -9q-103 8 -143 8q-61 1 -88 -10q-29 -11 -44 -33q-14 -20 -14 -44q1 -55 62 -85q25 -11 55 -15q28 -4 71 -2q19 1 47 3
q10 0 27 2h14l15 2q33 2 64 3q11 -31 19 -56q-26 2 -45 3q-122 9 -166 10q-61 0 -89 -11t-44 -33q-13 -20 -13 -44q1 -55 62 -84q25 -13 55 -16q27 -3 71 -1q19 0 47 2q10 0 26 1l15 1l15 1q34 2 67 4q-25 -106 -30 -152q-11 -93 14 -138q25 -38 79 -55q52 -16 114 -10
q63 6 113 33q54 29 74 75q19 39 -2 107l-5 17l-5 18q-7 24 -11 43q-10 35 -16 70q131 1 249 -3z" />
    <glyph glyph-name="brokenbar" unicode="&#xa6;" horiz-adv-x="602" 
d="M443 1174.79q2 12.4697 4 27.9492l3 12.9004l2 12.4697q5 29.6689 8 45.1494q5 44.7188 0 70.0879q-7 30.0996 -32 52.46l-2 1.29004l-2 1.71973q-4 2.58008 -7 5.16016q-10 6.87988 -20 12.4697q-33 15.9092 -68 17.6289q-54 2.15039 -97 -33.5391
q-39 -31.8193 -39 -64.499q-9 -484.602 -20 -532.331q-18 -73.958 -19 -102.338q-2 -41.709 22 -67.0791q25 -25.3691 70 -36.5488q15 -3.44043 31 -5.16016q6 -0.860352 12 -0.860352l3 -0.429688h3v0h1h4q6 0.429688 12 0.429688q19 1.29004 37 4.73047
q55 10.3193 82 38.2695q26 26.2295 20 72.2383q-3 14.6201 -10 48.1592l-3 13.7598l-4 14.1895q-4 16.7705 -6 31.3896q-11 57.6191 -1 222.736q4 65.3594 16 137.598zM443 173.793q2 12.4697 4 27.9492l3 12.9004l2 12.4697q5 29.6689 8 45.1494q5 44.7188 0 70.0879
q-7 30.0996 -32 52.46l-2 1.29004l-2 1.71973q-4 2.58008 -7 5.16016q-10 6.87988 -20 12.4697q-33 15.9092 -68 17.6289q-54 2.15039 -97 -33.5391q-39 -31.8193 -39 -64.499q-9 -484.602 -20 -532.331q-18 -73.958 -19 -102.338q-2 -41.709 22 -67.0791
q25 -25.3691 70 -36.5488q15 -3.44043 31 -5.16016q6 -0.860352 12 -0.860352l3 -0.429688h3v0h1h4q6 0.429688 12 0.429688q19 1.29004 37 4.73047q55 10.3193 82 38.2695q26 26.2295 20 72.2383q-3 14.6201 -10 48.1592l-3 13.7598l-4 14.1895q-4 16.7705 -6 31.3896
q-11 57.6191 -1 222.736q4 65.3594 16 137.598z" />
    <glyph glyph-name="section" unicode="&#xa7;" horiz-adv-x="1097" 
d="M734 322q-12 18 -24 32q-18 20 -40 36q-29 21 -62 33q-13 5 -29 9l-13 3l-13 3q-65 15 -88 41q-32 38 -29 93q3 54 38 75q38 22 108 -8q62 -27 109 -74q70 -70 84 -173q5 -39 0 -68q-5 -28 -15 -31q-6 -2 -26 29zM747 895q-29 4 -63 3q-22 0 -60 -2q-77 -6 -105 -1
q-50 8 -73 46q-27 43 -21 105q6 61 37 89q21 18 68 11q41 -7 192 -49q123 -34 148 -39q33 -6 43 6q16 18 12 64q-3 45 -25 100q-51 131 -148 190q-129 77 -298 -1q-161 -75 -229 -223l-4 -8l-4 -10q-5 -12 -9 -22q-11 -27 -17 -52q-17 -69 -2 -128q6 -24 19 -48q5 -9 12 -20
l11 -17q25 -40 20 -67q-5 -28 -47 -55l-18 -12q-10 -7 -18 -14q-21 -18 -35 -42q-25 -43 -27 -102q0 -22 2 -47q1 -9 3 -20l1 -9l1 -8v-2l1 -2q0 -3 1 -6q2 -10 5 -20q8 -33 21 -63q41 -96 114 -149q41 -31 97 -39l24 -3q14 -2 26 -5q31 -8 63 -24q87 -44 153 -120
q67 -78 51 -122q-8 -25 -47 -41q-38 -16 -89 -17q-124 -3 -193 69q-9 10 -23 27l-10 14l-11 14q-26 31 -58 42q-29 9 -59 6q-35 -4 -55 -25q-37 -40 -23 -134q12 -90 58 -156q51 -74 148 -111q92 -35 204 -29q112 5 213 51q107 48 176 130l1 1l2 3q2 3 5 7q9 10 17 22
q25 36 43 72q57 112 30 189q-8 24 -25 43q-6 8 -15 16l-16 14q-40 34 -46 68q-4 30 10 59q10 20 38 53l11 13l11 14q13 17 22 31q24 37 33 76q21 91 -24 201q-45 106 -124 164q-55 41 -126 51z" />
    <glyph glyph-name="dieresis" unicode="&#xa8;" horiz-adv-x="1024" 
d="M426 1206q9 -16 8 -37q0 -93 -91 -109q-26 -5 -48 5q-36 14 -43 41q-2 35 4 65q3 20 9 33q24 48 90 48q23 1 39 -9q22 -13 32 -37zM712 1206q9 -16 8 -37q0 -93 -91 -109q-26 -5 -48 5q-36 14 -43 41q-2 35 4 65q3 20 9 33q24 48 90 48q23 1 39 -9q22 -13 32 -37z" />
    <glyph glyph-name="copyright" unicode="&#xa9;" horiz-adv-x="1526" 
d="M786 1374q136 0 261.5 -51.5t222.5 -145.5q96 -92 148.5 -216.5t52.5 -257.5q0 -134 -52.5 -256.5t-151.5 -217.5q-98 -96 -223 -145.5t-264 -49.5q-136 0 -259.5 50.5t-222.5 145.5q-98 95 -150 216.5t-52 256.5t52 257.5t149 216.5q95 94 222 145.5t267 51.5zM387 1089
q-78 -77 -120.5 -176.5t-42.5 -209.5t42.5 -208.5t122.5 -176.5q81 -77 181 -118t211 -41q113 0 214.5 40.5t181.5 117.5q80 79 123 178.5t43 207.5t-43 209t-120 177q-79 77 -181.5 118.5t-213.5 41.5q-113 0 -216.5 -41.5t-181.5 -118.5zM1042 1042q45 -34 53 -79
q7 -39 -11 -80q-19 -42 -52 -56q-26 -11 -59 2q-20 7 -58 33l-30 19q-16 9 -29 14q-33 13 -59 3q-42 -17 -62 -86q-7 -23 -11 -49q-1 -10 -2 -19q-1 -3 -1 -7v-3v-2q-5 -67 16 -129q22 -70 65 -83q19 -6 41 3q9 3 20 10l19 13q26 17 44 23q27 10 54 5q35 -5 63 -29
q30 -24 36 -55q10 -48 -42 -102q-47 -51 -109 -74q-112 -42 -244 17q-133 60 -190 181q-29 58 -23 172q6 126 52 228q56 123 155 171q118 57 284 0q49 -18 80 -41z" />
    <glyph glyph-name="ordfeminine" unicode="&#xaa;" horiz-adv-x="855" 
d="M476.945 1032.99l-1.32031 6q-1.32031 7.19922 -3.2998 12.5996q-5.2793 14.999 -16.499 24.5986q-17.8193 14.999 -45.5381 16.1992q-27.0596 1.7998 -49.498 -9q-30.3594 -13.7988 -42.2383 -44.3975q-11.8799 -29.999 2.63965 -54.5977
q19.7988 -32.999 73.2568 -35.3994q50.8184 -2.99902 73.2568 21.5996q9.90039 11.3994 11.2197 29.3984q0.660156 6.59961 0 15l-0.660156 6.59961l-0.65918 5.39941zM550.202 804.401q-30.3584 13.1992 -36.959 32.999q-1.97949 6.59961 -31.6787 0.599609
q-9.89941 -2.40039 -32.3379 -7.7998l-9.24023 -2.39941l-9.89941 -2.40039l-20.459 -4.7998q-52.1377 -11.3994 -91.0762 -13.7998q-52.1377 -3.59961 -89.0967 9q-32.999 11.3994 -60.7178 41.998q-27.0586 30.5996 -41.5781 71.3975q-32.999 94.1963 15.8398 170.394
q30.3584 47.3975 87.1162 76.7969q58.0771 30.5986 115.495 26.998q23.0986 -1.7998 45.5381 -9.59961q8.58008 -3 18.4795 -7.19922q6.59961 -3 15.8389 -7.7998q19.1396 -9 25.7393 -11.3994q11.8799 -3.59961 19.1396 1.2002q11.8789 7.19922 13.1992 30.5986
q0.660156 21.5986 -8.58008 47.998q-21.1191 63.5977 -61.377 70.7969q-15.1797 2.40039 -32.3389 -7.19922q-6.59961 -3.60059 -15.1797 -10.2002l-8.5791 -6l-7.91992 -6.59961q-22.4395 -16.7988 -38.2783 -24.5986q-25.0791 -12 -51.4785 -12.5996
q-25.0781 0 -46.8574 7.19922q-25.0791 8.40039 -32.3389 23.3994q-11.2197 23.3994 21.1191 59.3975q27.7188 31.1992 68.6367 53.998q66.6582 37.1982 153.114 38.998q93.7158 1.80078 157.073 -40.7979q54.7783 -37.1982 70.6172 -115.195
q11.2197 -51.5977 14.5195 -209.991v-9l0.660156 -9v-19.1992v-41.3984q-0.660156 -49.1973 -5.93945 -84.5957q-12.54 -94.7969 -56.7578 -106.796q-23.0996 -6.59961 -53.458 6.59961zM763 451q12.5 -6 21 -16q20.5 -26 20.5 -72t-20 -73q-15 -20 -44 -24q-15.5 -2 -65 1
q-168.5 11 -371 -2q-49.5 -3 -109.5 -10l-11.5 -2l-10.5 -1q-13 -2 -20 -2q-21.5 -3 -35 -4q-33.5 -3 -53.5 2q-23 6 -41 23q-46 43 -47 122q0 35 10.5 64q11.5 31 32.5 48q20.5 16 67 15q32.5 -1 124.5 -14q65 -9 255 -24l36 -2l36 -3q40 -3 68 -5q73 -6 111.5 -11
q30.5 -4 45.5 -10z" />
    <glyph glyph-name="guillemotleft" unicode="&#xab;" horiz-adv-x="944" 
d="M174 479l342 303h14v-37l-205 -266l205 -266v-37h-14zM487 479l342 303h14v-37l-205 -266l205 -266v-37h-14z" />
    <glyph glyph-name="logicalnot" unicode="&#xac;" horiz-adv-x="1111" 
d="M800 558q-169 6 -366 -5q-56 -3 -124 -10l-13 -2l-12 -1q-14 -2 -22 -3q-24 -2 -40 -3q-38 -3 -60 2q-26 6 -46 23q-53 43 -54 122q0 35 12 64q13 31 37 48q23 16 76 15q36 -1 140 -14q74 -9 288 -24l41 -2l41 -3q45 -3 77 -5q52 -4 88 -7q18 4 43 1q38 -4 60 -19
q10 -7 14 -17q19 -26 19 -67q0 -46 -23 -73q-1 -1 -2 -3q-4 -73 -1 -155q1 -32 5 -72l1 -7l1 -7q1 -9 1 -14q2 -14 2 -23q1 -22 -3 -34q-5 -15 -20 -25q-37 -26 -102 -20q-29 3 -53 12q-25 11 -39 26q-12 14 -10 45q2 21 15 79q9 42 27 164z" />
    <glyph glyph-name="registered" unicode="&#xae;" horiz-adv-x="1582" 
d="M786 1374q136 0 261.5 -51.5t222.5 -145.5q96 -92 148.5 -216.5t52.5 -257.5q0 -134 -52.5 -256.5t-151.5 -217.5q-98 -96 -223 -145.5t-264 -49.5q-136 0 -259.5 50.5t-222.5 145.5q-98 95 -150 216.5t-52 256.5t52 257.5t149 216.5q95 94 222 145.5t267 51.5zM387 1089
q-78 -77 -120.5 -176.5t-42.5 -209.5t42.5 -208.5t122.5 -176.5q81 -77 181 -118t211 -41q113 0 214.5 40.5t181.5 117.5q80 79 123 178.5t43 207.5t-43 209t-120 177q-79 77 -181.5 118.5t-213.5 41.5q-113 0 -216.5 -41.5t-181.5 -118.5zM790 812q-21 -18 -47 -25l-4 -1
l-3 -1q-5 -1 -9 -2q-10 0 -16 3q-8 6 -6 24q1 4 1 9l2 10q2 14 3 24q2 20 0 39q0 7 -1 15q-1 5 -3 13q-5 22 1 26q7 5 27 0q18 -6 37 -18q49 -32 44 -72q-3 -24 -26 -44zM1060 521q-4 0 -10 -1l-10 -1q-24 -3 -32 5q-7 8 -5 27q0 2 1 9l1 5l1 6q2 15 3 27l1 6v7q0 8 1 14
q0 19 -2 34q-6 41 -26 64q-10 11 -26 20q-12 5 -28 10l-7 2l-6 2q-6 2 -10 3q-9 3 -8 8q0 5 10 10q4 1 10 3l4 2l5 1q47 18 79 79q31 60 20 114q-11 49 -61 86q-19 13 -46 26q-9 5 -22 10l-10 5l-10 4q-88 38 -183 39q-106 1 -142 -51q-14 -21 -12 -71l1 -6v-7v-14
q1 -17 0 -34q-1 -43 -8 -92q-4 -24 -8 -46l-2 -10l-2 -9q-2 -12 -5 -24l-4 -24l-4 -26q-6 -29 -9 -53q-9 -62 -9 -108q-2 -122 52 -163q39 -29 97 -24q56 5 77 36q8 11 7 32q-1 9 -10 81q-10 86 -5 116q2 11 6 16q1 1 4 3l4 3q11 9 31 6q21 -3 39 -18q48 -42 37 -137
q-7 -56 6 -98q4 -16 12 -32q5 -11 15 -25q25 -37 83 -50q18 -5 40 -5q6 -1 14 -1h4h3l6 1h5q9 0 16 1q20 3 37 8q49 15 66 52q18 38 -1 85q-18 44 -52 57q-10 5 -23 5z" />
    <glyph glyph-name="macron" unicode="&#xaf;" horiz-adv-x="1116" 
d="M810 1321q12 -6 19 -16q18 -26 18 -72q0 -86 -18 -113q-14 -20 -39 -24q-14 -2 -59 1q-151 11 -332 -2q-45 -3 -99 -10l-10 -2l-10 -1q-11 -2 -17 -3q-19 -2 -32 -3q-30 -3 -48 2q-20 6 -36 23q-42 43 -43 122q0 35 10 64q10 31 29 48q18 16 60 15q29 -1 111 -14
q59 -9 239.5 -4.5t215.5 -0.5q27 -4 41 -10z" />
    <glyph glyph-name="degree" unicode="&#xb0;" horiz-adv-x="674" 
d="M420 1088.5q33 33.5 33 81.5t-33 81t-81 33t-81.5 -33t-33.5 -81t34 -81.5t81 -33.5q48 0 81 33.5zM177.5 1008.5q-66.5 66.5 -66.5 161.5q0 94 65.5 160.5t161.5 66.5q94 0 161 -67t67 -160q0 -95 -66.5 -161.5t-160.5 -66.5q-95 0 -161.5 66.5z" />
    <glyph glyph-name="plusminus" unicode="&#xb1;" horiz-adv-x="1385" 
d="M800 839q-4 -25 -9 -51l-9 -49l-9 -49q-11 -55 -18 -93q-19 -100 -31 -152q-9 -41 -20 -61q-9 -17 -23 -27q-36 -24 -94 -18q-57 7 -87 38q-23 24 -23 64q0 22 12 90q24 140 39 298q-59 -5 -128 -12l-16 -2l-15 -1l-27 -3q-30 -4 -49 -5q-46 -3 -74 3q-32 7 -56 28
q-64 55 -66 154q0 44 15 81q15 39 45 60q28 20 93 19q44 -1 172 -18q43 -5 125 -12q2 35 2 73v58q0 30 1 48q2 47 11 74q11 31 35 53q61 57 159 47q45 -4 80 -23q37 -20 54 -52q17 -30 8 -94q-6 -45 -37 -169q-4 -16 -9 -38l24 -1q55 -4 94 -7q101 -7 155 -13q42 -5 63 -13
q17 -7 28 -20q29 -33 29 -91q0 -57 -28 -91q-21 -26 -61 -30q-21 -3 -90 1q-125 7 -265 6zM1039 170q14 -5 23 -15q22 -24 22 -67q0 -42 -22 -67q-16 -19 -48 -22q-16 -2 -70 1q-184 9 -404 -3q-54 -2 -119 -9l-12 -1l-12 -2q-14 -1 -22 -2q-23 -2 -38 -3q-36 -3 -58 2
q-25 5 -44 21q-51 40 -52 113q0 32 12 60t35 44q22 15 73 14q35 -1 135 -13q71 -9 278 -22l39 -2l39 -3q44 -3 74 -5q80 -5 122 -10q32 -3 49 -9z" />
    <glyph glyph-name="uni00B2" unicode="&#xb2;" 
d="M252 890q73 4 117 50q21 23 31 57q4 14 6 30l3 31q4 39 9 54q7 27 27 40q38 26 99 1q62 -25 94 -78q41 -65 23 -165q-16 -89 -68 -163q-41 -60 -103 -94q-25 -13 -57 -25l-29 -10l-29 -9q-77 -25 -116 -47q-62 -36 -104 -100l-1 -2l-1 -2q-2 -2 -4 -5q-4 -8 -9 -17
q-15 -27 -26 -57q-33 -90 -29 -181v-9l1 -10l1 -21q3 -25 7 -45q13 -54 44 -81q33 -28 97 -13q10 3 32 9l18 4l19 5q47 12 90 17q65 7 128 -1q23 -3 52 -9l25 -6l25 -5q124 -28 234 -4q106 24 140 77q35 53 28 128q-6 74 -48 108q-23 20 -68 16q-12 -2 -57 -8q-21 -3 -37 -6
q-23 -3 -45 -5l-6 -1h-6l-16 -2q-19 -1 -37 -3q-50 -4 -89 -4q-115 -2 -122 25q-4 16 44 51q9 6 25 17l14 10l16 10q40 28 70 50q131 99 181 147q82 77 111 154q52 137 -6 310q-61 182 -205 273q-119 75 -265 60q-49 -5 -97 -20q-17 -5 -32 -11q-6 -2 -11 -4l-5 -2l-3 -2
l-4 -1l-4 -2q-6 -3 -11 -6q-15 -7 -29 -15q-41 -22 -74 -50q-99 -81 -120 -190v-4l-2 -7q-1 -9 -2 -19q-3 -27 -2 -52q5 -75 46 -117q46 -47 122 -44z" />
    <glyph glyph-name="uni00B3" unicode="&#xb3;" 
d="M157 1145q43 -84 102 -89q26 -3 50 15q10 7 22 19l21 23q27 30 44 42q28 20 57 19q63 -2 116 -73q52 -70 35 -123q-7 -21 -46 -42q-7 -3 -25 -12q-9 -5 -14 -8q-9 -4 -17 -9q-44 -22 -88 -49q-106 -63 -116 -98q-10 -38 11 -83q20 -42 55 -71q36 -30 84 -39q34 -6 85 -3
l19 1l19 1q20 2 32 1q33 -2 44 -20q15 -26 -4 -76q-18 -46 -57 -95t-81 -77q-47 -30 -79 -21q-19 6 -33 28q-5 8 -11 22l-11 24q-14 32 -26 49q-19 25 -47 35q-36 14 -79 4q-40 -10 -72 -35l-1 -2l-3 -2q-3 -3 -7 -6q-10 -10 -19 -21q-27 -35 -32 -72q-9 -69 55 -145
q54 -64 127 -100q89 -43 210 -33q113 9 225 63q112 55 187 137q80 88 94 185q12 73 -11 148q-25 83 -82 128q-37 30 -91 42q-41 10 -94 10q-18 0 -41 -1l-17 -1h-16q-30 -1 -31 5t24 13l13 3l14 4q20 5 35 10q44 13 77 31q45 24 73 57q70 82 67 218q-4 138 -82 240
q-98 127 -283 135q-63 3 -131 -8q-24 -4 -48 -9q-8 -2 -17 -4l-7 -2l-6 -2l-12 -3l-14 -4l-27 -8q-32 -10 -55 -22q-62 -32 -82 -85q-27 -73 18 -159z" />
    <glyph glyph-name="acute" unicode="&#xb4;" horiz-adv-x="1024" 
d="M361 1114q11 17 83 108q62 80 78 96q23 25 48 37l2 1l4 2q5 2 9 4q13 5 25 7q34 8 59 -4q26 -13 35 -44q9 -30 -1 -60q-7 -19 -70 -77q-46 -43 -142 -113q-39 -28 -56 -32q-28 -7 -55 3t-33 31q-4 15 14 41z" />
    <glyph glyph-name="mu" unicode="&#xb5;" horiz-adv-x="1262" 
d="M195 1002q28 122 85 141q51 18 118 -23q65 -40 94 -104q25 -52 3 -137l-5 -20l-6 -22q-7 -27 -12 -49q-15 -64 -21 -129l-2 -20l-2 -22q-2 -26 -3 -47q-3 -56 1 -97q8 -113 61 -143q47 -27 123 0q76 26 124 86q57 69 56 178q0 73 -31 197l-12 48q-7 29 -11 47
q-12 51 -16 84q-9 85 31 118q31 26 87 25q52 0 111 -23q134 -52 170 -149q15 -42 -11 -119l-6 -20q-4 -12 -8 -21q-8 -27 -15 -52q-18 -67 -29 -145q-16 -113 -16 -157q-1 -63 23 -114q14 -32 37 -60q9 -10 20 -22l10 -10l9 -10q41 -42 37 -73q-5 -46 -60 -83
q-55 -36 -108 -27q-36 6 -68 38q-23 22 -50 65l-11 16l-10 16q-11 17 -19 26q-19 25 -34 21q-10 -3 -17 -22l-3 -10q-3 -7 -5 -12q-5 -15 -13 -28q-25 -44 -67 -77q-43 -35 -84 -40q-36 -4 -73 16q-27 14 -60 45l-13 13l-12 12q-14 14 -23 21q-22 19 -35 13q-13 -5 3 -50
q3 -9 9 -23l4 -12l5 -14q14 -35 22 -59q26 -77 31 -135q7 -79 -23 -136q-1 -3 -3 -6q-3 -4 -5 -9q-8 -12 -17 -23q-26 -31 -61 -48q-59 -29 -135 -14q-73 14 -119 59q-47 48 -42 157q1 38 12 143l3 22l2 23q3 27 5 51q6 60 10 115q6 81 9 145q1 24 1 50l1 23v21
q1 106 13 225q27 271 46 356z" />
    <glyph glyph-name="paragraph" unicode="&#xb6;" horiz-adv-x="1024" 
d="M929 1435v-70h-127v-1365h-82v1365h-166v-1365h-84v738q-174 8 -275.5 102.5t-101.5 245.5q0 157 107.5 253t285.5 96h443z" />
    <glyph glyph-name="periodcentered" unicode="&#xb7;" horiz-adv-x="508" 
d="M289.292 795.793q12.749 -25.5 11.8994 -57.7988q0 -145.346 -142.796 -169.995q-41.6484 -6.7998 -76.498 7.64941q-55.248 22.9492 -66.2979 64.5986q-3.40039 53.5479 5.09961 101.147q5.09961 30.5986 15.2998 50.998q37.3994 73.9482 141.096 74.7979
q36.5488 0.849609 61.1982 -14.4492q34.8496 -19.5498 50.999 -56.9482z" />
    <glyph glyph-name="periodcentered" unicode="&#x2219;" horiz-adv-x="508" 
d="M289.292 795.793q12.749 -25.5 11.8994 -57.7988q0 -145.346 -142.796 -169.995q-41.6484 -6.7998 -76.498 7.64941q-55.248 22.9492 -66.2979 64.5986q-3.40039 53.5479 5.09961 101.147q5.09961 30.5986 15.2998 50.998q37.3994 73.9482 141.096 74.7979
q36.5488 0.849609 61.1982 -14.4492q34.8496 -19.5498 50.999 -56.9482z" />
    <glyph glyph-name="cedilla" unicode="&#xb8;" horiz-adv-x="1024" 
d="M589 -60v-10l-1 -11q-1 -13 0 -18q1 -8 8 -12q4 -2 12 -1l4 1l4 1q5 1 9 1q26 3 53 -15q23 -16 35 -37q21 -36 1 -86q-19 -48 -61 -75q-60 -39 -144 -18q-35 8 -59 25q-25 17 -30 36q-4 18 7 38q12 21 29 27q10 3 25 -2l4 -1l5 -2q6 -2 10 -3q14 -4 28 -7q32 -7 43 -8
q18 -1 25 6q9 8 6 26q-4 18 -17 29q-9 7 -21 9q-5 1 -12 1h-11q-31 0 -42 11q-9 9 -13 50q-3 42 -2 57q2 21 14 30q17 11 44 4q28 -6 40 -25q6 -8 7 -21z" />
    <glyph glyph-name="uni00B9" unicode="&#xb9;" 
d="M211 1278q-106 -45 -126 -123q-13 -49 10 -105q22 -51 64 -86l2 -2l3 -2l8 -6q9 -7 19 -13q29 -15 59 -19q38 -5 77 21q29 19 63 60l14 17l13 16q15 18 24 27q24 26 39 21q19 -7 22 -60q1 -20 0 -51l-1 -27l-2 -27q-7 -142 -5 -263q1 -41 3 -89l1 -20l1 -18q1 -22 2 -33
q6 -128 -31 -225q-15 -41 -35 -80q-6 -12 -15 -29l-7 -13l-6 -11q-24 -46 -11 -75q17 -40 79 -69q60 -28 137 -33q81 -5 148 17q76 26 115 82q26 38 28 94q2 42 -12 165q-63 570 -65 600q-5 108 3 217q2 37 7 84l2 18l2 18q2 21 4 33q6 70 0 104q-8 43 -40 70
q-58 48 -154 46q-97 -2 -141 -53q-14 -15 -25 -42l-9 -23l-8 -23q-20 -55 -52 -64q-10 -3 -20 -2l-9 1l-7 1q-75 13 -168 -26z" />
    <glyph glyph-name="ordmasculine" unicode="&#xba;" horiz-adv-x="810" 
d="M455.625 1072.59q-34.9785 -29.999 -70.6172 -17.3994q-24.4189 8.39941 -40.2578 34.7988q-15.8398 25.7988 -15.8398 55.7979q-0.660156 49.1973 38.2783 83.9961q17.8193 15.5996 37.6191 20.999q20.459 6 38.9385 -1.7998q23.7588 -10.1992 38.2783 -40.1982
q13.8594 -28.7988 11.2188 -60.5977q-3.2998 -45.5977 -37.6182 -75.5967zM429.227 1431.38q-73.917 -8.99902 -145.194 -48.5977q-69.957 -38.3984 -119.455 -95.9961q-50.8184 -59.998 -64.6777 -124.195q-13.1992 -59.9971 7.25977 -123.595
q7.25977 -22.1992 17.8193 -43.1982q3.95996 -7.7998 8.58008 -15.5996q3.2998 -4.7998 6.59961 -10.1992q47.5176 -72.5977 130.675 -113.396q93.0557 -45.5986 190.731 -29.999q119.455 18.5996 194.032 121.795q24.4189 33.5986 41.5791 72.5977
q5.2793 13.1992 9.89941 25.7988q1.31934 4.7998 2.63965 8.39941l0.660156 3l0.660156 2.39941q28.3789 100.196 -7.91992 200.992q-38.9385 107.995 -131.335 149.994q-64.0176 29.3984 -142.554 19.7988zM782 479q12.5 -6 21 -16q20.5 -26 20.5 -72t-20 -73
q-15 -20 -44 -24q-15.5 -2 -65 1q-168.5 11 -371 -2q-49.5 -3 -109.5 -10l-11.5 -2l-10.5 -1q-13 -2 -20 -2q-21.5 -3 -35 -4q-33.5 -3 -53.5 2q-23 6 -41 23q-46 43 -47 122q0 35 10.5 64q11.5 31 32.5 48q20.5 16 67 15q32.5 -1 124.5 -14q65 -9 255 -24l36 -2l36 -3
q40 -3 68 -5q73 -6 111.5 -11q30.5 -4 45.5 -10z" />
    <glyph glyph-name="guillemotright" unicode="&#xbb;" horiz-adv-x="944" 
d="M115 176h-14v37l205 266l-205 266v37h14l342 -303zM428 176h-14v37l205 266l-205 266v37h14l342 -303z" />
    <glyph glyph-name="onequarter" unicode="&#xbc;" horiz-adv-x="1981" 
d="M151 1384q-57 -24 -68 -66q-7 -26 5 -57q12 -27 35 -46l1 -1l1 -1l5 -3l10 -8q16 -8 32 -10q20 -2 41 12q16 10 34 32l8 9l7 9q8 9 13 14q13 14 21 12q10 -4 12 -33v-27l-1 -15l-1 -14q-4 -77 -2 -142q0 -22 1 -48l1 -11v-10q1 -12 1 -18q4 -69 -16 -121q-8 -22 -19 -43
q-4 -7 -8 -16l-4 -7l-3 -6q-13 -25 -6 -40q9 -22 42 -38q33 -15 74 -17q44 -3 80 9q41 14 62 44q14 21 15 51q1 22 -6 89q-34 307 -35 324q-3 58 1 117q1 20 4 45l1 10l1 9q1 12 2 18q4 38 0 56q-4 24 -21 38q-31 26 -83 25q-53 -1 -76 -29q-8 -8 -14 -22l-5 -13l-4 -12
q-11 -30 -28 -35q-5 -1 -11 -1l-5 1h-3q-41 7 -91 -14zM1100 1009q13 21 28 47l14 22l13 22q30 50 46 76q44 77 61 128q20 60 15 120l-1 3v6q-1 6 -3 14q-3 20 -9 38q-17 54 -49 84q-50 45 -122 13q-64 -29 -93 -88q-426 -879 -479 -957q-81 -121 -106 -172
q-38 -75 -37 -139q1 -66 36 -121q11 -18 25 -33l10 -10l3 -3l3 -2v-1l1 -1l4 -2q5 -4 11 -8q19 -12 39 -20q62 -23 113 7q47 28 81 117q10 29 31 96l9 27l9 29q11 34 21 62q40 113 192 407q60 116 134 239zM1221 821q41 83 92 89q43 4 87 -32q43 -35 49 -78q3 -18 -11 -47
q0 -3 -59 -114q-34 -64 -41 -84q-7 -19 -1 -30q18 -34 90 -36t95 32q10 14 5 38q-1 8 -5 19l-3 10l-4 9q-43 115 -43 234q1 130 59 175q26 19 89 26h5l6 1q8 1 16 1q22 2 41 0q54 -4 80 -28q23 -22 18 -83q-5 -40 -44 -245q-16 -83 -17 -116q-3 -50 17 -61q10 -4 33 3l5 1
l6 3q7 1 13 2q17 4 35 4h20q14 0 26 -2q32 -5 48 -21q29 -30 15 -88q-15 -57 -55 -74q-17 -8 -38 -5q-13 2 -37 10q-44 15 -59 3q-12 -9 -9 -47v-9l1 -10v-22q0 -28 -6 -56q-14 -66 -40 -89q-36 -32 -94 -34q-59 -2 -84 27q-15 18 -12 65q2 32 19 132q7 41 7 51q1 20 -9 30
q-14 11 -46 5q-11 -2 -30 -7l-16 -5l-16 -4q-89 -24 -180 -15q-97 10 -130 52q-6 6 -8 15q-3 11 -2 29q4 46 36 144q59 178 86 232z" />
    <glyph glyph-name="onehalf" unicode="&#xbd;" horiz-adv-x="2209" 
d="M207 1390q-57 -24 -67 -65q-7 -26 5 -56q12 -27 34 -46l1 -1l2 -1l4 -3q5 -4 10 -7q16 -8 32 -10q20 -3 41 11q15 10 33 32l8 9l6 8q8 10 13 15q13 14 21 11q10 -4 12 -32v-27l-1 -15l-1 -14q-4 -76 -3 -140q1 -22 2 -47l1 -11v-10q1 -11 1 -17q3 -68 -16 -120
q-8 -22 -19 -42q-3 -7 -8 -16l-4 -7l-3 -6q-13 -24 -6 -40q9 -21 42 -36q32 -15 73 -18q43 -2 79 9q40 14 61 44q14 20 15 50q1 22 -6 88q-34 303 -35 319q-3 58 2 116q1 19 3 44l2 10l1 9q1 12 2 18q3 37 0 55q-5 23 -22 38q-30 25 -82 24q-51 -1 -75 -28q-7 -8 -13 -23
l-5 -12l-4 -12q-11 -29 -28 -34q-5 -2 -10 -1h-5l-4 1q-40 7 -89 -14zM1175 947q13 21 28 47l14 22l13 22q30 50 46 76q44 77 61 128q20 60 15 120l-1 3v6q-1 6 -3 14q-3 20 -9 38q-17 54 -49 84q-50 45 -122 13q-64 -29 -93 -88q-426 -879 -479 -957q-81 -121 -106 -172
q-38 -75 -37 -139q1 -66 36 -121q11 -18 25 -33l10 -10l3 -3l3 -2v-1l1 -1l4 -2q5 -4 11 -8q19 -12 39 -20q62 -23 113 7q47 28 81 117q10 29 31 96l9 27l9 29q11 34 21 62q40 113 192 407q60 116 134 239zM1468 806q54 3 86 36q15 17 22 42q3 11 5 22l2 23q3 29 7 40
q5 19 19 29q28 19 73 1q45 -19 69 -58q30 -47 17 -121q-12 -65 -50 -119q-30 -44 -76 -69q-18 -9 -41 -18l-22 -7l-21 -7q-56 -18 -85 -35q-45 -26 -76 -73l-1 -1l-1 -2q-1 -1 -2 -3q-3 -6 -7 -13q-11 -20 -19 -42q-24 -66 -21 -132v-7v-7l1 -16q2 -18 5 -33q10 -39 33 -59
q24 -20 71 -9q7 2 23 6l13 3l14 4q35 9 66 12q48 5 94 0q17 -3 38 -7l18 -4l19 -4q90 -21 171 -3q78 18 103 56q25 39 20 94q-4 54 -35 79q-17 15 -50 12q-9 -1 -42 -6q-15 -2 -27 -4q-17 -2 -33 -4l-4 -1h-4q-6 0 -12 -1q-14 -1 -27 -2q-37 -3 -66 -3q-84 -2 -89 18
q-3 12 32 37q7 5 19 13l10 7l12 8q29 20 51 36q96 73 133 108q60 56 81 113q38 100 -4 227q-45 133 -151 200q-87 55 -194 44q-36 -4 -71 -15q-12 -3 -23 -8q-5 -1 -8 -3l-4 -1l-2 -2h-3l-3 -2q-5 -2 -8 -4q-11 -5 -22 -11q-30 -16 -54 -37q-72 -59 -88 -139v-3l-1 -5
l-2 -14q-2 -20 -1 -38q4 -55 34 -86q33 -34 89 -32z" />
    <glyph glyph-name="threequarters" unicode="&#xbe;" horiz-adv-x="1868" 
d="M109 1301q26 -50 61 -53q15 -2 29 9q6 4 13 11l13 14q16 18 26 25q16 12 34 11q37 -1 68 -43t21 -73q-4 -12 -27 -25q-4 -2 -15 -7q-5 -3 -8 -5q-6 -2 -10 -5q-26 -13 -52 -29q-63 -37 -69 -58q-6 -23 6 -49q12 -25 33 -42q21 -18 50 -23q20 -4 50 -2h11l12 1q11 1 19 1
q19 -2 26 -12q8 -16 -3 -45q-10 -28 -34 -57q-23 -29 -48 -45q-27 -18 -46 -13q-12 4 -20 17q-3 5 -6 13l-7 14q-8 19 -15 29q-12 15 -28 21q-21 8 -47 2q-24 -6 -43 -20v-2l-2 -1q-2 -2 -4 -3q-6 -6 -11 -13q-16 -21 -19 -42q-6 -41 32 -86q32 -38 75 -60q53 -25 125 -19
q67 5 133 37q67 33 111 81q47 52 56 110q7 43 -7 88q-15 49 -48 75q-22 18 -54 25q-25 6 -56 6h-24l-10 -1h-10q-18 -1 -18 3q-1 4 14 8l8 1l8 3q12 3 21 6q26 7 45 18q27 14 44 34q41 49 39 129q-2 82 -48 142q-58 76 -168 80q-37 2 -78 -4l-28 -6l-10 -2l-4 -1l-4 -2
l-7 -1l-8 -3l-16 -4q-19 -6 -33 -13q-37 -19 -48 -51q-16 -43 10 -94zM1108 956q13 21 28 47l14 22l13 22q30 50 46 76q44 77 61 128q20 60 15 120l-1 3v6q-1 6 -3 14q-3 20 -9 38q-17 54 -49 84q-50 45 -122 13q-64 -29 -93 -88q-426 -879 -479 -957q-81 -121 -106 -172
q-38 -75 -37 -139q1 -66 36 -121q11 -18 25 -33l10 -10l3 -3l3 -2v-1l1 -1l4 -2q5 -4 11 -8q19 -12 39 -20q62 -23 113 7q47 28 81 117q10 29 31 96l9 27l9 29q11 34 21 62q40 113 192 407q60 116 134 239zM1075 790q41 83 92 89q43 4 87 -32q43 -35 49 -78q3 -18 -11 -47
q0 -3 -59 -114q-34 -64 -41 -84q-7 -19 -1 -30q18 -34 90 -36t95 32q10 14 5 38q-1 8 -5 19l-3 10l-4 9q-43 115 -43 234q1 130 59 175q26 19 89 26h5l6 1q8 1 16 1q22 2 41 0q54 -4 80 -28q23 -22 18 -83q-5 -40 -44 -245q-16 -83 -17 -116q-3 -50 17 -61q10 -4 33 3l5 1
l6 3q7 1 13 2q17 4 35 4h20q14 0 26 -2q32 -5 48 -21q29 -30 15 -88q-15 -57 -55 -74q-17 -8 -38 -5q-13 2 -37 10q-44 15 -59 3q-12 -9 -9 -47v-9l1 -10v-22q0 -28 -6 -56q-14 -66 -40 -89q-36 -32 -94 -34q-59 -2 -84 27q-15 18 -12 65q2 32 19 132q7 41 7 51q1 20 -9 30
q-14 11 -46 5q-11 -2 -30 -7l-16 -5l-16 -4q-89 -24 -180 -15q-97 10 -130 52q-6 6 -8 15q-3 11 -2 29q4 46 36 144q59 178 86 232z" />
    <glyph glyph-name="questiondown" unicode="&#xbf;" horiz-adv-x="881" 
d="M740 64q-66 36 -112 15q-23 -11 -45 -62q-12 -29 -23 -46q-17 -27 -43 -48l-3 -3l-5 -4q-5 -5 -10 -8q-14 -10 -27 -17q-37 -20 -70 -15q-59 8 -101 77q-40 69 -20 122q8 21 28 34q13 9 49 22l15 5l16 7q19 7 36 15q44 22 84 54l14 11l15 13q18 15 32 30q37 39 58 85l3 7
l4 8l8 22q11 29 16 55q14 77 -23 121q-33 39 -92 47q-58 8 -102 -19q-28 -17 -42 -47q-8 -19 -17 -61l-3 -16l-4 -17q-4 -20 -10 -35q-14 -40 -41 -69q-46 -51 -144 -63l-37 -4q-21 -3 -36 -7q-39 -11 -66 -37q-39 -38 -57 -105q-17 -66 -9 -144q17 -176 134 -292
q114 -112 284 -120q160 -8 280 77q80 56 128 138q59 98 29 175q-23 62 -91 99zM688 929q-26 49 -72 74q-61 33 -132 14q-72 -19 -108 -81q-31 -52 -25 -114q6 -63 49 -105q50 -49 127 -42q69 6 119 48l2 3l3 2q4 4 8 7q10 10 18 21q24 33 29 71q8 52 -18 102z" />
    <glyph glyph-name="Agrave" unicode="&#xc0;" horiz-adv-x="1257" 
d="M589 632q-74 -10 -99 16q-17 17 -13 91q4 69 24 149q22 85 50 132q32 54 63 37q14 -8 23 -30q3 -9 10 -29l3 -9l3 -9q4 -13 8 -23q36 -104 46 -189t-12 -101q-37 -26 -106 -35zM924 1064l-5 21q-7 24 -12 42q-15 50 -31 87q-45 99 -122 146q-61 39 -139 47
q-82 9 -150 -21q-52 -21 -81 -63q-25 -36 -51 -114q-7 -22 -26 -82q-9 -29 -15 -48q-9 -29 -17 -54q-47 -139 -105 -276q-134 -317 -191 -668l-1 -6l-1 -8q-1 -10 -1 -20q1 -28 11 -53q23 -52 88 -82q55 -25 117 -26q71 -1 137 33q70 36 101 97q17 33 30 286q5 96 22 117
q38 50 122 55q85 5 133 -42q28 -26 34 -94l1 -16l2 -16q2 -20 5 -38q8 -47 27 -96q46 -122 98 -156q68 -44 171 -28q105 17 157 84q39 52 24 126q-12 55 -72 180l-13 28l-14 29q-17 36 -30 64q-37 78 -66 148q-79 192 -132 397zM738 1483q-6 -21 -33 -31t-55 -3
q-17 4 -56 32q-96 70 -142 113q-63 58 -70 77q-10 30 -1 60q9 31 35 44q25 12 59 4q12 -2 25 -7q4 -2 9 -4l4 -2l2 -1q25 -12 48 -37q16 -16 78 -96q72 -91 83 -108q18 -26 14 -41z" />
    <glyph glyph-name="Aacute" unicode="&#xc1;" horiz-adv-x="1257" 
d="M589 632q-74 -10 -99 16q-17 17 -13 91q4 69 24 149q22 85 50 132q32 54 63 37q14 -8 23 -30q3 -9 10 -29l3 -9l3 -9q4 -13 8 -23q36 -104 46 -189t-12 -101q-37 -26 -106 -35zM924 1064l-5 21q-7 24 -12 42q-15 50 -31 87q-45 99 -122 146q-61 39 -139 47
q-82 9 -150 -21q-52 -21 -81 -63q-25 -36 -51 -114q-7 -22 -26 -82q-9 -29 -15 -48q-9 -29 -17 -54q-47 -139 -105 -276q-134 -317 -191 -668l-1 -6l-1 -8q-1 -10 -1 -20q1 -28 11 -53q23 -52 88 -82q55 -25 117 -26q71 -1 137 33q70 36 101 97q17 33 30 286q5 96 22 117
q38 50 122 55q85 5 133 -42q28 -26 34 -94l1 -16l2 -16q2 -20 5 -38q8 -47 27 -96q46 -122 98 -156q68 -44 171 -28q105 17 157 84q39 52 24 126q-12 55 -72 180l-13 28l-14 29q-17 36 -30 64q-37 78 -66 148q-79 192 -132 397zM512 1524q11 17 83 108q62 80 78 96
q23 25 48 37l2 1l4 2q5 2 9 4q13 5 25 7q34 8 59 -4q26 -13 35 -44q9 -30 -1 -60q-7 -19 -70 -77q-46 -43 -142 -113q-39 -28 -56 -32q-28 -7 -55 3t-33 31q-4 15 14 41z" />
    <glyph glyph-name="Acircumflex" unicode="&#xc2;" horiz-adv-x="1257" 
d="M589 632q-74 -10 -99 16q-17 17 -13 91q4 69 24 149q22 85 50 132q32 54 63 37q14 -8 23 -30q3 -9 10 -29l3 -9l3 -9q4 -13 8 -23q36 -104 46 -189t-12 -101q-37 -26 -106 -35zM924 1064l-5 21q-7 24 -12 42q-15 50 -31 87q-45 99 -122 146q-61 39 -139 47
q-82 9 -150 -21q-52 -21 -81 -63q-25 -36 -51 -114q-7 -22 -26 -82q-9 -29 -15 -48q-9 -29 -17 -54q-47 -139 -105 -276q-134 -317 -191 -668l-1 -6l-1 -8q-1 -10 -1 -20q1 -28 11 -53q23 -52 88 -82q55 -25 117 -26q71 -1 137 33q70 36 101 97q17 33 30 286q5 96 22 117
q38 50 122 55q85 5 133 -42q28 -26 34 -94l1 -16l2 -16q2 -20 5 -38q8 -47 27 -96q46 -122 98 -156q68 -44 171 -28q105 17 157 84q39 52 24 126q-12 55 -72 180l-13 28l-14 29q-17 36 -30 64q-37 78 -66 148q-79 192 -132 397zM516 1667q57 48 83 63q16 9 27 8
q35 -5 73 -46q15 -16 33 -40q7 -10 16 -22l16 -23q31 -46 41 -66q15 -34 7 -59q-6 -17 -21 -29q-18 -13 -43 -12q-23 1 -46 14t-33 31q-7 13 -3 36q2 12 2 20q-1 13 -6 27q-2 5 -5 12q-4 7 -8 13q-10 15 -18 16t-11 -16q-1 -5 -3 -18l-1 -5v-5q-1 -7 -2 -12q-5 -30 -13 -49
q-12 -27 -34 -42q-26 -17 -61 -19q-37 -2 -60 16q-24 20 -25 60q-1 15 2 32q3 14 7 26q9 27 86 89z" />
    <glyph glyph-name="Atilde" unicode="&#xc3;" horiz-adv-x="1257" 
d="M589 632q-74 -10 -99 16q-17 17 -13 91q4 69 24 149q22 85 50 132q32 54 63 37q14 -8 23 -30q3 -9 10 -29l3 -9l3 -9q4 -13 8 -23q36 -104 46 -189t-12 -101q-37 -26 -106 -35zM924 1064l-5 21q-7 24 -12 42q-15 50 -31 87q-45 99 -122 146q-61 39 -139 47
q-82 9 -150 -21q-52 -21 -81 -63q-25 -36 -51 -114q-7 -22 -26 -82q-9 -29 -15 -48q-9 -29 -17 -54q-47 -139 -105 -276q-134 -317 -191 -668l-1 -6l-1 -8q-1 -10 -1 -20q1 -28 11 -53q23 -52 88 -82q55 -25 117 -26q71 -1 137 33q70 36 101 97q17 33 30 286q5 96 22 117
q38 50 122 55q85 5 133 -42q28 -26 34 -94l1 -16l2 -16q2 -20 5 -38q8 -47 27 -96q46 -122 98 -156q68 -44 171 -28q105 17 157 84q39 52 24 126q-12 55 -72 180l-13 28l-14 29q-17 36 -30 64q-37 78 -66 148q-79 192 -132 397zM495 1637q42 50 76 42q22 -5 51 -36
q9 -10 19 -21q3 -4 5 -8q1 -2 2 -3l1 -1v0q2 -2 4 -5l3 -5q3 -4 5 -7q5 -6 10 -6q8 -1 17 10q3 4 7 11l4 7l4 7q10 19 17 27q11 13 24 15q15 3 33 -10q15 -11 23 -27q20 -36 3 -87t-57 -69q-37 -16 -83 7q-42 20 -65 57q-3 5 -7 13l-3 6l-3 5q-6 11 -11 10q-6 0 -9 -13
q-2 -4 -4 -13l-1 -8l-2 -8q-4 -22 -10 -35q-9 -19 -23 -29q-21 -16 -52 -12q-30 3 -42 23q-7 13 -4 33q3 12 12 36q21 54 56 94z" />
    <glyph glyph-name="Adieresis" unicode="&#xc4;" horiz-adv-x="1257" 
d="M589 632q-74 -10 -99 16q-17 17 -13 91q4 69 24 149q22 85 50 132q32 54 63 37q14 -8 23 -30q3 -9 10 -29l3 -9l3 -9q4 -13 8 -23q36 -104 46 -189t-12 -101q-37 -26 -106 -35zM924 1064l-5 21q-7 24 -12 42q-15 50 -31 87q-45 99 -122 146q-61 39 -139 47
q-82 9 -150 -21q-52 -21 -81 -63q-25 -36 -51 -114q-7 -22 -26 -82q-9 -29 -15 -48q-9 -29 -17 -54q-47 -139 -105 -276q-134 -317 -191 -668l-1 -6l-1 -8q-1 -10 -1 -20q1 -28 11 -53q23 -52 88 -82q55 -25 117 -26q71 -1 137 33q70 36 101 97q17 33 30 286q5 96 22 117
q38 50 122 55q85 5 133 -42q28 -26 34 -94l1 -16l2 -16q2 -20 5 -38q8 -47 27 -96q46 -122 98 -156q68 -44 171 -28q105 17 157 84q39 52 24 126q-12 55 -72 180l-13 28l-14 29q-17 36 -30 64q-37 78 -66 148q-79 192 -132 397zM558 1616q9 -16 8 -37q0 -93 -91 -109
q-26 -5 -48 5q-36 14 -43 41q-2 35 4 65q3 20 9 33q24 48 90 48q23 1 39 -9q22 -13 32 -37zM844 1616q9 -16 8 -37q0 -93 -91 -109q-26 -5 -48 5q-36 14 -43 41q-2 35 4 65q3 20 9 33q24 48 90 48q23 1 39 -9q22 -13 32 -37z" />
    <glyph glyph-name="Aring" unicode="&#xc5;" horiz-adv-x="1257" 
d="M589 632q-74 -10 -99 16q-17 17 -13 91q4 69 24 149q22 85 50 132q32 54 63 37q14 -8 23 -30q3 -9 10 -29l3 -9l3 -9q4 -13 8 -23q36 -104 46 -189t-12 -101q-37 -26 -106 -35zM924 1064l-5 21q-7 24 -12 42q-15 50 -31 87q-45 99 -122 146q-61 39 -139 47
q-82 9 -150 -21q-52 -21 -81 -63q-25 -36 -51 -114q-7 -22 -26 -82q-9 -29 -15 -48q-9 -29 -17 -54q-47 -139 -105 -276q-134 -317 -191 -668l-1 -6l-1 -8q-1 -10 -1 -20q1 -28 11 -53q23 -52 88 -82q55 -25 117 -26q71 -1 137 33q70 36 101 97q17 33 30 286q5 96 22 117
q38 50 122 55q85 5 133 -42q28 -26 34 -94l1 -16l2 -16q2 -20 5 -38q8 -47 27 -96q46 -122 98 -156q68 -44 171 -28q105 17 157 84q39 52 24 126q-12 55 -72 180l-13 28l-14 29q-17 36 -30 64q-37 78 -66 148q-79 192 -132 397zM517 1667q0 -42 29 -71t71 -29t71 29t29 71
q0 40 -29.5 69.5t-70.5 29.5t-70.5 -29.5t-29.5 -69.5zM441 1667q0 75 51 126t125 51q76 0 127.5 -51.5t51.5 -125.5q0 -75 -51.5 -126.5t-127.5 -51.5q-74 0 -125 51.5t-51 126.5z" />
    <glyph glyph-name="AE" unicode="&#xc6;" horiz-adv-x="1999" 
d="M643 646q-74 -10 -99 16q-17 17 -13 91q4 69 24 149q22 85 50 132q32 54 63 37q14 -8 23 -30q3 -9 10 -29l3 -9l3 -9q4 -13 8 -23q36 -104 46 -189t-12 -101q-37 -26 -106 -35zM978 1078l-5 21q-7 24 -12 42q-15 50 -31 87q-45 99 -122 146q-61 39 -139 47
q-82 9 -150 -21q-52 -21 -81 -63q-25 -36 -51 -114q-7 -22 -26 -82q-9 -29 -15 -48q-9 -29 -17 -54q-47 -139 -105 -276q-134 -317 -191 -668l-1 -6l-1 -8q-1 -10 -1 -20q1 -28 11 -53q23 -52 88 -82q55 -25 117 -26q71 -1 137 33q70 36 101 97q17 33 30 286q5 96 22 117
q38 50 122 55q85 5 133 -42q28 -26 34 -94l1 -16l2 -16q2 -20 5 -38q8 -47 27 -96q46 -122 98 -156q68 -44 171 -28q105 17 157 84q39 52 24 126q-12 55 -72 180l-13 28l-14 29q-17 36 -30 64q-37 78 -66 148q-79 192 -132 397zM1409 1034l-4 -2q3 2 4 2zM1028 1139
q-62 -158 -88 -488q-10 -127 -13 -263q-3 -114 -1 -203q3 -120 55 -168q34 -33 95 -36q23 -1 62 1l18 2l18 1q22 1 39 2q99 4 189 -7q33 -4 69 -11q13 -2 30 -6l14 -3l13 -2q60 -12 88 -11q41 3 76 29q64 46 91 130q27 82 -4 124q-12 16 -55 22q-46 6 -210 11q-113 4 -139 7
q-39 6 -57 27q-31 36 -28 97q4 61 39 97l2 2l2 1q3 3 6 5q9 6 24 11q41 13 119 18q46 3 89 2q14 -1 32 -2l13 -1l13 -1q46 -3 67 14q45 35 46 118q2 82 -43 121q-20 17 -63 20q-29 1 -114 -6q-38 -2 -75 -8l-14 -2l-13 -2q-15 -2 -21 -3q-37 -5 -55 8q-36 27 -39 91
q-4 65 28 114q2 3 3 6q3 4 6 7q7 9 16 17q24 23 58 38q50 21 105 17q37 -2 93 -19l21 -6l21 -6q23 -6 39 -8q41 -5 70 14q47 32 60 108q12 76 -20 127q-21 34 -81 45q-1 0 -224 28q-171 20 -269 -19q-37 -14 -72 -40q-11 -8 -28 -22l-27 -22q-29 -23 -48 -57q-8 -13 -16 -30
q-5 -11 -12 -30z" />
    <glyph glyph-name="Ccedilla" unicode="&#xc7;" horiz-adv-x="1076" 
d="M731 951q45 -20 74 -27q46 -10 94 -1l5 1l6 1q8 1 15 3q20 5 37 12q50 21 77 58q42 56 35 143q-6 80 -48 139q-45 62 -136 95q-88 31 -200 29q-247 -6 -422 -151q-122 -102 -180 -270q-21 -60 -33 -130q-5 -26 -9 -55q-1 -11 -3 -24l-1 -12l-1 -10l-2 -12l-1 -14
q-2 -15 -3 -28q-3 -35 -4 -66q-3 -83 7 -155q28 -199 156 -327q130 -129 329 -156q66 -9 135 -6q24 1 48 4q8 1 17 2l6 1h6l17 3l19 3q21 3 39 7q46 10 82 24q95 37 134 113q40 77 24 172q-16 94 -72 121q-23 11 -52 3q-17 -5 -60 -26l-36 -18q-22 -10 -43 -17
q-53 -18 -111 -22l-10 -1l-11 -1q-14 0 -25 -1q-31 0 -57 4q-70 9 -119 47q-69 53 -90 155q-17 88 5 175q22 85 77 153q62 77 140 92q54 11 145 -30zM570 -60v-10l-1 -11q-1 -13 0 -18q1 -8 8 -12q4 -2 12 -1l4 1l4 1q5 1 9 1q26 3 53 -15q23 -16 35 -37q21 -36 1 -86
q-19 -48 -61 -75q-60 -39 -144 -18q-35 8 -59 25q-25 17 -30 36q-4 18 7 38q12 21 29 27q10 3 25 -2l4 -1l5 -2q6 -2 10 -3q14 -4 28 -7q32 -7 43 -8q18 -1 25 6q9 8 6 26q-4 18 -17 29q-9 7 -21 9q-5 1 -12 1h-11q-31 0 -42 11q-9 9 -13 50q-3 42 -2 57q2 21 14 30
q17 11 44 4q28 -6 40 -25q6 -8 7 -21z" />
    <glyph glyph-name="Egrave" unicode="&#xc8;" horiz-adv-x="967" 
d="M463 1082l-4 -2q3 2 4 2zM162 1212q8 17 16 30q19 34 48 57l27 22q17 14 28 22q35 26 72 40q98 39 269 19q223 -28 224 -28q60 -11 81 -45q32 -51 20 -127q-13 -76 -60 -108q-29 -19 -70 -14q-16 2 -39 8l-21 6l-21 6q-56 17 -93 19q-55 4 -105 -17q-34 -15 -58 -38
q-9 -8 -16 -17q-3 -3 -6 -7q-1 -3 -3 -6q-32 -49 -28 -114q3 -64 39 -91q18 -13 55 -8q6 1 21 3l13 2l14 2q37 6 75 8q85 7 114 6q43 -3 63 -20q45 -39 43 -121q-1 -83 -46 -118q-21 -17 -67 -14l-13 1l-13 1q-18 1 -32 2q-43 1 -89 -2q-78 -5 -119 -18q-15 -5 -24 -11
q-3 -2 -6 -5l-2 -1l-2 -2q-35 -36 -39 -97q-3 -61 28 -97q18 -21 57 -27q26 -3 139 -7q164 -5 210 -11q43 -6 55 -22q31 -42 4 -124q-27 -84 -91 -130q-35 -26 -76 -29q-28 -1 -88 11l-13 2l-14 3q-17 4 -30 6q-36 7 -69 11q-90 11 -189 7q-17 -1 -39 -2l-18 -1l-18 -2
q-39 -2 -62 -1q-61 3 -95 36q-52 48 -55 168q-2 89 1 203q3 136 13 263q26 330 88 488q7 19 12 30zM619 1483q-6 -21 -33 -31t-55 -3q-17 4 -56 32q-96 70 -142 113q-63 58 -70 77q-10 30 -1 60q9 31 35 44q25 12 59 4q12 -2 25 -7q4 -2 9 -4l4 -2l2 -1q25 -12 48 -37
q16 -16 78 -96q72 -91 83 -108q18 -26 14 -41z" />
    <glyph glyph-name="Eacute" unicode="&#xc9;" horiz-adv-x="967" 
d="M463 1082l-4 -2q3 2 4 2zM162 1212q8 17 16 30q19 34 48 57l27 22q17 14 28 22q35 26 72 40q98 39 269 19q223 -28 224 -28q60 -11 81 -45q32 -51 20 -127q-13 -76 -60 -108q-29 -19 -70 -14q-16 2 -39 8l-21 6l-21 6q-56 17 -93 19q-55 4 -105 -17q-34 -15 -58 -38
q-9 -8 -16 -17q-3 -3 -6 -7q-1 -3 -3 -6q-32 -49 -28 -114q3 -64 39 -91q18 -13 55 -8q6 1 21 3l13 2l14 2q37 6 75 8q85 7 114 6q43 -3 63 -20q45 -39 43 -121q-1 -83 -46 -118q-21 -17 -67 -14l-13 1l-13 1q-18 1 -32 2q-43 1 -89 -2q-78 -5 -119 -18q-15 -5 -24 -11
q-3 -2 -6 -5l-2 -1l-2 -2q-35 -36 -39 -97q-3 -61 28 -97q18 -21 57 -27q26 -3 139 -7q164 -5 210 -11q43 -6 55 -22q31 -42 4 -124q-27 -84 -91 -130q-35 -26 -76 -29q-28 -1 -88 11l-13 2l-14 3q-17 4 -30 6q-36 7 -69 11q-90 11 -189 7q-17 -1 -39 -2l-18 -1l-18 -2
q-39 -2 -62 -1q-61 3 -95 36q-52 48 -55 168q-2 89 1 203q3 136 13 263q26 330 88 488q7 19 12 30zM393 1524q11 17 83 108q62 80 78 96q23 25 48 37l2 1l4 2q5 2 9 4q13 5 25 7q34 8 59 -4q26 -13 35 -44q9 -30 -1 -60q-7 -19 -70 -77q-46 -43 -142 -113q-39 -28 -56 -32
q-28 -7 -55 3t-33 31q-4 15 14 41z" />
    <glyph glyph-name="Ecircumflex" unicode="&#xca;" horiz-adv-x="967" 
d="M463 1082l-4 -2q3 2 4 2zM162 1212q8 17 16 30q19 34 48 57l27 22q17 14 28 22q35 26 72 40q98 39 269 19q223 -28 224 -28q60 -11 81 -45q32 -51 20 -127q-13 -76 -60 -108q-29 -19 -70 -14q-16 2 -39 8l-21 6l-21 6q-56 17 -93 19q-55 4 -105 -17q-34 -15 -58 -38
q-9 -8 -16 -17q-3 -3 -6 -7q-1 -3 -3 -6q-32 -49 -28 -114q3 -64 39 -91q18 -13 55 -8q6 1 21 3l13 2l14 2q37 6 75 8q85 7 114 6q43 -3 63 -20q45 -39 43 -121q-1 -83 -46 -118q-21 -17 -67 -14l-13 1l-13 1q-18 1 -32 2q-43 1 -89 -2q-78 -5 -119 -18q-15 -5 -24 -11
q-3 -2 -6 -5l-2 -1l-2 -2q-35 -36 -39 -97q-3 -61 28 -97q18 -21 57 -27q26 -3 139 -7q164 -5 210 -11q43 -6 55 -22q31 -42 4 -124q-27 -84 -91 -130q-35 -26 -76 -29q-28 -1 -88 11l-13 2l-14 3q-17 4 -30 6q-36 7 -69 11q-90 11 -189 7q-17 -1 -39 -2l-18 -1l-18 -2
q-39 -2 -62 -1q-61 3 -95 36q-52 48 -55 168q-2 89 1 203q3 136 13 263q26 330 88 488q7 19 12 30zM397 1667q57 48 83 63q16 9 27 8q35 -5 73 -46q15 -16 33 -40q7 -10 16 -22l16 -23q31 -46 41 -66q15 -34 7 -59q-6 -17 -21 -29q-18 -13 -43 -12q-23 1 -46 14t-33 31
q-7 13 -3 36q2 12 2 20q-1 13 -6 27q-2 5 -5 12q-4 7 -8 13q-10 15 -18 16t-11 -16q-1 -5 -3 -18l-1 -5v-5q-1 -7 -2 -12q-5 -30 -13 -49q-12 -27 -34 -42q-26 -17 -61 -19q-37 -2 -60 16q-24 20 -25 60q-1 15 2 32q3 14 7 26q9 27 86 89z" />
    <glyph glyph-name="Edieresis" unicode="&#xcb;" horiz-adv-x="967" 
d="M463 1082l-4 -2q3 2 4 2zM162 1212q8 17 16 30q19 34 48 57l27 22q17 14 28 22q35 26 72 40q98 39 269 19q223 -28 224 -28q60 -11 81 -45q32 -51 20 -127q-13 -76 -60 -108q-29 -19 -70 -14q-16 2 -39 8l-21 6l-21 6q-56 17 -93 19q-55 4 -105 -17q-34 -15 -58 -38
q-9 -8 -16 -17q-3 -3 -6 -7q-1 -3 -3 -6q-32 -49 -28 -114q3 -64 39 -91q18 -13 55 -8q6 1 21 3l13 2l14 2q37 6 75 8q85 7 114 6q43 -3 63 -20q45 -39 43 -121q-1 -83 -46 -118q-21 -17 -67 -14l-13 1l-13 1q-18 1 -32 2q-43 1 -89 -2q-78 -5 -119 -18q-15 -5 -24 -11
q-3 -2 -6 -5l-2 -1l-2 -2q-35 -36 -39 -97q-3 -61 28 -97q18 -21 57 -27q26 -3 139 -7q164 -5 210 -11q43 -6 55 -22q31 -42 4 -124q-27 -84 -91 -130q-35 -26 -76 -29q-28 -1 -88 11l-13 2l-14 3q-17 4 -30 6q-36 7 -69 11q-90 11 -189 7q-17 -1 -39 -2l-18 -1l-18 -2
q-39 -2 -62 -1q-61 3 -95 36q-52 48 -55 168q-2 89 1 203q3 136 13 263q26 330 88 488q7 19 12 30zM439 1616q9 -16 8 -37q0 -93 -91 -109q-26 -5 -48 5q-36 14 -43 41q-2 35 4 65q3 20 9 33q24 48 90 48q23 1 39 -9q22 -13 32 -37zM725 1616q9 -16 8 -37q0 -93 -91 -109
q-26 -5 -48 5q-36 14 -43 41q-2 35 4 65q3 20 9 33q24 48 90 48q23 1 39 -9q22 -13 32 -37z" />
    <glyph glyph-name="Igrave" unicode="&#xcc;" horiz-adv-x="577" 
d="M489 970q5 21 10 47l5 22l4 22q10 49 15 76q13 75 7 120q-8 52 -46 94l-2 3l-4 3q-4 5 -10 9q-14 14 -31 25q-49 32 -102 40q-84 11 -153 -43q-62 -49 -65 -105q-52 -829 -73 -909q-34 -124 -38 -173q-6 -71 29 -117q35 -48 105 -73q23 -9 48 -14q9 -2 17 -3l6 -1h4h1
l1 -1h6q9 -1 18 -1q29 -1 57 3q86 9 131 53q42 41 35 121q-2 26 -12 84l-4 24l-3 25q-5 29 -8 55q-11 100 17 381q12 111 35 233zM388 1483q-6 -21 -33 -31t-55 -3q-17 4 -56 32q-96 70 -142 113q-63 58 -70 77q-10 30 -1 60q9 31 35 44q25 12 59 4q12 -2 25 -7q4 -2 9 -4
l4 -2l2 -1q25 -12 48 -37q16 -16 78 -96q72 -91 83 -108q18 -26 14 -41z" />
    <glyph glyph-name="Iacute" unicode="&#xcd;" horiz-adv-x="577" 
d="M489 970q5 21 10 47l5 22l4 22q10 49 15 76q13 75 7 120q-8 52 -46 94l-2 3l-4 3q-4 5 -10 9q-14 14 -31 25q-49 32 -102 40q-84 11 -153 -43q-62 -49 -65 -105q-52 -829 -73 -909q-34 -124 -38 -173q-6 -71 29 -117q35 -48 105 -73q23 -9 48 -14q9 -2 17 -3l6 -1h4h1
l1 -1h6q9 -1 18 -1q29 -1 57 3q86 9 131 53q42 41 35 121q-2 26 -12 84l-4 24l-3 25q-5 29 -8 55q-11 100 17 381q12 111 35 233zM163 1524q11 17 83 108q62 80 78 96q23 25 48 37l2 1l4 2q5 2 9 4q13 5 25 7q34 8 59 -4q26 -13 35 -44q9 -30 -1 -60q-7 -19 -70 -77
q-46 -43 -142 -113q-39 -28 -56 -32q-28 -7 -55 3t-33 31q-4 15 14 41z" />
    <glyph glyph-name="Icircumflex" unicode="&#xce;" horiz-adv-x="577" 
d="M489 970q5 21 10 47l5 22l4 22q10 49 15 76q13 75 7 120q-8 52 -46 94l-2 3l-4 3q-4 5 -10 9q-14 14 -31 25q-49 32 -102 40q-84 11 -153 -43q-62 -49 -65 -105q-52 -829 -73 -909q-34 -124 -38 -173q-6 -71 29 -117q35 -48 105 -73q23 -9 48 -14q9 -2 17 -3l6 -1h4h1
l1 -1h6q9 -1 18 -1q29 -1 57 3q86 9 131 53q42 41 35 121q-2 26 -12 84l-4 24l-3 25q-5 29 -8 55q-11 100 17 381q12 111 35 233zM167 1667q57 48 83 63q16 9 27 8q35 -5 73 -46q15 -16 33 -40q7 -10 16 -22l16 -23q31 -46 41 -66q15 -34 7 -59q-6 -17 -21 -29
q-18 -13 -43 -12q-23 1 -46 14t-33 31q-7 13 -3 36q2 12 2 20q-1 13 -6 27q-2 5 -5 12q-4 7 -8 13q-10 15 -18 16t-11 -16q-1 -5 -3 -18l-1 -5v-5q-1 -7 -2 -12q-5 -30 -13 -49q-12 -27 -34 -42q-26 -17 -61 -19q-37 -2 -60 16q-24 20 -25 60q-1 15 2 32q3 14 7 26
q9 27 86 89z" />
    <glyph glyph-name="Idieresis" unicode="&#xcf;" horiz-adv-x="577" 
d="M489 970q5 21 10 47l5 22l4 22q10 49 15 76q13 75 7 120q-8 52 -46 94l-2 3l-4 3q-4 5 -10 9q-14 14 -31 25q-49 32 -102 40q-84 11 -153 -43q-62 -49 -65 -105q-52 -829 -73 -909q-34 -124 -38 -173q-6 -71 29 -117q35 -48 105 -73q23 -9 48 -14q9 -2 17 -3l6 -1h4h1
l1 -1h6q9 -1 18 -1q29 -1 57 3q86 9 131 53q42 41 35 121q-2 26 -12 84l-4 24l-3 25q-5 29 -8 55q-11 100 17 381q12 111 35 233zM209 1616q9 -16 8 -37q0 -93 -91 -109q-26 -5 -48 5q-36 14 -43 41q-2 35 4 65q3 20 9 33q24 48 90 48q23 1 39 -9q22 -13 32 -37zM495 1616
q9 -16 8 -37q0 -93 -91 -109q-26 -5 -48 5q-36 14 -43 41q-2 35 4 65q3 20 9 33q24 48 90 48q23 1 39 -9q22 -13 32 -37z" />
    <glyph glyph-name="Eth" unicode="&#xd0;" horiz-adv-x="1106" 
d="M140 785q-39 1 -55 -11q-18 -13 -27 -37q-9 -23 -9 -50q1 -61 39 -94q15 -13 34 -18q16 -4 44 -2q11 1 29 4h1q-11 -307 -63 -460v-9l1 -9q0 -13 2 -23q6 -30 20 -49q28 -37 93 -34q37 2 164 28q274 55 366 106q164 93 237 323v1l1 2l1 4q2 7 3 15q7 23 12 48
q18 78 24 158q19 250 -76 432q-90 175 -304 233q-71 19 -182 32l-45 5l-44 5q-49 5 -81 11q-33 5 -50 7q-29 3 -50 2q-52 -4 -75 -37q-10 -16 -15 -39q-1 -9 -2 -17v-13q0 -65 67 -264q0 -47 -1 -140v-115q-41 5 -59 5zM572 748q-2 33 -7 68q-2 17 -7 40l-3 18l-2 16
q-11 67 10 88q17 20 50 16q11 -1 23 -4q5 -1 9 -3l2 -1l2 -1q36 -14 62 -56q9 -16 17 -35q4 -8 8 -17l2 -8l2 -6q30 -82 19 -178q-4 -34 -13 -71q-4 -14 -9 -30l-3 -13l-4 -12q-20 -66 -51 -92q-23 -20 -51 -27q-33 -9 -52 7q-12 11 -15 33q-2 17 3 54l1 17l2 18q2 12 3 23
q28 0 56 -2q41 -3 54 -1q24 3 36 18q17 21 17 57t-17 56q-7 7 -18 12q-12 5 -37 8q-31 4 -89 8z" />
    <glyph glyph-name="Ntilde" unicode="&#xd1;" horiz-adv-x="1189" 
d="M104 176q5 -23 10 -38q6 -22 15 -39q21 -43 59 -59q59 -26 145 8t131 99q29 43 27 110q-1 21 -6 87q-3 35 -4 59q-3 37 -5 72l-1 21l-1 23l-1 48q-2 57 -2 97q1 107 18 110q27 4 86 -136q67 -155 95 -328q2 -15 6 -37l2 -17l2 -17q6 -38 12 -59q15 -57 56 -84
q51 -33 131 -30q79 4 137 42q34 23 49 57q14 32 19 94q2 25 4 68q0 14 1 41l1 22l1 24q5 129 14 241l1 3v3q0 5 1 10q1 14 2 30q3 47 5 100q7 161 4 323q-2 106 -12 148q-13 56 -52 78q-50 28 -128 10t-122 -67q-34 -37 -34 -112q0 -25 3 -104q2 -43 3 -73q1 -45 2 -89
q2 -116 -3 -164q-2 -19 -5 -27q-2 -6 -5 -7q-5 0 -12 48l-1 12l-2 12q-2 16 -4 29q-5 35 -13 67q-19 85 -53 155q-45 89 -114 152q-80 72 -179 110q-111 41 -180 8q-43 -20 -62 -77q-15 -43 -34 -171q-83 -549 -7 -886zM470 1637q42 50 76 42q22 -5 51 -36q9 -10 19 -21
q3 -4 5 -8q1 -2 2 -3l1 -1v0q2 -2 4 -5l3 -5q3 -4 5 -7q5 -6 10 -6q8 -1 17 10q3 4 7 11l4 7l4 7q10 19 17 27q11 13 24 15q15 3 33 -10q15 -11 23 -27q20 -36 3 -87t-57 -69q-37 -16 -83 7q-42 20 -65 57q-3 5 -7 13l-3 6l-3 5q-6 11 -11 10q-6 0 -9 -13q-2 -4 -4 -13
l-1 -8l-2 -8q-4 -22 -10 -35q-9 -19 -23 -29q-21 -16 -52 -12q-30 3 -42 23q-7 13 -4 33q3 12 12 36q21 54 56 94z" />
    <glyph glyph-name="Ograve" unicode="&#xd2;" horiz-adv-x="1333" 
d="M775 543q-90 -89 -183 -52q-64 25 -106 104q-41 78 -41 166q-1 148 100 252q46 48 97 64q55 16 102 -7q62 -30 100 -119q37 -87 30 -182q-9 -137 -99 -226zM686 1387q-154 -20 -305 -109q-148 -87 -251 -216q-108 -135 -137 -278q-28 -136 16 -279q15 -49 38 -97
q8 -17 17 -34q7 -12 14 -23q100 -164 276 -256q195 -102 401 -67q251 43 409 274q51 76 87 164q12 29 21 57l6 20l2 6l1 5q59 226 -18 452q-82 242 -276 336q-134 66 -301 45zM764 1483q-6 -21 -33 -31t-55 -3q-17 4 -56 32q-96 70 -142 113q-63 58 -70 77q-10 30 -1 60
q9 31 35 44q25 12 59 4q12 -2 25 -7q4 -2 9 -4l4 -2l2 -1q25 -12 48 -37q16 -16 78 -96q72 -91 83 -108q18 -26 14 -41z" />
    <glyph glyph-name="Oacute" unicode="&#xd3;" horiz-adv-x="1333" 
d="M775 543q-90 -89 -183 -52q-64 25 -106 104q-41 78 -41 166q-1 148 100 252q46 48 97 64q55 16 102 -7q62 -30 100 -119q37 -87 30 -182q-9 -137 -99 -226zM686 1387q-154 -20 -305 -109q-148 -87 -251 -216q-108 -135 -137 -278q-28 -136 16 -279q15 -49 38 -97
q8 -17 17 -34q7 -12 14 -23q100 -164 276 -256q195 -102 401 -67q251 43 409 274q51 76 87 164q12 29 21 57l6 20l2 6l1 5q59 226 -18 452q-82 242 -276 336q-134 66 -301 45zM538 1524q11 17 83 108q62 80 78 96q23 25 48 37l2 1l4 2q5 2 9 4q13 5 25 7q34 8 59 -4
q26 -13 35 -44q9 -30 -1 -60q-7 -19 -70 -77q-46 -43 -142 -113q-39 -28 -56 -32q-28 -7 -55 3t-33 31q-4 15 14 41z" />
    <glyph glyph-name="Ocircumflex" unicode="&#xd4;" horiz-adv-x="1333" 
d="M775 543q-90 -89 -183 -52q-64 25 -106 104q-41 78 -41 166q-1 148 100 252q46 48 97 64q55 16 102 -7q62 -30 100 -119q37 -87 30 -182q-9 -137 -99 -226zM686 1387q-154 -20 -305 -109q-148 -87 -251 -216q-108 -135 -137 -278q-28 -136 16 -279q15 -49 38 -97
q8 -17 17 -34q7 -12 14 -23q100 -164 276 -256q195 -102 401 -67q251 43 409 274q51 76 87 164q12 29 21 57l6 20l2 6l1 5q59 226 -18 452q-82 242 -276 336q-134 66 -301 45zM543 1667q57 48 83 63q16 9 27 8q35 -5 73 -46q15 -16 33 -40q7 -10 16 -22l16 -23
q31 -46 41 -66q15 -34 7 -59q-6 -17 -21 -29q-18 -13 -43 -12q-23 1 -46 14t-33 31q-7 13 -3 36q2 12 2 20q-1 13 -6 27q-2 5 -5 12q-4 7 -8 13q-10 15 -18 16t-11 -16q-1 -5 -3 -18l-1 -5v-5q-1 -7 -2 -12q-5 -30 -13 -49q-12 -27 -34 -42q-26 -17 -61 -19q-37 -2 -60 16
q-24 20 -25 60q-1 15 2 32q3 14 7 26q9 27 86 89z" />
    <glyph glyph-name="Otilde" unicode="&#xd5;" horiz-adv-x="1333" 
d="M775 543q-90 -89 -183 -52q-64 25 -106 104q-41 78 -41 166q-1 148 100 252q46 48 97 64q55 16 102 -7q62 -30 100 -119q37 -87 30 -182q-9 -137 -99 -226zM686 1387q-154 -20 -305 -109q-148 -87 -251 -216q-108 -135 -137 -278q-28 -136 16 -279q15 -49 38 -97
q8 -17 17 -34q7 -12 14 -23q100 -164 276 -256q195 -102 401 -67q251 43 409 274q51 76 87 164q12 29 21 57l6 20l2 6l1 5q59 226 -18 452q-82 242 -276 336q-134 66 -301 45zM521 1637q42 50 76 42q22 -5 51 -36q9 -10 19 -21q3 -4 5 -8q1 -2 2 -3l1 -1v0q2 -2 4 -5l3 -5
q3 -4 5 -7q5 -6 10 -6q8 -1 17 10q3 4 7 11l4 7l4 7q10 19 17 27q11 13 24 15q15 3 33 -10q15 -11 23 -27q20 -36 3 -87t-57 -69q-37 -16 -83 7q-42 20 -65 57q-3 5 -7 13l-3 6l-3 5q-6 11 -11 10q-6 0 -9 -13q-2 -4 -4 -13l-1 -8l-2 -8q-4 -22 -10 -35q-9 -19 -23 -29
q-21 -16 -52 -12q-30 3 -42 23q-7 13 -4 33q3 12 12 36q21 54 56 94z" />
    <glyph glyph-name="Odieresis" unicode="&#xd6;" horiz-adv-x="1333" 
d="M775 543q-90 -89 -183 -52q-64 25 -106 104q-41 78 -41 166q-1 148 100 252q46 48 97 64q55 16 102 -7q62 -30 100 -119q37 -87 30 -182q-9 -137 -99 -226zM686 1387q-154 -20 -305 -109q-148 -87 -251 -216q-108 -135 -137 -278q-28 -136 16 -279q15 -49 38 -97
q8 -17 17 -34q7 -12 14 -23q100 -164 276 -256q195 -102 401 -67q251 43 409 274q51 76 87 164q12 29 21 57l6 20l2 6l1 5q59 226 -18 452q-82 242 -276 336q-134 66 -301 45zM585 1616q9 -16 8 -37q0 -93 -91 -109q-26 -5 -48 5q-36 14 -43 41q-2 35 4 65q3 20 9 33
q24 48 90 48q23 1 39 -9q22 -13 32 -37zM871 1616q9 -16 8 -37q0 -93 -91 -109q-26 -5 -48 5q-36 14 -43 41q-2 35 4 65q3 20 9 33q24 48 90 48q23 1 39 -9q22 -13 32 -37z" />
    <glyph glyph-name="multiply" unicode="&#xd7;" horiz-adv-x="1144" 
d="M632 601l-30 -26l-30 -24l-29 -24q-34 -27 -57 -45q-60 -49 -93 -74q-25 -19 -41 -25q-14 -6 -27 -5q-33 4 -64 36q-30 32 -32 65q-1 25 18 49q11 13 52 46q83 70 169 155q-36 26 -80 56l-10 7l-10 6q-11 8 -17 12q-19 12 -31 21q-28 21 -42 38q-15 20 -18 44
q-11 64 37 123q22 25 49 40q28 15 55 12q27 -2 64 -34q25 -23 91 -96q23 -24 67 -68q19 19 38 41l28 34q15 18 24 28q25 26 43 37q22 13 47 14q64 3 116 -51q24 -25 35 -53q12 -30 6 -57q-5 -26 -42 -59q-25 -23 -105 -80q-10 -7 -24 -18l14 -12q30 -29 51 -50
q56 -54 84 -84q22 -24 31 -39q6 -12 6 -25q1 -34 -28 -68q-28 -33 -61 -39q-25 -5 -51 12q-13 9 -51 45q-70 66 -152 135z" />
    <glyph glyph-name="Oslash" unicode="&#xd8;" horiz-adv-x="1333" 
d="M775 543q-90 -89 -183 -52q-64 25 -106 104q-41 78 -41 166q-1 148 100 252q46 48 97 64q55 16 102 -7q62 -30 100 -119q37 -87 30 -182q-9 -137 -99 -226zM686 1387q-154 -20 -305 -109q-148 -87 -251 -216q-108 -135 -137 -278q-28 -136 16 -279q15 -49 38 -97
q8 -17 17 -34q7 -12 14 -23q100 -164 276 -256q195 -102 401 -67q251 43 409 274q51 76 87 164q12 29 21 57l6 20l2 6l1 5q59 226 -18 452q-82 242 -276 336q-134 66 -301 45zM916 911q13 21 28 47l14 22l13 22q30 50 46 76q44 77 61 128q20 60 15 120l-1 3v6q-1 6 -3 14
q-3 20 -9 38q-17 54 -49 84q-50 45 -122 13q-64 -29 -93 -88q-426 -879 -479 -957q-81 -121 -106 -172q-38 -75 -37 -139q1 -66 36 -121q11 -18 25 -33l10 -10l3 -3l3 -2v-1l1 -1l4 -2q5 -4 11 -8q19 -12 39 -20q62 -23 113 7q47 28 81 117q10 29 31 96l9 27l9 29
q11 34 21 62q40 113 192 407q60 116 134 239z" />
    <glyph glyph-name="Ugrave" unicode="&#xd9;" horiz-adv-x="1178" 
d="M68 856q6 54 12 96q16 107 34 178q48 183 138 205q52 12 113 -23q57 -33 89 -88q37 -61 18 -165q-4 -18 -11 -52l-7 -29l-6 -31q-17 -80 -25 -152v-2v-4l-1 -8l-2 -22q-3 -34 -4 -66q-2 -96 14 -165q49 -210 250 -103q39 21 49 123q13 134 -29 389q-14 83 -34 171
q-3 14 -7 32l-4 15l-3 15q-7 32 -11 49q-17 85 12 124q56 75 192 72q138 -2 213 -84q39 -43 47 -114q5 -47 0 -197q-20 -547 -23 -590q-8 -110 -44 -163q-94 -141 -266 -215q-55 -24 -112 -38q-19 -5 -37 -8q-6 -1 -11 -2h-4l-2 -1h-3h-4q-6 -1 -13 -1q-21 -2 -44 -2
q-70 0 -135 11q-205 36 -307 174q-64 85 -68 221q-4 91 25 354zM689 1483q-6 -21 -33 -31t-55 -3q-17 4 -56 32q-96 70 -142 113q-63 58 -70 77q-10 30 -1 60q9 31 35 44q25 12 59 4q12 -2 25 -7q4 -2 9 -4l4 -2l2 -1q25 -12 48 -37q16 -16 78 -96q72 -91 83 -108
q18 -26 14 -41z" />
    <glyph glyph-name="Uacute" unicode="&#xda;" horiz-adv-x="1178" 
d="M68 856q6 54 12 96q16 107 34 178q48 183 138 205q52 12 113 -23q57 -33 89 -88q37 -61 18 -165q-4 -18 -11 -52l-7 -29l-6 -31q-17 -80 -25 -152v-2v-4l-1 -8l-2 -22q-3 -34 -4 -66q-2 -96 14 -165q49 -210 250 -103q39 21 49 123q13 134 -29 389q-14 83 -34 171
q-3 14 -7 32l-4 15l-3 15q-7 32 -11 49q-17 85 12 124q56 75 192 72q138 -2 213 -84q39 -43 47 -114q5 -47 0 -197q-20 -547 -23 -590q-8 -110 -44 -163q-94 -141 -266 -215q-55 -24 -112 -38q-19 -5 -37 -8q-6 -1 -11 -2h-4l-2 -1h-3h-4q-6 -1 -13 -1q-21 -2 -44 -2
q-70 0 -135 11q-205 36 -307 174q-64 85 -68 221q-4 91 25 354zM464 1524q11 17 83 108q62 80 78 96q23 25 48 37l2 1l4 2q5 2 9 4q13 5 25 7q34 8 59 -4q26 -13 35 -44q9 -30 -1 -60q-7 -19 -70 -77q-46 -43 -142 -113q-39 -28 -56 -32q-28 -7 -55 3t-33 31q-4 15 14 41z
" />
    <glyph glyph-name="Ucircumflex" unicode="&#xdb;" horiz-adv-x="1178" 
d="M68 856q6 54 12 96q16 107 34 178q48 183 138 205q52 12 113 -23q57 -33 89 -88q37 -61 18 -165q-4 -18 -11 -52l-7 -29l-6 -31q-17 -80 -25 -152v-2v-4l-1 -8l-2 -22q-3 -34 -4 -66q-2 -96 14 -165q49 -210 250 -103q39 21 49 123q13 134 -29 389q-14 83 -34 171
q-3 14 -7 32l-4 15l-3 15q-7 32 -11 49q-17 85 12 124q56 75 192 72q138 -2 213 -84q39 -43 47 -114q5 -47 0 -197q-20 -547 -23 -590q-8 -110 -44 -163q-94 -141 -266 -215q-55 -24 -112 -38q-19 -5 -37 -8q-6 -1 -11 -2h-4l-2 -1h-3h-4q-6 -1 -13 -1q-21 -2 -44 -2
q-70 0 -135 11q-205 36 -307 174q-64 85 -68 221q-4 91 25 354zM468 1667q57 48 83 63q16 9 27 8q35 -5 73 -46q15 -16 33 -40q7 -10 16 -22l16 -23q31 -46 41 -66q15 -34 7 -59q-6 -17 -21 -29q-18 -13 -43 -12q-23 1 -46 14t-33 31q-7 13 -3 36q2 12 2 20q-1 13 -6 27
q-2 5 -5 12q-4 7 -8 13q-10 15 -18 16t-11 -16q-1 -5 -3 -18l-1 -5v-5q-1 -7 -2 -12q-5 -30 -13 -49q-12 -27 -34 -42q-26 -17 -61 -19q-37 -2 -60 16q-24 20 -25 60q-1 15 2 32q3 14 7 26q9 27 86 89z" />
    <glyph glyph-name="Udieresis" unicode="&#xdc;" horiz-adv-x="1178" 
d="M68 856q6 54 12 96q16 107 34 178q48 183 138 205q52 12 113 -23q57 -33 89 -88q37 -61 18 -165q-4 -18 -11 -52l-7 -29l-6 -31q-17 -80 -25 -152v-2v-4l-1 -8l-2 -22q-3 -34 -4 -66q-2 -96 14 -165q49 -210 250 -103q39 21 49 123q13 134 -29 389q-14 83 -34 171
q-3 14 -7 32l-4 15l-3 15q-7 32 -11 49q-17 85 12 124q56 75 192 72q138 -2 213 -84q39 -43 47 -114q5 -47 0 -197q-20 -547 -23 -590q-8 -110 -44 -163q-94 -141 -266 -215q-55 -24 -112 -38q-19 -5 -37 -8q-6 -1 -11 -2h-4l-2 -1h-3h-4q-6 -1 -13 -1q-21 -2 -44 -2
q-70 0 -135 11q-205 36 -307 174q-64 85 -68 221q-4 91 25 354zM510 1616q9 -16 8 -37q0 -93 -91 -109q-26 -5 -48 5q-36 14 -43 41q-2 35 4 65q3 20 9 33q24 48 90 48q23 1 39 -9q22 -13 32 -37zM796 1616q9 -16 8 -37q0 -93 -91 -109q-26 -5 -48 5q-36 14 -43 41
q-2 35 4 65q3 20 9 33q24 48 90 48q23 1 39 -9q22 -13 32 -37z" />
    <glyph glyph-name="Yacute" unicode="&#xdd;" horiz-adv-x="1226" 
d="M990 1441q-148 21 -230 -14q-25 -11 -37 -26q-24 -32 -29 -81q-1 -17 0 -36q1 -7 1 -14l1 -5l2 -4q16 -115 -19 -314q-37 -201 -76 -205q-18 -2 -50 47q-31 50 -58 122q-67 184 -36 300l2 4l1 7q2 7 3 14q4 20 4 39q3 54 -19 93q-10 18 -35 32q-63 36 -174 42
q-114 5 -177 -26q-47 -23 -36 -81q3 -19 67 -204q19 -55 79 -178q18 -37 55 -111l30 -58l28 -59q142 -291 128 -342q-47 -168 -55 -230q-14 -96 18 -142q28 -39 94 -57q62 -16 137 -10q76 6 136 34q65 30 89 77q22 40 -2 111l-5 17l-7 19q-9 24 -14 44q-18 58 -27 119
q-23 138 118 408q50 97 116 200q50 77 91 133q145 195 88 258q-51 56 -202 77zM511 1524q11 17 83 108q62 80 78 96q23 25 48 37l2 1l4 2q5 2 9 4q13 5 25 7q34 8 59 -4q26 -13 35 -44q9 -30 -1 -60q-7 -19 -70 -77q-46 -43 -142 -113q-39 -28 -56 -32q-28 -7 -55 3t-33 31
q-4 15 14 41z" />
    <glyph glyph-name="Thorn" unicode="&#xde;" horiz-adv-x="1330" 
d="M614 379q-40 -5 -54 11q-8 10 -6 29q1 7 3 15l2 6l1 6q14 46 8 100q-4 35 -21 91l-6 21l-5 20q-6 21 -8 36q-5 37 12 58q34 42 121 34q89 -9 136 -66q59 -73 12 -190q-46 -111 -133 -152q-30 -15 -62 -19zM763 1017q-23 -4 -52 -11l-24 -7l-24 -6q-57 -16 -83 -17
q-39 -1 -59 21q-15 16 -15 47q0 9 1 37v24q1 14 1 28v21l-1 22q0 26 -1 48q-2 58 -9 102q-19 119 -73 155q-55 36 -151 7q-97 -30 -152 -104t-38 -215q5 -45 27 -162l4 -24l5 -25q5 -29 9 -53q11 -62 19 -119q20 -135 32 -271q8 -102 12 -204q1 -73 1 -147q0 -102 -1 -205
q-2 -176 2 -212q5 -60 34 -80q55 -40 157 -3q104 37 150 120q26 46 26 106q0 38 -12 104l-5 24l-4 23q-3 25 -3 43q0 43 24 65q25 20 72 14q9 -1 23 -4l25 -4q32 -5 56 -6q147 -8 291 78q156 92 197 234q51 171 -74 355q-54 80 -127 135q-76 55 -150 68q-50 8 -110 -2z" />
    <glyph glyph-name="germandbls" unicode="&#xdf;" horiz-adv-x="1320" 
d="M198 1057q28 277 140 356q60 42 157 47q58 3 186 -10l36 -4l38 -5q43 -6 78 -16q92 -26 161 -83l3 -2l4 -3q4 -4 9 -7q11 -10 22 -21q31 -30 56 -65q72 -101 72 -215q0 -10 -1 -20q0 -12 -2 -25q-3 -34 -12 -64q-23 -87 -80 -139q-21 -20 -48 -35q-11 -6 -23 -12l-11 -5
l-10 -5q-44 -20 -45 -38q-1 -22 51 -47l12 -6l12 -7q15 -7 27 -14q32 -18 55 -38q75 -63 109 -167q38 -111 11 -221q-26 -107 -106 -186q-75 -74 -175 -103q-109 -32 -219 -11q-127 24 -165 110q-31 71 0 159q30 86 87 101q29 8 64 -10q14 -8 32 -20l30 -24q41 -33 60 -43
q32 -16 58 -6q33 14 50 62q16 48 -1 87q-12 27 -42 40q-19 8 -67 18l-19 4l-19 4q-22 6 -40 13q-45 17 -77 49q-54 53 -73 133q-19 81 11 139q16 33 64 59l10 5l10 6q11 7 21 14q24 18 44 44l1 2l1 2q2 2 4 5q6 8 11 18q16 27 26 55q32 86 2 154q-21 46 -61 77
q-45 34 -84 26q-4 -1 -9 -3t-11 -5q-14 -10 -27 -29q-37 -53 -64 -174q-30 -134 -25 -295l3 -72l2 -39l2 -40q4 -100 1 -190q-5 -205 -36 -303q-12 -36 -27 -57q-6 -8 -13 -15q-4 -4 -10 -9q-78 -57 -200 -36q-51 8 -87 28q-37 21 -44 45q-4 18 18 51l6 8l5 8q7 10 13 20
q14 25 24 54q16 42 20 89q2 17 2 38v17v17q-7 596 12 780z" />
    <glyph glyph-name="agrave" unicode="&#xe0;" horiz-adv-x="894" 
d="M556 325l-2 10q-2 12 -5 21q-8 25 -25 41q-27 25 -69 27q-41 3 -75 -15q-46 -23 -64 -74q-18 -50 4 -91q30 -55 111 -59q77 -5 111 36q15 19 17 49q1 11 0 25l-1 11l-1 9zM667 -56q-46 22 -56 55q-3 11 -48 1q-15 -4 -49 -13l-14 -4l-15 -4l-31 -8q-79 -19 -138 -23
q-79 -6 -135 15q-50 19 -92 70q-41 51 -63 119q-50 157 24 284q46 79 132 128q88 51 175 45q35 -3 69 -16q13 -5 28 -12q10 -5 24 -13q29 -15 39 -19q18 -6 29 2q18 12 20 51q1 36 -13 80q-32 106 -93 118q-23 4 -49 -12q-10 -6 -23 -17l-13 -10l-12 -11q-34 -28 -58 -41
q-38 -20 -78 -21q-38 0 -71 12q-38 14 -49 39q-17 39 32 99q42 52 104 90q101 62 232 65q142 3 238 -68q83 -62 107 -192q17 -86 22 -350v-15l1 -15v-32v-69q-1 -82 -9 -141q-19 -158 -86 -178q-35 -11 -81 11zM544 1073q-6 -21 -33 -31t-55 -3q-17 4 -56 32
q-96 70 -142 113q-63 58 -70 77q-10 30 -1 60q9 31 35 44q25 12 59 4q12 -2 25 -7q4 -2 9 -4l4 -2l2 -1q25 -12 48 -37q16 -16 78 -96q72 -91 83 -108q18 -26 14 -41z" />
    <glyph glyph-name="aacute" unicode="&#xe1;" horiz-adv-x="894" 
d="M556 325l-2 10q-2 12 -5 21q-8 25 -25 41q-27 25 -69 27q-41 3 -75 -15q-46 -23 -64 -74q-18 -50 4 -91q30 -55 111 -59q77 -5 111 36q15 19 17 49q1 11 0 25l-1 11l-1 9zM667 -56q-46 22 -56 55q-3 11 -48 1q-15 -4 -49 -13l-14 -4l-15 -4l-31 -8q-79 -19 -138 -23
q-79 -6 -135 15q-50 19 -92 70q-41 51 -63 119q-50 157 24 284q46 79 132 128q88 51 175 45q35 -3 69 -16q13 -5 28 -12q10 -5 24 -13q29 -15 39 -19q18 -6 29 2q18 12 20 51q1 36 -13 80q-32 106 -93 118q-23 4 -49 -12q-10 -6 -23 -17l-13 -10l-12 -11q-34 -28 -58 -41
q-38 -20 -78 -21q-38 0 -71 12q-38 14 -49 39q-17 39 32 99q42 52 104 90q101 62 232 65q142 3 238 -68q83 -62 107 -192q17 -86 22 -350v-15l1 -15v-32v-69q-1 -82 -9 -141q-19 -158 -86 -178q-35 -11 -81 11zM318 1114q11 17 83 108q62 80 78 96q23 25 48 37l2 1l4 2
q5 2 9 4q13 5 25 7q34 8 59 -4q26 -13 35 -44q9 -30 -1 -60q-7 -19 -70 -77q-46 -43 -142 -113q-39 -28 -56 -32q-28 -7 -55 3t-33 31q-4 15 14 41z" />
    <glyph glyph-name="acircumflex" unicode="&#xe2;" horiz-adv-x="894" 
d="M556 325l-2 10q-2 12 -5 21q-8 25 -25 41q-27 25 -69 27q-41 3 -75 -15q-46 -23 -64 -74q-18 -50 4 -91q30 -55 111 -59q77 -5 111 36q15 19 17 49q1 11 0 25l-1 11l-1 9zM667 -56q-46 22 -56 55q-3 11 -48 1q-15 -4 -49 -13l-14 -4l-15 -4l-31 -8q-79 -19 -138 -23
q-79 -6 -135 15q-50 19 -92 70q-41 51 -63 119q-50 157 24 284q46 79 132 128q88 51 175 45q35 -3 69 -16q13 -5 28 -12q10 -5 24 -13q29 -15 39 -19q18 -6 29 2q18 12 20 51q1 36 -13 80q-32 106 -93 118q-23 4 -49 -12q-10 -6 -23 -17l-13 -10l-12 -11q-34 -28 -58 -41
q-38 -20 -78 -21q-38 0 -71 12q-38 14 -49 39q-17 39 32 99q42 52 104 90q101 62 232 65q142 3 238 -68q83 -62 107 -192q17 -86 22 -350v-15l1 -15v-32v-69q-1 -82 -9 -141q-19 -158 -86 -178q-35 -11 -81 11zM323 1257q57 48 83 63q16 9 27 8q35 -5 73 -46q15 -16 33 -40
q7 -10 16 -22l16 -23q31 -46 41 -66q15 -34 7 -59q-6 -17 -21 -29q-18 -13 -43 -12q-23 1 -46 14t-33 31q-7 13 -3 36q2 12 2 20q-1 13 -6 27q-2 5 -5 12q-4 7 -8 13q-10 15 -18 16t-11 -16q-1 -5 -3 -18l-1 -5v-5q-1 -7 -2 -12q-5 -30 -13 -49q-12 -27 -34 -42
q-26 -17 -61 -19q-37 -2 -60 16q-24 20 -25 60q-1 15 2 32q3 14 7 26q9 27 86 89z" />
    <glyph glyph-name="atilde" unicode="&#xe3;" horiz-adv-x="894" 
d="M556 325l-2 10q-2 12 -5 21q-8 25 -25 41q-27 25 -69 27q-41 3 -75 -15q-46 -23 -64 -74q-18 -50 4 -91q30 -55 111 -59q77 -5 111 36q15 19 17 49q1 11 0 25l-1 11l-1 9zM667 -56q-46 22 -56 55q-3 11 -48 1q-15 -4 -49 -13l-14 -4l-15 -4l-31 -8q-79 -19 -138 -23
q-79 -6 -135 15q-50 19 -92 70q-41 51 -63 119q-50 157 24 284q46 79 132 128q88 51 175 45q35 -3 69 -16q13 -5 28 -12q10 -5 24 -13q29 -15 39 -19q18 -6 29 2q18 12 20 51q1 36 -13 80q-32 106 -93 118q-23 4 -49 -12q-10 -6 -23 -17l-13 -10l-12 -11q-34 -28 -58 -41
q-38 -20 -78 -21q-38 0 -71 12q-38 14 -49 39q-17 39 32 99q42 52 104 90q101 62 232 65q142 3 238 -68q83 -62 107 -192q17 -86 22 -350v-15l1 -15v-32v-69q-1 -82 -9 -141q-19 -158 -86 -178q-35 -11 -81 11zM301 1227q42 50 76 42q22 -5 51 -36q9 -10 19 -21q3 -4 5 -8
q1 -2 2 -3l1 -1v0q2 -2 4 -5l3 -5q3 -4 5 -7q5 -6 10 -6q8 -1 17 10q3 4 7 11l4 7l4 7q10 19 17 27q11 13 24 15q15 3 33 -10q15 -11 23 -27q20 -36 3 -87t-57 -69q-37 -16 -83 7q-42 20 -65 57q-3 5 -7 13l-3 6l-3 5q-6 11 -11 10q-6 0 -9 -13q-2 -4 -4 -13l-1 -8l-2 -8
q-4 -22 -10 -35q-9 -19 -23 -29q-21 -16 -52 -12q-30 3 -42 23q-7 13 -4 33q3 12 12 36q21 54 56 94z" />
    <glyph glyph-name="adieresis" unicode="&#xe4;" horiz-adv-x="894" 
d="M556 325l-2 10q-2 12 -5 21q-8 25 -25 41q-27 25 -69 27q-41 3 -75 -15q-46 -23 -64 -74q-18 -50 4 -91q30 -55 111 -59q77 -5 111 36q15 19 17 49q1 11 0 25l-1 11l-1 9zM667 -56q-46 22 -56 55q-3 11 -48 1q-15 -4 -49 -13l-14 -4l-15 -4l-31 -8q-79 -19 -138 -23
q-79 -6 -135 15q-50 19 -92 70q-41 51 -63 119q-50 157 24 284q46 79 132 128q88 51 175 45q35 -3 69 -16q13 -5 28 -12q10 -5 24 -13q29 -15 39 -19q18 -6 29 2q18 12 20 51q1 36 -13 80q-32 106 -93 118q-23 4 -49 -12q-10 -6 -23 -17l-13 -10l-12 -11q-34 -28 -58 -41
q-38 -20 -78 -21q-38 0 -71 12q-38 14 -49 39q-17 39 32 99q42 52 104 90q101 62 232 65q142 3 238 -68q83 -62 107 -192q17 -86 22 -350v-15l1 -15v-32v-69q-1 -82 -9 -141q-19 -158 -86 -178q-35 -11 -81 11zM365 1206q9 -16 8 -37q0 -93 -91 -109q-26 -5 -48 5
q-36 14 -43 41q-2 35 4 65q3 20 9 33q24 48 90 48q23 1 39 -9q22 -13 32 -37zM651 1206q9 -16 8 -37q0 -93 -91 -109q-26 -5 -48 5q-36 14 -43 41q-2 35 4 65q3 20 9 33q24 48 90 48q23 1 39 -9q22 -13 32 -37z" />
    <glyph glyph-name="aring" unicode="&#xe5;" horiz-adv-x="894" 
d="M556 325l-2 10q-2 12 -5 21q-8 25 -25 41q-27 25 -69 27q-41 3 -75 -15q-46 -23 -64 -74q-18 -50 4 -91q30 -55 111 -59q77 -5 111 36q15 19 17 49q1 11 0 25l-1 11l-1 9zM667 -56q-46 22 -56 55q-3 11 -48 1q-15 -4 -49 -13l-14 -4l-15 -4l-31 -8q-79 -19 -138 -23
q-79 -6 -135 15q-50 19 -92 70q-41 51 -63 119q-50 157 24 284q46 79 132 128q88 51 175 45q35 -3 69 -16q13 -5 28 -12q10 -5 24 -13q29 -15 39 -19q18 -6 29 2q18 12 20 51q1 36 -13 80q-32 106 -93 118q-23 4 -49 -12q-10 -6 -23 -17l-13 -10l-12 -11q-34 -28 -58 -41
q-38 -20 -78 -21q-38 0 -71 12q-38 14 -49 39q-17 39 32 99q42 52 104 90q101 62 232 65q142 3 238 -68q83 -62 107 -192q17 -86 22 -350v-15l1 -15v-32v-69q-1 -82 -9 -141q-19 -158 -86 -178q-35 -11 -81 11zM323 1257q0 -42 29 -71t71 -29t71 29t29 71q0 40 -29.5 69.5
t-70.5 29.5t-70.5 -29.5t-29.5 -69.5zM247 1257q0 75 51 126t125 51q76 0 127.5 -51.5t51.5 -125.5q0 -75 -51.5 -126.5t-127.5 -51.5q-74 0 -125 51.5t-51 126.5z" />
    <glyph glyph-name="ae" unicode="&#xe6;" horiz-adv-x="1642" 
d="M556 325l-2 10q-2 12 -5 21q-8 25 -25 41q-27 25 -69 27q-41 3 -75 -15q-46 -23 -64 -74q-18 -50 4 -91q30 -55 111 -59q77 -5 111 36q15 19 17 49q1 11 0 25l-1 11l-1 9zM1176 746q-59 14 -139 -44q-88 -64 -112 -162q280 55 321 104q29 35 6 63q-20 26 -76 39zM820 36
q-23 -88 -72 -103q-35 -11 -81 11t-56 55q-3 11 -48 1q-15 -4 -49 -13l-14 -4l-15 -4l-31 -8q-79 -19 -138 -23q-79 -6 -135 15q-50 19 -92 70q-41 51 -63 119q-50 157 24 284q46 79 132 128q88 51 175 45q35 -3 69 -16q13 -5 28 -12q10 -5 24 -13q29 -15 39 -19q18 -6 29 2
q18 12 20 51q1 36 -13 80q-32 106 -93 118q-23 4 -49 -12q-10 -6 -23 -17l-13 -10l-12 -11q-34 -28 -58 -41q-38 -20 -78 -21q-38 0 -71 12q-38 14 -49 39q-17 39 32 99q42 52 104 90q101 62 232 65q142 3 238 -68q60 -44 89 -124q84 100 205 132q202 53 362 30
q189 -27 210 -158q19 -129 -88 -240q-90 -93 -210 -127q-39 -11 -103 -22l-26 -5l-25 -4q-28 -5 -47 -9q-101 -22 -108 -68q-9 -59 76 -97q88 -39 186 -11q38 10 102 38l25 11l25 10q27 11 46 18q102 35 123 -29q30 -86 7 -139q-29 -65 -147 -114q-147 -61 -260 -67
q-147 -8 -300 67q-18 9 -35 19z" />
    <glyph glyph-name="ccedilla" unicode="&#xe7;" horiz-adv-x="965" 
d="M845 1014q65 -47 77 -110q10 -54 -16 -111q-27 -58 -75 -78q-38 -15 -85 3q-29 10 -85 46l-42 26q-24 13 -43 20q-47 18 -85 4q-61 -24 -90 -119q-10 -32 -15 -69q-2 -13 -3 -26q-1 -5 -1 -10v-4l-1 -3q-7 -93 23 -179q33 -98 94 -116q28 -8 59 4q13 5 29 14l28 18
q38 24 63 33q39 13 78 7q51 -8 92 -41q43 -34 52 -76q14 -67 -61 -143q-68 -70 -158 -103q-161 -58 -352 25q-192 83 -275 251q-41 81 -33 240q9 175 76 317q81 171 224 238q170 79 409 -1q71 -24 116 -57zM489 -60v-10l-1 -11q-1 -13 0 -18q1 -8 8 -12q4 -2 12 -1l4 1l4 1
q5 1 9 1q26 3 53 -15q23 -16 35 -37q21 -36 1 -86q-19 -48 -61 -75q-60 -39 -144 -18q-35 8 -59 25q-25 17 -30 36q-4 18 7 38q12 21 29 27q10 3 25 -2l4 -1l5 -2q6 -2 10 -3q14 -4 28 -7q32 -7 43 -8q18 -1 25 6q9 8 6 26q-4 18 -17 29q-9 7 -21 9q-5 1 -12 1h-11
q-31 0 -42 11q-9 9 -13 50q-3 42 -2 57q2 21 14 30q17 11 44 4q28 -6 40 -25q6 -8 7 -21z" />
    <glyph glyph-name="egrave" unicode="&#xe8;" horiz-adv-x="997" 
d="M618 758q23 -28 -6 -63q-41 -49 -321 -104q24 98 112 162q80 58 139 44q56 -13 76 -39zM414 284q-85 38 -76 97q7 46 108 68q19 4 47 9l25 4l26 5q64 11 103 22q120 34 210 127q107 111 88 240q-21 131 -210 158q-160 23 -362 -30q-168 -44 -266 -221q-90 -165 -90 -382
q-5 -51 19 -116q46 -130 185 -197q153 -75 300 -67q113 6 260 67q118 49 147 114q23 53 -7 139q-21 64 -123 29q-19 -7 -46 -18l-25 -10l-25 -11q-64 -28 -102 -38q-98 -28 -186 11zM602 1073q-6 -21 -33 -31t-55 -3q-17 4 -56 32q-96 70 -142 113q-63 58 -70 77
q-10 30 -1 60q9 31 35 44q25 12 59 4q12 -2 25 -7q4 -2 9 -4l4 -2l2 -1q25 -12 48 -37q16 -16 78 -96q72 -91 83 -108q18 -26 14 -41z" />
    <glyph glyph-name="eacute" unicode="&#xe9;" horiz-adv-x="997" 
d="M618 758q23 -28 -6 -63q-41 -49 -321 -104q24 98 112 162q80 58 139 44q56 -13 76 -39zM414 284q-85 38 -76 97q7 46 108 68q19 4 47 9l25 4l26 5q64 11 103 22q120 34 210 127q107 111 88 240q-21 131 -210 158q-160 23 -362 -30q-168 -44 -266 -221q-90 -165 -90 -382
q-5 -51 19 -116q46 -130 185 -197q153 -75 300 -67q113 6 260 67q118 49 147 114q23 53 -7 139q-21 64 -123 29q-19 -7 -46 -18l-25 -10l-25 -11q-64 -28 -102 -38q-98 -28 -186 11zM376 1114q11 17 83 108q62 80 78 96q23 25 48 37l2 1l4 2q5 2 9 4q13 5 25 7q34 8 59 -4
q26 -13 35 -44q9 -30 -1 -60q-7 -19 -70 -77q-46 -43 -142 -113q-39 -28 -56 -32q-28 -7 -55 3t-33 31q-4 15 14 41z" />
    <glyph glyph-name="ecircumflex" unicode="&#xea;" horiz-adv-x="997" 
d="M618 758q23 -28 -6 -63q-41 -49 -321 -104q24 98 112 162q80 58 139 44q56 -13 76 -39zM414 284q-85 38 -76 97q7 46 108 68q19 4 47 9l25 4l26 5q64 11 103 22q120 34 210 127q107 111 88 240q-21 131 -210 158q-160 23 -362 -30q-168 -44 -266 -221q-90 -165 -90 -382
q-5 -51 19 -116q46 -130 185 -197q153 -75 300 -67q113 6 260 67q118 49 147 114q23 53 -7 139q-21 64 -123 29q-19 -7 -46 -18l-25 -10l-25 -11q-64 -28 -102 -38q-98 -28 -186 11zM380 1257q57 48 83 63q16 9 27 8q35 -5 73 -46q15 -16 33 -40q7 -10 16 -22l16 -23
q31 -46 41 -66q15 -34 7 -59q-6 -17 -21 -29q-18 -13 -43 -12q-23 1 -46 14t-33 31q-7 13 -3 36q2 12 2 20q-1 13 -6 27q-2 5 -5 12q-4 7 -8 13q-10 15 -18 16t-11 -16q-1 -5 -3 -18l-1 -5v-5q-1 -7 -2 -12q-5 -30 -13 -49q-12 -27 -34 -42q-26 -17 -61 -19q-37 -2 -60 16
q-24 20 -25 60q-1 15 2 32q3 14 7 26q9 27 86 89z" />
    <glyph glyph-name="edieresis" unicode="&#xeb;" horiz-adv-x="997" 
d="M618 758q23 -28 -6 -63q-41 -49 -321 -104q24 98 112 162q80 58 139 44q56 -13 76 -39zM414 284q-85 38 -76 97q7 46 108 68q19 4 47 9l25 4l26 5q64 11 103 22q120 34 210 127q107 111 88 240q-21 131 -210 158q-160 23 -362 -30q-168 -44 -266 -221q-90 -165 -90 -382
q-5 -51 19 -116q46 -130 185 -197q153 -75 300 -67q113 6 260 67q118 49 147 114q23 53 -7 139q-21 64 -123 29q-19 -7 -46 -18l-25 -10l-25 -11q-64 -28 -102 -38q-98 -28 -186 11zM422 1206q9 -16 8 -37q0 -93 -91 -109q-26 -5 -48 5q-36 14 -43 41q-2 35 4 65q3 20 9 33
q24 48 90 48q23 1 39 -9q22 -13 32 -37zM708 1206q9 -16 8 -37q0 -93 -91 -109q-26 -5 -48 5q-36 14 -43 41q-2 35 4 65q3 20 9 33q24 48 90 48q23 1 39 -9q22 -13 32 -37z" />
    <glyph glyph-name="igrave" unicode="&#xec;" horiz-adv-x="472" 
d="M431 207q2 41 -2 86q-1 17 -3 34l-2 13l-1 6l-1 5q-19 134 -16 261q2 47 6 99q2 19 4 42l2 20l2 18q8 84 2 116q-8 46 -48 72q-64 41 -158 27q-92 -12 -138 -65q-28 -33 -21 -98q2 -12 5 -37l3 -21l3 -23q8 -62 10 -121q3 -58 -13 -373q-9 -161 -7 -193q4 -56 34 -84
q39 -36 102 -46q66 -10 117 14q22 11 40 28q7 6 13 14l10 12q52 75 57 194zM364 1073q-6 -21 -33 -31t-55 -3q-17 4 -56 32q-96 70 -142 113q-63 58 -70 77q-10 30 -1 60q9 31 35 44q25 12 59 4q12 -2 25 -7q4 -2 9 -4l4 -2l2 -1q25 -12 48 -37q16 -16 78 -96
q72 -91 83 -108q18 -26 14 -41z" />
    <glyph glyph-name="iacute" unicode="&#xed;" horiz-adv-x="472" 
d="M431 207q2 41 -2 86q-1 17 -3 34l-2 13l-1 6l-1 5q-19 134 -16 261q2 47 6 99q2 19 4 42l2 20l2 18q8 84 2 116q-8 46 -48 72q-64 41 -158 27q-92 -12 -138 -65q-28 -33 -21 -98q2 -12 5 -37l3 -21l3 -23q8 -62 10 -121q3 -58 -13 -373q-9 -161 -7 -193q4 -56 34 -84
q39 -36 102 -46q66 -10 117 14q22 11 40 28q7 6 13 14l10 12q52 75 57 194zM138 1114q11 17 83 108q62 80 78 96q23 25 48 37l2 1l4 2q5 2 9 4q13 5 25 7q34 8 59 -4q26 -13 35 -44q9 -30 -1 -60q-7 -19 -70 -77q-46 -43 -142 -113q-39 -28 -56 -32q-28 -7 -55 3t-33 31
q-4 15 14 41z" />
    <glyph glyph-name="icircumflex" unicode="&#xee;" horiz-adv-x="472" 
d="M431 207q2 41 -2 86q-1 17 -3 34l-2 13l-1 6l-1 5q-19 134 -16 261q2 47 6 99q2 19 4 42l2 20l2 18q8 84 2 116q-8 46 -48 72q-64 41 -158 27q-92 -12 -138 -65q-28 -33 -21 -98q2 -12 5 -37l3 -21l3 -23q8 -62 10 -121q3 -58 -13 -373q-9 -161 -7 -193q4 -56 34 -84
q39 -36 102 -46q66 -10 117 14q22 11 40 28q7 6 13 14l10 12q52 75 57 194zM142 1257q57 48 83 63q16 9 27 8q35 -5 73 -46q15 -16 33 -40q7 -10 16 -22l16 -23q31 -46 41 -66q15 -34 7 -59q-6 -17 -21 -29q-18 -13 -43 -12q-23 1 -46 14t-33 31q-7 13 -3 36q2 12 2 20
q-1 13 -6 27q-2 5 -5 12q-4 7 -8 13q-10 15 -18 16t-11 -16q-1 -5 -3 -18l-1 -5v-5q-1 -7 -2 -12q-5 -30 -13 -49q-12 -27 -34 -42q-26 -17 -61 -19q-37 -2 -60 16q-24 20 -25 60q-1 15 2 32q3 14 7 26q9 27 86 89z" />
    <glyph glyph-name="idieresis" unicode="&#xef;" horiz-adv-x="472" 
d="M431 207q2 41 -2 86q-1 17 -3 34l-2 13l-1 6l-1 5q-19 134 -16 261q2 47 6 99q2 19 4 42l2 20l2 18q8 84 2 116q-8 46 -48 72q-64 41 -158 27q-92 -12 -138 -65q-28 -33 -21 -98q2 -12 5 -37l3 -21l3 -23q8 -62 10 -121q3 -58 -13 -373q-9 -161 -7 -193q4 -56 34 -84
q39 -36 102 -46q66 -10 117 14q22 11 40 28q7 6 13 14l10 12q52 75 57 194zM184 1206q9 -16 8 -37q0 -93 -91 -109q-26 -5 -48 5q-36 14 -43 41q-2 35 4 65q3 20 9 33q24 48 90 48q23 1 39 -9q22 -13 32 -37zM470 1206q9 -16 8 -37q0 -93 -91 -109q-26 -5 -48 5
q-36 14 -43 41q-2 35 4 65q3 20 9 33q24 48 90 48q23 1 39 -9q22 -13 32 -37z" />
    <glyph glyph-name="eth" unicode="&#xf0;" horiz-adv-x="1224" 
d="M643 348q-11 7 -25 19l-12 10l-11 9l-5 5l-6 6q-8 7 -15 15q-20 21 -34 42q-40 63 -27 122q14 68 80 112q64 43 110 22q31 -14 44 -64q5 -19 9 -46l2 -23l2 -23q2 -28 2 -57q-1 -38 -6 -68q-14 -80 -53 -92q-23 -8 -55 11zM648 1193q5 -3 4 -4zM898 1003l-22 16
q-31 21 -45 32q-48 39 -42 62q5 16 33 23q11 3 28 6l16 2l16 2q42 5 62 12q31 11 39 31q16 39 -24 95q-41 57 -93 61q-30 3 -61 -18q-12 -8 -27 -22l-26 -25q-34 -34 -53 -47q-31 -20 -62 -17q-30 3 -58 27q-22 19 -41 49l-1 1l-2 2l-4 4q-6 5 -13 11q-18 16 -40 28
q-63 37 -130 30q-54 -5 -101 -33q-49 -29 -47 -58q1 -23 37 -43q24 -13 80 -33l22 -7l21 -7q22 -9 36 -16q36 -17 36 -35q-1 -16 -30 -30q-12 -5 -31 -12l-17 -6l-18 -6q-46 -16 -67 -29q-32 -19 -35 -43q-4 -29 24 -60t63 -35q27 -2 54 16q11 7 23 18l23 22q29 29 45 39
q25 17 49 12q27 -6 52 -34q9 -10 16 -21q3 -4 5 -8l2 -3l1 -3q25 -43 20 -61q-9 -25 -79 -31l-16 -1l-16 -1q-21 -2 -35 -3q-42 -4 -71 -13q-91 -26 -165 -109q-64 -73 -90 -158q-51 -165 55 -345q107 -181 295 -237q147 -43 301 12q142 51 232 163q139 174 94 443
q-19 116 -72 217q-52 101 -125 159q-9 6 -21 15z" />
    <glyph glyph-name="ntilde" unicode="&#xf1;" horiz-adv-x="1130" 
d="M76 225q-7 39 -11 78q-3 27 -5 56q-1 26 -3 77q-3 62 -4 125q-3 175 4 274q6 87 74 161q60 66 143 97q81 30 133 8q57 -24 46 -103q-13 -82 20 -69q12 4 32 22l17 15l8 8l8 7q60 55 152 75q82 19 147 2q118 -31 185 -215q25 -67 44 -157q7 -34 14 -74q2 -16 5 -34l3 -16
l2 -15l2 -12l2 -13q2 -16 4 -31q6 -38 9 -74q10 -98 7 -177q-9 -228 -121 -286q-62 -32 -143 -17q-81 16 -118 69q-19 28 -19 66q1 25 14 81l6 24l7 26q7 32 11 59q12 74 9 150v17l-1 18q-1 22 -3 40q-4 47 -12 83q-23 97 -81 123q-39 18 -89 5q-49 -13 -81 -46
q-33 -34 -39 -94q-6 -49 4 -167q9 -101 22 -204q2 -17 4 -39l3 -17l2 -16q5 -37 7 -56q9 -90 -20 -126q-47 -56 -142 -61q-94 -4 -150 44q-12 9 -21 27q-15 26 -34 79q-35 98 -53 203zM460 1227q42 50 76 42q22 -5 51 -36q9 -10 19 -21q3 -4 5 -8q1 -2 2 -3l1 -1v0
q2 -2 4 -5l3 -5q3 -4 5 -7q5 -6 10 -6q8 -1 17 10q3 4 7 11l4 7l4 7q10 19 17 27q11 13 24 15q15 3 33 -10q15 -11 23 -27q20 -36 3 -87t-57 -69q-37 -16 -83 7q-42 20 -65 57q-3 5 -7 13l-3 6l-3 5q-6 11 -11 10q-6 0 -9 -13q-2 -4 -4 -13l-1 -8l-2 -8q-4 -22 -10 -35
q-9 -19 -23 -29q-21 -16 -52 -12q-30 3 -42 23q-7 13 -4 33q3 12 12 36q21 54 56 94z" />
    <glyph glyph-name="ograve" unicode="&#xf2;" horiz-adv-x="971" 
d="M554 381q-53 -50 -107 -29q-37 14 -61 58q-24 43 -24 93q-1 82 58 140q27 26 57 35q31 10 59 -3q36 -17 58 -67q21 -48 17 -101q-5 -76 -57 -126zM514 979q-112 -15 -220 -81q-106 -64 -181 -160q-77 -100 -98 -207q-20 -100 11 -206q11 -37 27 -72q6 -13 13 -26
q5 -8 10 -17q72 -121 198 -189q141 -76 289 -50q181 31 294 203q37 56 63 121q8 22 15 43q2 8 4 14l1 5l1 4q43 167 -12 335q-59 180 -199 250q-97 49 -216 33zM603 1073q-6 -21 -33 -31t-55 -3q-17 4 -56 32q-96 70 -142 113q-63 58 -70 77q-10 30 -1 60q9 31 35 44
q25 12 59 4q12 -2 25 -7q4 -2 9 -4l4 -2l2 -1q25 -12 48 -37q16 -16 78 -96q72 -91 83 -108q18 -26 14 -41z" />
    <glyph glyph-name="oacute" unicode="&#xf3;" horiz-adv-x="971" 
d="M554 381q-53 -50 -107 -29q-37 14 -61 58q-24 43 -24 93q-1 82 58 140q27 26 57 35q31 10 59 -3q36 -17 58 -67q21 -48 17 -101q-5 -76 -57 -126zM514 979q-112 -15 -220 -81q-106 -64 -181 -160q-77 -100 -98 -207q-20 -100 11 -206q11 -37 27 -72q6 -13 13 -26
q5 -8 10 -17q72 -121 198 -189q141 -76 289 -50q181 31 294 203q37 56 63 121q8 22 15 43q2 8 4 14l1 5l1 4q43 167 -12 335q-59 180 -199 250q-97 49 -216 33zM378 1114q11 17 83 108q62 80 78 96q23 25 48 37l2 1l4 2q5 2 9 4q13 5 25 7q34 8 59 -4q26 -13 35 -44
q9 -30 -1 -60q-7 -19 -70 -77q-46 -43 -142 -113q-39 -28 -56 -32q-28 -7 -55 3t-33 31q-4 15 14 41z" />
    <glyph glyph-name="ocircumflex" unicode="&#xf4;" horiz-adv-x="971" 
d="M554 381q-53 -50 -107 -29q-37 14 -61 58q-24 43 -24 93q-1 82 58 140q27 26 57 35q31 10 59 -3q36 -17 58 -67q21 -48 17 -101q-5 -76 -57 -126zM514 979q-112 -15 -220 -81q-106 -64 -181 -160q-77 -100 -98 -207q-20 -100 11 -206q11 -37 27 -72q6 -13 13 -26
q5 -8 10 -17q72 -121 198 -189q141 -76 289 -50q181 31 294 203q37 56 63 121q8 22 15 43q2 8 4 14l1 5l1 4q43 167 -12 335q-59 180 -199 250q-97 49 -216 33zM382 1257q57 48 83 63q16 9 27 8q35 -5 73 -46q15 -16 33 -40q7 -10 16 -22l16 -23q31 -46 41 -66q15 -34 7 -59
q-6 -17 -21 -29q-18 -13 -43 -12q-23 1 -46 14t-33 31q-7 13 -3 36q2 12 2 20q-1 13 -6 27q-2 5 -5 12q-4 7 -8 13q-10 15 -18 16t-11 -16q-1 -5 -3 -18l-1 -5v-5q-1 -7 -2 -12q-5 -30 -13 -49q-12 -27 -34 -42q-26 -17 -61 -19q-37 -2 -60 16q-24 20 -25 60q-1 15 2 32
q3 14 7 26q9 27 86 89z" />
    <glyph glyph-name="otilde" unicode="&#xf5;" horiz-adv-x="971" 
d="M554 381q-53 -50 -107 -29q-37 14 -61 58q-24 43 -24 93q-1 82 58 140q27 26 57 35q31 10 59 -3q36 -17 58 -67q21 -48 17 -101q-5 -76 -57 -126zM514 979q-112 -15 -220 -81q-106 -64 -181 -160q-77 -100 -98 -207q-20 -100 11 -206q11 -37 27 -72q6 -13 13 -26
q5 -8 10 -17q72 -121 198 -189q141 -76 289 -50q181 31 294 203q37 56 63 121q8 22 15 43q2 8 4 14l1 5l1 4q43 167 -12 335q-59 180 -199 250q-97 49 -216 33zM360 1227q42 50 76 42q22 -5 51 -36q9 -10 19 -21q3 -4 5 -8q1 -2 2 -3l1 -1v0q2 -2 4 -5l3 -5q3 -4 5 -7
q5 -6 10 -6q8 -1 17 10q3 4 7 11l4 7l4 7q10 19 17 27q11 13 24 15q15 3 33 -10q15 -11 23 -27q20 -36 3 -87t-57 -69q-37 -16 -83 7q-42 20 -65 57q-3 5 -7 13l-3 6l-3 5q-6 11 -11 10q-6 0 -9 -13q-2 -4 -4 -13l-1 -8l-2 -8q-4 -22 -10 -35q-9 -19 -23 -29
q-21 -16 -52 -12q-30 3 -42 23q-7 13 -4 33q3 12 12 36q21 54 56 94z" />
    <glyph glyph-name="odieresis" unicode="&#xf6;" horiz-adv-x="971" 
d="M554 381q-53 -50 -107 -29q-37 14 -61 58q-24 43 -24 93q-1 82 58 140q27 26 57 35q31 10 59 -3q36 -17 58 -67q21 -48 17 -101q-5 -76 -57 -126zM514 979q-112 -15 -220 -81q-106 -64 -181 -160q-77 -100 -98 -207q-20 -100 11 -206q11 -37 27 -72q6 -13 13 -26
q5 -8 10 -17q72 -121 198 -189q141 -76 289 -50q181 31 294 203q37 56 63 121q8 22 15 43q2 8 4 14l1 5l1 4q43 167 -12 335q-59 180 -199 250q-97 49 -216 33zM424 1206q9 -16 8 -37q0 -93 -91 -109q-26 -5 -48 5q-36 14 -43 41q-2 35 4 65q3 20 9 33q24 48 90 48
q23 1 39 -9q22 -13 32 -37zM710 1206q9 -16 8 -37q0 -93 -91 -109q-26 -5 -48 5q-36 14 -43 41q-2 35 4 65q3 20 9 33q24 48 90 48q23 1 39 -9q22 -13 32 -37z" />
    <glyph glyph-name="divide" unicode="&#xf7;" horiz-adv-x="1014" 
d="M905 755q14 -5 23 -15q22 -24 22 -67q0 -42 -22 -67q-16 -19 -48 -22q-16 -2 -70 1q-184 9 -404 -2q-54 -3 -119 -10l-12 -1l-12 -2q-14 -1 -22 -2q-23 -2 -38 -3q-36 -2 -58 2q-25 5 -44 21q-51 40 -52 113q0 33 12 60q12 29 35 44q22 15 73 14q35 -1 135 -13
q71 -9 278 -22l39 -2l39 -3q44 -3 74 -5q80 -5 122 -10q32 -3 49 -9zM654 469q15 -30 14 -68q0 -171 -168 -200q-49 -8 -90 9q-65 27 -78 76q-4 63 6 119q6 36 18 60q44 87 166 88q43 1 72 -17q41 -23 60 -67zM654 1101q15 -30 14 -68q0 -171 -168 -200q-49 -8 -90 9
q-65 27 -78 76q-4 63 6 119q6 36 18 60q44 87 166 88q43 1 72 -17q41 -23 60 -67z" />
    <glyph glyph-name="oslash" unicode="&#xf8;" horiz-adv-x="971" 
d="M514 979q-112 -15 -220 -81q-106 -64 -181 -160q-77 -100 -98 -207q-20 -100 11 -206q11 -37 27 -72q6 -13 13 -26q5 -8 10 -17q31 -52 72 -94q-21 -22 -37 -40q-33 -38 -46 -58q-31 -45 -30 -84q0 -41 30 -74q9 -11 21 -20l8 -6l2 -2l3 -1v-1l1 -1l3 -1q4 -2 9 -5
q16 -7 33 -12q52 -14 95 4q39 17 67 72q9 17 26 58l8 17l7 17l4 8q104 -35 211 -16q181 31 294 203q37 56 63 121q8 22 15 43q2 8 4 14l1 5l1 4q43 167 -12 335q-25 75 -64 131l7 8l11 13q25 31 39 47q36 47 51 78q16 36 12 73l-1 2v3q0 4 -2 9q-3 12 -8 23q-14 33 -41 51
q-41 28 -102 8q-53 -18 -78 -54l-73 -121q-77 24 -166 12zM600 299q-91 -73 -183 -42q-64 20 -105 84q-41 63 -41 135q-2 120 99 204q47 38 98 51q53 15 101 -4q61 -25 99 -98q36 -70 29 -147q-8 -110 -97 -183z" />
    <glyph glyph-name="ugrave" unicode="&#xf9;" horiz-adv-x="1111" 
d="M1044 558q-24 -110 -20 -213q1 -39 6 -82q2 -17 5 -36q2 -12 6 -33q13 -79 11 -109q-3 -50 -38 -87q-79 -83 -238 -75q-65 3 -114 23q-50 19 -61 47q-4 9 -4 22l1 11l1 11q2 26 -7 30t-32 -13l-10 -7l-10 -9q-13 -10 -21 -15q-68 -45 -161 -52q-85 -6 -146 20
q-112 48 -152 240q-14 70 -19 162q-2 34 -3 75q-1 16 -1 34v16v15v26v31q1 39 2 75q5 98 20 176q42 224 162 265q66 23 143 -5q78 -28 107 -85q15 -31 9 -68q-4 -25 -26 -78l-10 -23l-9 -25q-12 -30 -21 -57q-22 -71 -31 -147l-2 -16l-2 -19q-2 -21 -3 -39q-3 -47 0 -84
q8 -100 62 -134q36 -23 88 -18q49 6 86 34q38 29 53 87q12 47 20 165q7 101 9 206q0 17 1 38v18l1 17q0 37 1 56q4 90 39 121q54 48 148 39t143 -65l4 -6q19 -25 27 -57q7 -23 7 -50q7 -222 -21 -353zM672 1073q-6 -21 -33 -31t-55 -3q-17 4 -56 32q-96 70 -142 113
q-63 58 -70 77q-10 30 -1 60q9 31 35 44q25 12 59 4q12 -2 25 -7q4 -2 9 -4l4 -2l2 -1q25 -12 48 -37q16 -16 78 -96q72 -91 83 -108q18 -26 14 -41z" />
    <glyph glyph-name="uacute" unicode="&#xfa;" horiz-adv-x="1111" 
d="M1044 558q-24 -110 -20 -213q1 -39 6 -82q2 -17 5 -36q2 -12 6 -33q13 -79 11 -109q-3 -50 -38 -87q-79 -83 -238 -75q-65 3 -114 23q-50 19 -61 47q-4 9 -4 22l1 11l1 11q2 26 -7 30t-32 -13l-10 -7l-10 -9q-13 -10 -21 -15q-68 -45 -161 -52q-85 -6 -146 20
q-112 48 -152 240q-14 70 -19 162q-2 34 -3 75q-1 16 -1 34v16v15v26v31q1 39 2 75q5 98 20 176q42 224 162 265q66 23 143 -5q78 -28 107 -85q15 -31 9 -68q-4 -25 -26 -78l-10 -23l-9 -25q-12 -30 -21 -57q-22 -71 -31 -147l-2 -16l-2 -19q-2 -21 -3 -39q-3 -47 0 -84
q8 -100 62 -134q36 -23 88 -18q49 6 86 34q38 29 53 87q12 47 20 165q7 101 9 206q0 17 1 38v18l1 17q0 37 1 56q4 90 39 121q54 48 148 39t143 -65l4 -6q19 -25 27 -57q7 -23 7 -50q7 -222 -21 -353zM446 1114q11 17 83 108q62 80 78 96q23 25 48 37l2 1l4 2q5 2 9 4
q13 5 25 7q34 8 59 -4q26 -13 35 -44q9 -30 -1 -60q-7 -19 -70 -77q-46 -43 -142 -113q-39 -28 -56 -32q-28 -7 -55 3t-33 31q-4 15 14 41z" />
    <glyph glyph-name="ucircumflex" unicode="&#xfb;" horiz-adv-x="1111" 
d="M1044 558q-24 -110 -20 -213q1 -39 6 -82q2 -17 5 -36q2 -12 6 -33q13 -79 11 -109q-3 -50 -38 -87q-79 -83 -238 -75q-65 3 -114 23q-50 19 -61 47q-4 9 -4 22l1 11l1 11q2 26 -7 30t-32 -13l-10 -7l-10 -9q-13 -10 -21 -15q-68 -45 -161 -52q-85 -6 -146 20
q-112 48 -152 240q-14 70 -19 162q-2 34 -3 75q-1 16 -1 34v16v15v26v31q1 39 2 75q5 98 20 176q42 224 162 265q66 23 143 -5q78 -28 107 -85q15 -31 9 -68q-4 -25 -26 -78l-10 -23l-9 -25q-12 -30 -21 -57q-22 -71 -31 -147l-2 -16l-2 -19q-2 -21 -3 -39q-3 -47 0 -84
q8 -100 62 -134q36 -23 88 -18q49 6 86 34q38 29 53 87q12 47 20 165q7 101 9 206q0 17 1 38v18l1 17q0 37 1 56q4 90 39 121q54 48 148 39t143 -65l4 -6q19 -25 27 -57q7 -23 7 -50q7 -222 -21 -353zM450 1257q57 48 83 63q16 9 27 8q35 -5 73 -46q15 -16 33 -40
q7 -10 16 -22l16 -23q31 -46 41 -66q15 -34 7 -59q-6 -17 -21 -29q-18 -13 -43 -12q-23 1 -46 14t-33 31q-7 13 -3 36q2 12 2 20q-1 13 -6 27q-2 5 -5 12q-4 7 -8 13q-10 15 -18 16t-11 -16q-1 -5 -3 -18l-1 -5v-5q-1 -7 -2 -12q-5 -30 -13 -49q-12 -27 -34 -42
q-26 -17 -61 -19q-37 -2 -60 16q-24 20 -25 60q-1 15 2 32q3 14 7 26q9 27 86 89z" />
    <glyph glyph-name="udieresis" unicode="&#xfc;" horiz-adv-x="1111" 
d="M1044 558q-24 -110 -20 -213q1 -39 6 -82q2 -17 5 -36q2 -12 6 -33q13 -79 11 -109q-3 -50 -38 -87q-79 -83 -238 -75q-65 3 -114 23q-50 19 -61 47q-4 9 -4 22l1 11l1 11q2 26 -7 30t-32 -13l-10 -7l-10 -9q-13 -10 -21 -15q-68 -45 -161 -52q-85 -6 -146 20
q-112 48 -152 240q-14 70 -19 162q-2 34 -3 75q-1 16 -1 34v16v15v26v31q1 39 2 75q5 98 20 176q42 224 162 265q66 23 143 -5q78 -28 107 -85q15 -31 9 -68q-4 -25 -26 -78l-10 -23l-9 -25q-12 -30 -21 -57q-22 -71 -31 -147l-2 -16l-2 -19q-2 -21 -3 -39q-3 -47 0 -84
q8 -100 62 -134q36 -23 88 -18q49 6 86 34q38 29 53 87q12 47 20 165q7 101 9 206q0 17 1 38v18l1 17q0 37 1 56q4 90 39 121q54 48 148 39t143 -65l4 -6q19 -25 27 -57q7 -23 7 -50q7 -222 -21 -353zM492 1206q9 -16 8 -37q0 -93 -91 -109q-26 -5 -48 5q-36 14 -43 41
q-2 35 4 65q3 20 9 33q24 48 90 48q23 1 39 -9q22 -13 32 -37zM778 1206q9 -16 8 -37q0 -93 -91 -109q-26 -5 -48 5q-36 14 -43 41q-2 35 4 65q3 20 9 33q24 48 90 48q23 1 39 -9q22 -13 32 -37z" />
    <glyph glyph-name="yacute" unicode="&#xfd;" horiz-adv-x="1020" 
d="M127 -156q6 3 17 8l10 5l11 6q28 14 54 31l13 8l13 8q15 10 28 19q33 22 56 43q63 54 74 108q8 42 -15 90q-9 18 -23 40l-13 18l-13 18q-189 255 -250 366q-99 183 -63 291q15 44 53 80q12 12 27 22q6 4 11 7l4 2l4 2q63 36 143 30t126 -50q34 -33 35 -103l1 -35v-41
q2 -53 11 -105q21 -119 73 -222q47 -95 73 -90q12 3 14 67v17l1 19q0 27 1 45q1 60 5 116q13 188 27 250q20 91 72 123q45 28 108 26q62 -2 110 -30l2 -2l4 -2q4 -2 7 -5q11 -7 20 -16q25 -23 35 -52q12 -37 -1 -81q-5 -16 -13 -32l-6 -12l-3 -5l-2 -4q-9 -16 -20 -79
q-9 -49 -31 -130q-29 -112 -82 -282q-121 -387 -171 -454l-2 -2l-2 -2q-2 -4 -5 -7q-8 -10 -17 -20q-25 -29 -55 -56q-89 -84 -197 -136q-74 -35 -110 -44q-57 -15 -100 4q-55 23 -83 84q-27 60 -7 106q10 23 41 40zM402 1114q11 17 83 108q62 80 78 96q23 25 48 37l2 1l4 2
q5 2 9 4q13 5 25 7q34 8 59 -4q26 -13 35 -44q9 -30 -1 -60q-7 -19 -70 -77q-46 -43 -142 -113q-39 -28 -56 -32q-28 -7 -55 3t-33 31q-4 15 14 41z" />
    <glyph glyph-name="thorn" unicode="&#xfe;" horiz-adv-x="1203" 
d="M487 315q-55 1 -73 21q-9 10 -2 32l2 6l2 6q2 9 4 15q5 19 8 38q3 23 2 45l-1 9v10q-1 13 -1 26q3 71 9 98q11 44 40 58q49 24 138 -6q92 -32 129 -91q44 -70 -11 -151q-53 -75 -147 -103q-48 -14 -99 -13zM750 999q-149 21 -239 -41q-13 -9 -28 -23l-12 -11l-10 -10
q-22 -22 -33 -18q-12 5 -14 33q-1 20 3 77l1 13l1 13l1 28q3 34 4 63q2 80 -2 154q-4 69 -14 101q-8 30 -29 47q-46 37 -126 29t-130 -53q-49 -45 -46 -141q2 -36 11 -108l4 -32l5 -34q5 -43 9 -76q53 -466 9 -698q-13 -67 -37 -150l-10 -31l-9 -30q-10 -34 -15 -55
q-29 -113 15 -188l1 -2l1 -2q2 -2 4 -5q5 -8 11 -16q17 -23 37 -42q63 -60 138 -73h5l5 -1l14 -2q17 -2 33 -1q44 2 71 24q25 21 31 65q5 38 -1 143q-2 30 -4 63q-1 23 -4 53q-4 64 -5 79q-3 60 9 64q9 3 25 -22q5 -7 16 -26l9 -16l10 -17q26 -42 52 -68q35 -35 75 -47
q93 -27 219 54q111 71 186 182q102 148 113 328q12 205 -117 321q-94 85 -243 105z" />
    <glyph glyph-name="ydieresis" unicode="&#xff;" horiz-adv-x="1020" 
d="M127 -156q6 3 17 8l10 5l11 6q28 14 54 31l13 8l13 8q15 10 28 19q33 22 56 43q63 54 74 108q8 42 -15 90q-9 18 -23 40l-13 18l-13 18q-189 255 -250 366q-99 183 -63 291q15 44 53 80q12 12 27 22q6 4 11 7l4 2l4 2q63 36 143 30t126 -50q34 -33 35 -103l1 -35v-41
q2 -53 11 -105q21 -119 73 -222q47 -95 73 -90q12 3 14 67v17l1 19q0 27 1 45q1 60 5 116q13 188 27 250q20 91 72 123q45 28 108 26q62 -2 110 -30l2 -2l4 -2q4 -2 7 -5q11 -7 20 -16q25 -23 35 -52q12 -37 -1 -81q-5 -16 -13 -32l-6 -12l-3 -5l-2 -4q-9 -16 -20 -79
q-9 -49 -31 -130q-29 -112 -82 -282q-121 -387 -171 -454l-2 -2l-2 -2q-2 -4 -5 -7q-8 -10 -17 -20q-25 -29 -55 -56q-89 -84 -197 -136q-74 -35 -110 -44q-57 -15 -100 4q-55 23 -83 84q-27 60 -7 106q10 23 41 40zM448 1206q9 -16 8 -37q0 -93 -91 -109q-26 -5 -48 5
q-36 14 -43 41q-2 35 4 65q3 20 9 33q24 48 90 48q23 1 39 -9q22 -13 32 -37zM734 1206q9 -16 8 -37q0 -93 -91 -109q-26 -5 -48 5q-36 14 -43 41q-2 35 4 65q3 20 9 33q24 48 90 48q23 1 39 -9q22 -13 32 -37z" />
    <glyph glyph-name="dotlessi" unicode="&#x131;" horiz-adv-x="472" 
d="M431 207q2 41 -2 86q-1 17 -3 34l-2 13l-1 6l-1 5q-19 134 -16 261q2 47 6 99q2 19 4 42l2 20l2 18q8 84 2 116q-8 46 -48 72q-64 41 -158 27q-92 -12 -138 -65q-28 -33 -21 -98q2 -12 5 -37l3 -21l3 -23q8 -62 10 -121q3 -58 -13 -373q-9 -161 -7 -193q4 -56 34 -84
q39 -36 102 -46q66 -10 117 14q22 11 40 28q7 6 13 14l10 12q52 75 57 194z" />
    <glyph glyph-name="circumflex" unicode="&#x2c6;" horiz-adv-x="1024" 
d="M420 1257q57 48 83 63q16 9 27 8q35 -5 73 -46q15 -16 33 -40q7 -10 16 -22l16 -23q31 -46 41 -66q15 -34 7 -59q-6 -17 -21 -29q-18 -13 -43 -12q-23 1 -46 14t-33 31q-7 13 -3 36q2 12 2 20q-1 13 -6 27q-2 5 -5 12q-4 7 -8 13q-10 15 -18 16t-11 -16q-1 -5 -3 -18
l-1 -5v-5q-1 -7 -2 -12q-5 -30 -13 -49q-12 -27 -34 -42q-26 -17 -61 -19q-37 -2 -60 16q-24 20 -25 60q-1 15 2 32q3 14 7 26q9 27 86 89z" />
    <glyph glyph-name="caron" unicode="&#x2c7;" horiz-adv-x="1024" 
d="M334 1191q-4 11 -7 25q-3 17 -2 33q1 40 25 60q23 18 60 16q35 -2 61 -20q22 -14 34 -41q8 -20 13 -49q1 -5 2 -12v-5l1 -6l3 -18q3 -16 11 -15t18 16q4 6 8 13q3 6 5 12q5 14 6 26q0 8 -2 21q-4 23 3 36q10 18 33 31t46 14q25 1 43 -13q15 -11 21 -29q8 -24 -7 -58
q-10 -21 -41 -66l-16 -23q-9 -12 -16 -22q-18 -24 -33 -41q-38 -40 -73 -45q-11 -1 -27 8q-26 15 -83 62q-77 63 -86 90z" />
    <glyph glyph-name="uni02C9" unicode="&#x2c9;" horiz-adv-x="1024" 
d="M773 1159q9 -3 14 -10q14 -16 14 -43q0 -28 -14 -45q-10 -12 -29 -14q-11 -1 -44 0q-114 7 -251 -1q-34 -2 -74 -6l-8 -1h-7q-9 -2 -14 -2q-14 -2 -23 -2q-23 -2 -36 1q-16 3 -28 14q-31 26 -32 74q0 21 7 39q8 19 22 29t46 9q21 -1 83 -8q45 -6 173 -15l25 -2l24 -1
q27 -2 46 -3q49 -4 75 -7q21 -2 31 -6z" />
    <glyph glyph-name="breve" unicode="&#x2d8;" horiz-adv-x="1024" 
d="M416 1224q34 -2 48 -18q9 -10 3 -34q-4 -13 -4 -19q0 -11 7 -20q11 -17 36 -25t39 -1q11 6 11 21q0 6 -2 15l-1 9l-2 8q-4 22 -3 34q2 18 14 28q18 14 52 12q33 -3 55 -19q30 -22 25 -66q-4 -40 -31 -71q-34 -40 -100 -52q-60 -11 -116 6q-4 1 -9 3l-12 4q-16 7 -29 15
q-38 23 -53 56q-1 1 -1 2l-2 4q-2 4 -3 9q-5 14 -6 27q-3 39 25 57q23 16 59 15z" />
    <glyph glyph-name="dotaccent" unicode="&#x2d9;" horiz-adv-x="508" 
d="M354 1161q8 -16 8 -36q0 -90 -89 -105q-25 -4 -47 5q-34 14 -41 40q-2 33 3 62q4 19 10 32q23 45 87 46q23 0 38 -9q21 -12 31 -35z" />
    <glyph glyph-name="ring" unicode="&#x2da;" horiz-adv-x="1024" 
d="M411 1257q0 -42 29 -71t71 -29t71 29t29 71q0 40 -29.5 69.5t-70.5 29.5t-70.5 -29.5t-29.5 -69.5zM335 1257q0 75 51 126t125 51q76 0 127.5 -51.5t51.5 -125.5q0 -75 -51.5 -126.5t-127.5 -51.5q-74 0 -125 51.5t-51 126.5z" />
    <glyph glyph-name="ogonek" unicode="&#x2db;" horiz-adv-x="1024" 
d="M371 -104l-1 -2q-2 -2 -3 -5q-4 -6 -8 -13q-10 -21 -16 -42q-16 -65 18 -117q30 -46 90 -68q19 -7 40 -11l14 -2q2 0 4 -1h2h1h2h3l6 -1h14q19 0 35 2q45 7 62 34q15 24 7 55t-31 45q-13 8 -31 9h-15l-8 -1h-7q-20 -3 -29 -2q-15 2 -24 10q-12 11 -14 32q-1 19 8 36
q6 14 20 25q8 6 25 15l6 3l6 3q6 4 10 7q11 8 13 18q3 17 -13 36q-15 18 -36 24q-37 11 -84 -21q-39 -27 -65 -67z" />
    <glyph glyph-name="tilde" unicode="&#x2dc;" horiz-adv-x="1024" 
d="M352 1227q42 50 76 42q22 -5 51 -36q9 -10 19 -21q3 -4 5 -8q1 -2 2 -3l1 -1v0q2 -2 4 -5l3 -5q3 -4 5 -7q5 -6 10 -6q8 -1 17 10q3 4 7 11l4 7l4 7q10 19 17 27q11 13 24 15q15 3 33 -10q15 -11 23 -27q20 -36 3 -87t-57 -69q-37 -16 -83 7q-42 20 -65 57q-3 5 -7 13
l-3 6l-3 5q-6 11 -11 10q-6 0 -9 -13q-2 -4 -4 -13l-1 -8l-2 -8q-4 -22 -10 -35q-9 -19 -23 -29q-21 -16 -52 -12q-30 3 -42 23q-7 13 -4 33q3 12 12 36q21 54 56 94z" />
    <glyph glyph-name="hungarumlaut" unicode="&#x2dd;" horiz-adv-x="1024" 
d="M180 1114q11 17 83 108q62 80 78 96q23 25 48 37l2 1l4 2q5 2 9 4q13 5 25 7q34 8 59 -4q26 -13 35 -44q9 -30 -1 -60q-7 -19 -70 -77q-46 -43 -142 -113q-39 -28 -56 -32q-28 -7 -55 3t-33 31q-4 15 14 41zM542 1114q11 17 83 108q62 80 78 96q23 25 48 37l2 1l4 2
q5 2 9 4q13 5 25 7q34 8 59 -4q26 -13 35 -44q9 -30 -1 -60q-7 -19 -70 -77q-46 -43 -142 -113q-39 -28 -56 -32q-28 -7 -55 3t-33 31q-4 15 14 41z" />
    <glyph glyph-name="endash" unicode="&#x2013;" horiz-adv-x="1108" 
d="M1004 533q16 -6 26 -16q25 -25 25 -69t-25 -70q-18 -19 -54 -23q-19 -2 -80 1q-208 11 -458 -2q-61 -3 -135 -10l-14 -1l-13 -1q-16 -2 -25 -3q-26 -2 -43 -3q-41 -2 -66 2q-28 5 -51 22q-56 41 -58 117q0 34 13 62q14 29 40 45q25 16 83 15q40 -1 153 -13q81 -9 315 -23
l45 -3l44 -2q50 -3 84 -5q90 -6 138 -11q37 -3 56 -9z" />
    <glyph glyph-name="emdash" unicode="&#x2014;" horiz-adv-x="2048" 
d="M1863 533q30 -6 49 -16q47 -25 48 -69q0 -44 -47 -70q-35 -19 -102 -23q-36 -2 -152 1q-392 11 -863 -2q-115 -3 -255 -10l-26 -1l-25 -1q-30 -2 -46 -3q-50 -2 -81 -3q-78 -2 -125 2q-53 5 -95 22q-107 41 -110 117q-1 34 24 62q27 29 76 45q47 16 156 15q75 -1 289 -13
q152 -9 594 -23l84 -3l83 -2q94 -3 159 -5q170 -6 260 -11q70 -3 105 -9z" />
    <glyph glyph-name="quoteleft" unicode="&#x2018;" horiz-adv-x="557" 
d="M146 1211q2 122 43 161q41 40 145 16q20 -4 21 -20t-15 -21q-89 -3 -79 -90l23 26q35 20 91 2q27 -13 37 -47q3 -45 -5 -84q-5 -25 -14 -42q-34 -61 -130 -62q-33 -1 -56 12q-32 16 -47 47q-8 14 -14 102z" />
    <glyph glyph-name="quoteright" unicode="&#x2019;" horiz-adv-x="557" 
d="M418 1275q-3 -123 -43 -161q-42 -40 -146 -17q-19 5 -20.5 21t15.5 21q89 3 79 89l-24 -25q-34 -20 -91 -2q-26 13 -36 47q-3 44 4 84q5 25 15 42q34 61 129 62q34 1 57 -12q32 -16 47 -47q7 -14 14 -102z" />
    <glyph glyph-name="quotesinglbase" unicode="&#x201a;" horiz-adv-x="557" 
d="M463 85q-3 -161 -56 -212q-55 -51 -191 -21q-26 6 -27.5 27t20.5 28q117 3 103 117l-30 -33q-46 -27 -120 -3q-35 17 -48 62q-4 58 6 110q6 33 19 56q45 80 170 81q44 1 74 -16q42 -21 62 -62q10 -18 18 -134z" />
    <glyph glyph-name="quotedblleft" unicode="&#x201c;" horiz-adv-x="930" 
d="M146 1211q2 122 43 161q41 40 145 16q20 -4 21 -20t-15 -21q-89 -3 -79 -90l23 26q35 20 91 2q27 -13 37 -47q3 -45 -5 -84q-5 -25 -14 -42q-34 -61 -130 -62q-33 -1 -56 12q-32 16 -47 47q-8 14 -14 102zM519 1211q2 122 43 161q41 40 145 16q20 -4 21 -20t-15 -21
q-89 -3 -79 -90l23 26q35 20 91 2q27 -13 37 -47q3 -45 -5 -84q-5 -25 -14 -42q-34 -61 -130 -62q-33 -1 -56 12q-32 16 -47 47q-8 14 -14 102z" />
    <glyph glyph-name="quotedblright" unicode="&#x201d;" horiz-adv-x="930" 
d="M418 1275q-3 -123 -43 -161q-42 -40 -146 -17q-19 5 -20.5 21t15.5 21q89 3 79 89l-24 -25q-34 -20 -91 -2q-26 13 -36 47q-3 44 4 84q5 25 15 42q34 61 129 62q34 1 57 -12q32 -16 47 -47q7 -14 14 -102zM791 1275q-3 -123 -43 -161q-42 -40 -146 -17q-19 5 -20.5 21
t15.5 21q89 3 79 89l-24 -25q-34 -20 -91 -2q-26 13 -36 47q-3 44 4 84q5 25 15 42q34 61 129 62q34 1 57 -12q32 -16 47 -47q7 -14 14 -102z" />
    <glyph glyph-name="quotedblbase" unicode="&#x201e;" horiz-adv-x="910" 
d="M418 -21q-3 -123 -43 -161q-42 -40 -146 -17q-19 5 -20.5 21t15.5 21q89 3 79 89l-24 -25q-34 -20 -91 -2q-26 13 -36 47q-3 44 4 84q5 25 15 42q34 61 129 62q34 1 57 -12q32 -16 47 -47q7 -14 14 -102zM791 -21q-3 -123 -43 -161q-42 -40 -146 -17q-19 5 -20.5 21
t15.5 21q89 3 79 89l-24 -25q-34 -20 -91 -2q-26 13 -36 47q-3 44 4 84q5 25 15 42q34 61 129 62q34 1 57 -12q32 -16 47 -47q7 -14 14 -102z" />
    <glyph glyph-name="dagger" unicode="&#x2020;" horiz-adv-x="1014" 
d="M838 886q54 -3 70 -1q32 3 48 22q22 25 22 67q0 43 -22 67q-9 10 -23 15q-17 6 -49 9q-42 5 -122 10q-30 2 -74 5l-39 3h-5q0 8 1 15q5 90 0 140q-7 61 -32 105l-2 3l-2 3q-4 6 -7 11q-10 14 -20 25q-33 32 -68 35q-54 4 -97 -67q-39 -64 -39 -129q-1 -63 -1 -122l-45 5
q-100 12 -135 13q-51 1 -73 -14q-23 -15 -35 -44q-12 -27 -12 -60q1 -73 52 -113q19 -16 44 -21q22 -4 58 -2q15 1 38 3q8 1 22 2l12 2l12 1q31 3 59 6q-7 -645 -16 -722q-18 -148 -19 -205q-2 -83 22 -134q25 -51 70 -73q15 -7 31 -10q6 -2 12 -2l3 -1h8q6 1 12 1
q19 2 37 9q55 21 82 77q26 52 20 145q-3 29 -10 96l-3 27l-4 29q-4 33 -6 63q-11 115 -1 446q4 125 15 264q111 1 211 -4z" />
    <glyph glyph-name="daggerdbl" unicode="&#x2021;" horiz-adv-x="1014" 
d="M323 968q-100 12 -135 13q-51 1 -73 -14q-23 -15 -35 -44q-12 -27 -12 -60q1 -73 52 -113q19 -16 44 -21q22 -4 58 -2q15 1 38 3q8 1 22 2l12 2l12 1q35 4 67 6q-3 -208 -6 -343l-45 5q-100 12 -135 13q-51 1 -73 -14q-23 -15 -35 -44q-12 -27 -12 -60q1 -73 52 -113
q19 -16 44 -21q22 -4 58 -2q15 1 38 3q8 1 22 2l12 2l12 1q28 3 55 5q-1 -10 -2 -17q-18 -148 -19 -205q-2 -83 22 -134q25 -51 70 -73q15 -7 31 -10q6 -2 12 -2l3 -1h8q6 1 12 1q19 2 37 9q55 21 82 77q26 52 20 145q-3 29 -10 96l-3 27l-4 29q-4 33 -6 63q0 3 -1 6
q114 1 216 -4q54 -3 70 -1q32 3 48 22q22 25 22 67q0 43 -22 67q-9 10 -23 15q-17 6 -49 9q-42 5 -122 10q-30 2 -74 5l-39 3l-32 2q1 102 5 245q2 61 5 125q112 1 212 -4q54 -3 70 -1q32 3 48 22q22 25 22 67q0 43 -22 67q-9 10 -23 15q-17 6 -49 9q-42 5 -122 10
q-30 2 -74 5l-39 3h-9q1 7 1 13l3 26l2 25q5 59 8 90q5 90 0 140q-7 61 -32 105l-2 3l-2 3q-4 6 -7 11q-10 14 -20 25q-33 32 -68 35q-54 4 -97 -67q-39 -64 -39 -129q-1 -140 -3 -262q-31 3 -52 6z" />
    <glyph glyph-name="bullet" unicode="&#x2022;" horiz-adv-x="1024" 
d="M216 718q0 123 87 209t210 86q122 0 208.5 -86.5t86.5 -208.5t-87.5 -209.5t-209.5 -87.5q-123 0 -209 87t-86 210z" />
    <glyph glyph-name="ellipsis" unicode="&#x2026;" horiz-adv-x="2048" 
d="M338 308q15 -30 14 -68q0 -171 -168 -200q-49 -8 -90 9q-65 27 -78 76q-4 63 6 119q6 36 18 60q44 87 166 88q43 1 72 -17q41 -23 60 -67zM1021 308q15 -30 14 -68q0 -171 -168 -200q-49 -8 -90 9q-65 27 -78 76q-4 63 6 119q6 36 18 60q44 87 166 88q43 1 72 -17
q41 -23 60 -67zM1704 308q15 -30 14 -68q0 -171 -168 -200q-49 -8 -90 9q-65 27 -78 76q-4 63 6 119q6 36 18 60q44 87 166 88q43 1 72 -17q41 -23 60 -67z" />
    <glyph glyph-name="guilsinglleft" unicode="&#x2039;" horiz-adv-x="631" 
d="M174 479l342 303h14v-37l-205 -266l205 -266v-37h-14z" />
    <glyph glyph-name="guilsinglright" unicode="&#x203a;" horiz-adv-x="631" 
d="M115 176h-14v37l205 266l-205 266v37h14l342 -303z" />
    <glyph glyph-name="fraction" unicode="&#x2044;" horiz-adv-x="975" 
d="M742 911q13 21 28 47l14 22l13 22q30 50 46 76q44 77 61 128q20 60 15 120l-1 3v6q-1 6 -3 14q-3 20 -9 38q-17 54 -49 84q-50 45 -122 13q-64 -29 -93 -88q-426 -879 -479 -957q-81 -121 -106 -172q-38 -75 -37 -139q1 -66 36 -121q11 -18 25 -33l10 -10l3 -3l3 -2v-1
l1 -1l4 -2q5 -4 11 -8q19 -12 39 -20q62 -23 113 7q47 28 81 117q10 29 31 96l9 27l9 29q11 34 21 62q40 113 192 407q60 116 134 239z" />
    <glyph glyph-name="fraction" unicode="&#x2215;" horiz-adv-x="975" 
d="M742 911q13 21 28 47l14 22l13 22q30 50 46 76q44 77 61 128q20 60 15 120l-1 3v6q-1 6 -3 14q-3 20 -9 38q-17 54 -49 84q-50 45 -122 13q-64 -29 -93 -88q-426 -879 -479 -957q-81 -121 -106 -172q-38 -75 -37 -139q1 -66 36 -121q11 -18 25 -33l10 -10l3 -3l3 -2v-1
l1 -1l4 -2q5 -4 11 -8q19 -12 39 -20q62 -23 113 7q47 28 81 117q10 29 31 96l9 27l9 29q11 34 21 62q40 113 192 407q60 116 134 239z" />
    <glyph glyph-name="franc" unicode="&#x20a3;" 
d="M128 457q-53 1 -76 -14q-24 -16 -37 -45q-12 -28 -12 -61q1 -74 53 -114q21 -16 47 -22q23 -5 61 -2h4v-24q3 -125 52 -175q33 -34 91 -37q21 -1 59 2l16 1l18 1q21 1 37 2q41 2 70 28q46 41 38 100q-5 35 -9 92l-2 34q138 2 260 -4q56 -3 74 -1q33 4 50 22q23 26 23 69
t-23 68q-10 9 -24 15q-17 6 -52 9q-44 5 -127 11q-32 2 -77 5l-41 2l-41 2q-13 1 -25 2q4 56 16 69l1 2l2 2q3 2 6 5q9 6 23 11q39 14 113 19q44 3 84 1q14 0 31 -1l13 -1l11 -1q45 -3 64 14q43 37 44 122q2 86 -40 126q-20 18 -61 20q-28 2 -108 -5q-36 -3 -71 -9l-13 -2
l-12 -2q-15 -2 -21 -3q-35 -6 -52 8q-34 28 -37 95t26 118l4 6q2 4 5 8q7 9 15 18q23 23 56 38q47 22 100 19q34 -3 88 -20l20 -7l19 -6q22 -6 37 -8q40 -5 67 14q45 33 57 112t-19 133q-20 34 -77 46q-1 0 -213 28q-165 22 -269 -14q-41 -14 -78 -38q-14 -10 -30 -23
q-10 -8 -26 -22q-28 -24 -46 -59q-8 -14 -15 -31q-5 -12 -12 -31q-57 -160 -69 -511q-4 -96 -4 -208q-23 2 -36 2z" />
    <glyph glyph-name="lira" unicode="&#x20a4;" horiz-adv-x="1245" 
d="M318 835q1 19 -7 65l-4 19l-3 21q-4 24 -5 44q-4 53 5 99q22 109 110 198q88 88 202 119q118 32 238 2q128 -32 169 -118q21 -44 17 -98q-3 -59 -39 -94q-21 -21 -50 -31q-33 -12 -61 -3q-27 8 -50 47l-9 14q-5 9 -10 15q-12 15 -29 22q-37 16 -87 0q-49 -15 -76 -51
q-20 -27 -17 -82l1 -14l1 -16q1 -19 1 -37q0 -49 -7 -104q-8 -58 0 -68q13 -18 47 -16q13 1 34 5l18 4l19 4q51 12 78 12q43 2 69 -18q49 -36 50 -124q0 -88 -46 -120q-23 -15 -59 -10q-14 2 -33 8l-34 12q-45 17 -66 20q-34 5 -56 -12q-20 -17 -26 -74q-1 -16 -2 -26
q-2 -16 -6 -30q-8 -36 -26 -72q-11 -22 -26 -43q-6 -8 -12 -17l-6 -8l-5 -6q-21 -27 -17 -34q7 -9 70 19l15 6l17 7q19 8 36 15q45 17 86 27l16 4l18 4q20 5 38 9q46 9 85 11q106 5 177 -41q88 -55 125 -170q15 -48 14 -87q-1 -40 -19 -55q-14 -12 -41 -4q-13 3 -61 25
q-23 10 -40 17q-24 9 -46 16q-57 17 -116 19q-55 1 -111 -14q-15 -5 -58 -19q-20 -6 -34 -11q-21 -6 -41 -12l-7 -2l-9 -3l-24 -6q-33 -9 -65 -17q-94 -23 -171 -35q-235 -35 -280 37q-27 43 8 130q13 31 32 67q8 13 16 27l7 11l3 5l3 4q18 31 43 60q8 10 21 24l19 22
q44 52 62 108l1 4l2 6l4 16q6 24 8 45q7 63 -19 83q-22 17 -84 -7q-32 -13 -49 -16q-27 -4 -47 6q-49 27 -55 115q-7 89 38 121q20 14 50 9q19 -3 57 -17q77 -29 103 -10q17 14 18 43z" />
    <glyph glyph-name="peseta" unicode="&#x20a7;" horiz-adv-x="2067" 
d="M370 927q-6 -7 7 -38q4 -10 6 -17q4 -11 7 -22q7 -26 11 -56q1 -13 2 -34v-15q1 -7 1 -13q3 -27 15 -32q8 -4 19 0q5 1 10 4l5 3l4 2q30 17 50 49q23 36 20 71q-5 58 -72 91q-27 12 -52 14q-24 3 -33 -7zM750 1001q35 -91 25 -194q-12 -125 -93 -219q-5 -6 -33 -28
q-30 -22 -64 -45q-91 -62 -126 -71q-5 -101 23 -191q31 -104 34 -119q7 -30 1 -48q-18 -51 -88 -75q-71 -25 -127 7q-81 45 -113 226q-13 69 -19 163q-3 37 -4 82l-2 39l-2 37q0 18 -1 37v14v15q0 34 -2 70q-6 75 -16 139l-10 50q-2 10 -4 21l-3 10l-2 9q-17 75 -5 109
q30 88 164 117q120 26 242 -4l14 -3l15 -4q17 -5 31 -9q36 -12 64 -27q75 -39 101 -108zM1208 250q37 -17 60 -62q24 -45 15 -85q-10 -54 -79 -80q-59 -22 -122 -16q-68 6 -130 54q-21 17 -40 37q-7 7 -14 16q-2 3 -5 6q-1 2 -4 4q-53 71 -62 189q-2 44 -4 151v23v25
q0 28 -1 52q0 63 -2 121q-19 -5 -41 -13l-18 -7l-16 -5q-33 -12 -61 -2q-18 7 -34 21l-11 11l-3 5l-3 3q-30 42 -25 97t39 79q17 12 63 13q28 0 56 -4q18 -3 45 -11q-10 154 -10 171q3 47 36 80q52 52 129 54q78 2 120 -48q23 -29 26 -89q4 -60 -9 -190h72q66 4 76 -3
q34 -20 36 -83t-34 -93q-15 -12 -49 -13q-23 -1 -92 4q-16 1 -31 3q-9 -92 -9 -183q0 -107 11 -159q11 -47 37 -63q14 -9 40 -5l11 1q5 1 10 0q14 -1 27 -6zM1138 902q58 48 143 79q194 69 369 12q93 -31 164 -92t59 -97q-10 -30 -89 -40q-27 -4 -58 -5h-21h-12q-43 1 -87 9
q-16 4 -35 9l-15 4l-15 4q-65 17 -98 -2q-32 -19 -48 -55q-15 -37 -3 -60q10 -20 47 -26q27 -5 108 -7q42 0 88 -1h37l17 -1h15q70 -1 95 -2q60 -3 88 -23q53 -37 70 -122q5 -29 7 -61v-22l-1 -8v-4v-2q-6 -121 -101 -222q-31 -34 -70 -63q-14 -10 -28 -19q-4 -3 -9 -6
l-4 -2l-3 -2q-114 -67 -248 -70q-145 -3 -236 75q-60 51 -90 125q-31 76 -2 114q21 28 76 31q51 3 97 -17q31 -14 56 -39q10 -9 21 -21l8 -12l8 -11q40 -55 79 -59q34 -6 69 13q30 16 51 43q32 40 31 96q-1 53 -31 80q-22 21 -74 13l-13 -2l-13 -1q-16 -4 -31 -5
q-38 -4 -76 -2h-9l-11 1q-14 2 -27 3q-37 5 -70 13q-95 26 -158 88l-4 4l-4 4q-5 6 -11 12q-14 16 -26 34q-34 53 -44 112l-1 1v3q-1 4 -1 7q-2 13 -2 25q-3 37 4 64q12 55 72 105z" />
    <glyph glyph-name="Euro" unicode="&#x20ac;" horiz-adv-x="1224" 
d="M934 330l-17 -6l-17 -5q-20 -6 -35 -9q-40 -8 -69 -3q-56 9 -112 31q-7 2 -8 3q-54 25 -78 112h107q20 1 45 1h21h18q42 0 62 2q52 3 76 19q21 15 26 36q6 23 -12 39q-26 24 -120 21l-22 -1l-25 -1q-32 -2 -56 -2q-71 -2 -138 3q-1 18 -1 36v15v6v5v13q54 0 107 1h46h20
h19q41 1 62 2q52 3 75 19q22 15 27 37t-13 38q-26 24 -111 21l-21 -1l-23 -1q-31 -1 -51 -2q-66 -2 -126 2q8 33 24 60q10 16 23 32l8 8l12 12q19 17 38 30q59 40 115 43q33 1 64 -12q12 -5 26 -14l12 -7l11 -8q59 -41 104 -32q65 11 97 69q24 43 14 103q-8 54 -36 92
q-44 59 -148 80q-100 20 -220 -1q-125 -22 -227 -82q-113 -66 -169 -164q-44 -78 -52 -184q-79 1 -134 -13q-24 -6 -39 -15q-21 -11 -28 -27q-8 -18 0 -40q7 -21 24 -33q21 -15 55 -15q12 0 27 1l10 2l5 1l4 1q29 5 76 5v-18l1 -20l1 -21q-67 -1 -117 -13q-24 -7 -40 -15
q-20 -11 -27 -27q-8 -19 -1 -40q8 -21 25 -34q21 -15 55 -15q12 0 26 2l11 2l5 1h4q28 5 74 6q5 -28 12 -55q9 -35 22 -67q34 -84 92 -146q130 -139 338 -163q91 -11 165 9q77 21 115 70q39 52 38 129q-2 75 -38 99q-29 19 -113 -7z" />
    <glyph glyph-name="uni2116" unicode="&#x2116;" horiz-adv-x="1999" 
d="M104 176q5 -23 10 -38q6 -22 15 -39q21 -43 59 -59q59 -26 145 8t131 99q29 43 27 110q-1 21 -6 87q-3 35 -4 59q-3 37 -5 72l-1 21l-1 23l-1 48q-2 57 -2 97q1 107 18 110q27 4 86 -136q67 -155 95 -328q2 -15 6 -37l2 -17l2 -17q6 -38 12 -59q15 -57 56 -84
q51 -33 131 -30q79 4 137 42q34 23 49 57q14 32 19 94q2 25 4 68q0 14 1 41l1 22l1 24q5 129 14 241l1 3v3q0 5 1 10q1 14 2 30q3 47 5 100q7 161 4 323q-2 106 -12 148q-13 56 -52 78q-50 28 -128 10t-122 -67q-34 -37 -34 -112q0 -25 3 -104q2 -43 3 -73q1 -45 2 -89
q2 -116 -3 -164q-2 -19 -5 -27q-2 -6 -5 -7q-5 0 -12 48l-1 12l-2 12q-2 16 -4 29q-5 35 -13 67q-19 85 -53 155q-45 89 -114 152q-80 72 -179 110q-111 41 -180 8q-43 -20 -62 -77q-15 -43 -34 -171q-83 -549 -7 -886zM1644.62 1072.59q-34.9785 -29.999 -70.6172 -17.3994
q-24.4189 8.39941 -40.2578 34.7988q-15.8398 25.7988 -15.8398 55.7979q-0.660156 49.1973 38.2783 83.9961q17.8193 15.5996 37.6191 20.999q20.459 6 38.9385 -1.7998q23.7588 -10.1992 38.2783 -40.1982q13.8594 -28.7988 11.2188 -60.5977
q-3.2998 -45.5977 -37.6182 -75.5967zM1618.23 1431.38q-73.917 -8.99902 -145.194 -48.5977q-69.957 -38.3984 -119.455 -95.9961q-50.8184 -59.998 -64.6777 -124.195q-13.1992 -59.9971 7.25977 -123.595q7.25977 -22.1992 17.8193 -43.1982
q3.95996 -7.7998 8.58008 -15.5996q3.2998 -4.7998 6.59961 -10.1992q47.5176 -72.5977 130.675 -113.396q93.0557 -45.5986 190.731 -29.999q119.455 18.5996 194.032 121.795q24.4189 33.5986 41.5791 72.5977q5.2793 13.1992 9.89941 25.7988
q1.31934 4.7998 2.63965 8.39941l0.660156 3l0.660156 2.39941q28.3789 100.196 -7.91992 200.992q-38.9385 107.995 -131.335 149.994q-64.0176 29.3984 -142.554 19.7988zM1971 479q12.5 -6 21 -16q20.5 -26 20.5 -72t-20 -73q-15 -20 -44 -24q-15.5 -2 -65 1
q-168.5 11 -371 -2q-49.5 -3 -109.5 -10l-11.5 -2l-10.5 -1q-13 -2 -20 -2q-21.5 -3 -35 -4q-33.5 -3 -53.5 2q-23 6 -41 23q-46 43 -47 122q0 35 10.5 64q11.5 31 32.5 48q20.5 16 67 15q32.5 -1 124.5 -14q65 -9 255 -24l36 -2l36 -3q40 -3 68 -5q73 -6 111.5 -11
q30.5 -4 45.5 -10z" />
    <glyph glyph-name="trademark" unicode="&#x2122;" horiz-adv-x="1262" 
d="M440.611 1426.04l-14.8496 -4l-14.8506 -4.40039q-18.001 -5.2002 -27.9014 -7.60059q-28.8008 -14.4004 -124.653 -37.2021q-106.202 -25.2012 -143.554 -20.001q-26.5508 -0.400391 -43.2012 -2.40039q-24.3008 -2.7998 -33.3008 -9.2002
q-29.251 -19.6016 -25.6504 -76.0049q4.0498 -63.2041 38.251 -70.0049q17.1006 -3.59961 49.0508 7.20117l13.501 4.7998l13.0498 4.80078q16.2012 6.40039 24.3008 8.7998q4.05078 1.60059 10.3506 3.60059l4.9502 1.60059l4.5 1.59961q9.90039 2.80078 15.3008 3.60059
q13.5 1.2002 18 -12.001q4.0498 -13.6006 -2.7002 -129.607q-2.7002 -44.0029 -6.2998 -93.6064q-3.15039 -44.0029 -5.85059 -73.2041q-4.9502 -51.6035 17.5508 -87.2051q21.6006 -34.002 60.752 -41.6025q33.3008 -6.80078 45.9014 -3.2002
q5.39941 1.19922 14.4004 5.59961l4.0498 2l4.9502 2.40039q5.84961 2.80078 11.7002 5.2002q26.1006 10.8008 40.501 54.8037q13.5 41.6025 8.10059 84.8047q-1.80078 16.002 -12.6006 64.8047l-2.7002 10.8008l-2.25 10.8008q-3.59961 14.8008 -5.40039 23.2012
q-6.2998 27.2012 -10.3496 47.2031q-25.2012 120.407 -11.251 140.408q15.3008 21.6016 46.8018 23.6016q10.7998 0.799805 30.1504 -0.400391l16.6504 -1.59961q9.90039 -0.400391 17.1006 -0.800781q42.751 -1.59961 55.3516 4.40039q21.6006 10.001 31.501 52.8037
q11.7002 49.6025 0.450195 78.8047q-12.1504 31.6016 -49.0518 34.4023q-24.75 1.59961 -60.752 -8.00098zM627.252 1322.43q-1.7998 -8.80078 -5.84961 -42.0029q-1.80078 -16.001 -3.60059 -28.8018q-2.25 -17.2012 -5.39941 -34.4014
q-7.65039 -42.8027 -20.7012 -90.0059l-5.40039 -19.2012l-5.39941 -18.4014q-6.75098 -22.4014 -9.90039 -35.2021q-21.1504 -78.8047 -13.0508 -154.009q4.9502 -44.8027 16.2002 -68.8047q12.1504 -25.2012 34.6514 -35.2021q29.251 -12.8008 68.8516 -1.59961
q37.3516 10.4004 62.1016 35.2021q22.501 22.4014 27.001 57.6035q1.7998 14 1.35059 34.8018q0 7.2002 -0.450195 19.2012l-0.450195 10.001l-0.450195 10.4004q-2.7002 89.2051 5.85059 166.811q3.14941 26.4014 6.75 45.6025q1.34961 7.60059 2.25 12.001
q0.900391 4 1.34961 4l4.9502 -55.2031q2.7002 -31.2021 5.85059 -60.8047q4.5 -39.2021 10.3506 -76.0039q13.0498 -85.2051 27.9004 -121.208q14.8506 -34.8018 42.3008 -48.0029q25.2012 -12.4004 56.252 -10.4004q31.0508 1.60059 51.751 16.8008
q23.4014 17.2012 28.8008 52.0039q2.25 13.2002 1.80078 31.6016l-0.450195 15.6006l-0.450195 15.2012q-3.15039 94.4062 16.6504 179.211q7.2002 29.2021 15.3008 50.4033q6.75 18.001 9 17.6006q3.59961 -0.399414 10.3506 -66.4033q7.64941 -75.2051 11.25 -169.61
q1.7998 -50.0029 5.40039 -67.2041q7.2002 -30.8027 28.3506 -47.6035q28.3506 -22.001 72.002 -22.4014q43.2012 -0.799805 70.6514 20.001q27.001 20.4014 27.9014 64.0039q0.450195 29.2021 -13.501 102.807q-39.6006 206.413 -65.251 276.417
q-10.8008 30.4014 -22.0508 44.4023q-8.10059 9.60059 -21.1504 15.6016q-35.5518 15.6006 -81.0029 14.4004q-43.2012 -1.59961 -72.9014 -17.6006q-31.9512 -17.2012 -48.1514 -58.4043q-9.90039 -25.2012 -21.1504 -88.0049q-2.25 -13.2012 -4.05078 -29.2021
q-0.899414 -5.59961 -1.7998 -12.8008l-0.450195 -6l-0.450195 -5.2002q-2.69922 -22.8018 -5.39941 -22.8018t-3.15039 24.8018v6v6.40039q-0.450195 7.60059 -0.450195 14.4014q-0.899414 17.6006 -2.7002 32.8018q-4.9502 41.2021 -19.3506 72.0049
q-18 39.6016 -50.8506 62.8037q-39.6016 27.6016 -96.3027 35.6016q-58.0518 8.40137 -92.7031 -10q-22.9502 -12.001 -28.8008 -44.0029z" />
    <glyph glyph-name="partialdiff" unicode="&#x2202;" horiz-adv-x="1213" 
d="M643 348q-11 7 -25 19l-12 10l-11 9l-5 5l-6 6q-8 7 -15 15q-20 21 -34 42q-40 63 -27 122q14 68 80 112q64 43 110 22q31 -14 44 -64q5 -19 9 -46l2 -23l2 -23q2 -28 2 -57q-1 -38 -6 -68q-14 -80 -53 -92q-23 -8 -55 11zM898 1003l-22 16q-31 21 -45 32l-252 192
q-22 19 -41 49l-1 1l-2 2l-4 4q-6 5 -13 11q-18 16 -40 28q-63 37 -130 30q-54 -5 -101 -33q-49 -29 -47 -58q1 -23 37 -43q24 -13 80 -33l22 -7q203 -178 228 -206q9 -10 16 -21q3 -4 5 -8l2 -3l1 -3q25 -43 20 -61q-9 -25 -79 -31l-16 -1l-16 -1q-21 -2 -35 -3
q-42 -4 -71 -13q-91 -26 -165 -109q-64 -73 -90 -158q-51 -165 55 -345q107 -181 295 -237q147 -43 301 12q142 51 232 163q139 174 94 443q-19 116 -72 217q-52 101 -125 159q-9 6 -21 15z" />
    <glyph glyph-name="Delta" unicode="&#x2206;" horiz-adv-x="1081" 
d="M514 1195l-406 -1072h801zM547 1434l526 -1434h-1067z" />
    <glyph glyph-name="product" unicode="&#x220f;" horiz-adv-x="1515" 
d="M511 1384q-102 0 -102 -235v-1281q0 -235 102 -235h97v-51h-560v51h96q103 0 103 235v1281q0 235 -103 235h-96v50h1419v-50h-97q-102 0 -102 -235v-1281q0 -235 102 -235h97v-50h-560v50h96q103 0 103 235v1281q0 235 -103 235h-492z" />
    <glyph glyph-name="summation" unicode="&#x2211;" horiz-adv-x="1206" 
d="M1059 548l-788 -914h635q130 0 189 182h49l-103 -232h-921v50q62 0 106 53l663 781l-663 859q-44 57 -106 57v50h921l103 -232h-49q-59 182 -189 182h-485z" />
    <glyph glyph-name="minus" unicode="&#x2212;" horiz-adv-x="1014" 
d="M905 755q14 -5 23 -15q22 -24 22 -67q0 -42 -22 -67q-16 -19 -48 -22q-16 -2 -70 1q-184 9 -404 -2q-54 -3 -119 -10l-12 -1l-12 -2q-14 -1 -22 -2q-23 -2 -38 -3q-36 -2 -58 2q-25 5 -44 21q-51 40 -52 113q0 33 12 60q12 29 35 44q22 15 73 14q35 -1 135 -13
q71 -9 278 -22l39 -2l39 -3q44 -3 74 -5q80 -5 122 -10q32 -3 49 -9z" />
    <glyph glyph-name="radical" unicode="&#x221a;" horiz-adv-x="1014" 
d="M181 0l-164 359l74 35l85 -185l728 1470h150v-60h-72z" />
    <glyph glyph-name="infinity" unicode="&#x221e;" horiz-adv-x="1014" 
d="M761 573q-11 -38 -74 -55q-64 -17 -114 8q-30 16 -47 43q-17 30 -7 53q16 37 88 47q71 8 116 -23q19 -14 30 -32q13 -22 8 -41zM297 668q40 10 82 -13q39 -22 37 -48q-2 -16 -24 -30q-19 -11 -42 -16q-40 -9 -79 8q-38 17 -39 42q0 17 21 35q20 15 44 22zM505 366
q36 -47 122 -54q83 -7 153 28q93 47 131 159q36 108 2 211q-28 85 -96 147q-78 70 -164 63q-55 -4 -106 -38q-53 -34 -72 -83q-6 -14 -9 -33q-2 -7 -2 -15q-1 -5 -2 -14q-3 -29 -9 -30q-5 -1 -13 21l-3 5l-2 6l-6 12q-7 14 -15 25q-34 46 -96 65q-62 21 -118 4l-1 -1h-1
l-4 -2q-6 -1 -11 -4q-15 -6 -30 -16q-54 -37 -78 -109q-8 -25 -12 -51q-2 -9 -3 -18v-6v-2l-1 -2v-2v-3v-8q0 -12 1 -26q1 -39 11 -75q29 -110 115 -145q63 -26 136 -10q72 16 103 60q4 6 9 14l4 7l4 7q9 14 16 14q11 -1 20 -37l2 -7l2 -8q3 -10 6 -17q7 -20 17 -32z" />
    <glyph glyph-name="integral" unicode="&#x222b;" horiz-adv-x="665" 
d="M-12 -281q-60 0 -60 29v159h36q1 -43 34.5 -64.5t63.5 -21.5h1q82 0 115 162q32 162 40 316l70 734l8 62q27 238 135 429.5t234 191.5q60 0 60 -29v-159h-36q-1 43 -35 64.5t-63 21.5q-71 0 -116 -155.5t-49 -363.5l-73 -767q-20 -231 -130.5 -420t-234.5 -189z" />
    <glyph glyph-name="approxequal" unicode="&#x2248;" horiz-adv-x="856" 
d="M689 550q-3 -2 -6 -5q-34 -28 -92 -32q-61 -4 -110 10q-54 16 -79 60q-16 27 -32 74q-10 21 -22 31q-24 20 -72 20q-21 -14 -14 -32q1 -1 36 -34q17 -15 6 -25q-6 -6 -24 -7q-121 -8 -150 54q-12 26 29 91q39 61 63 70q83 32 192 -19q33 -15 68 -40q17 -11 64 -59
q38 -39 67 -25q11 4 22 13q0 7 -2 13q0 3 -38 60q-18 27 -6 44q7 10 26 12q51 6 95 -18q49 -26 63 -77q14 -48 -10 -100q-22 -49 -65 -74q-4 -2 -9 -5zM689 225q-3 -2 -6 -5q-34 -28 -92 -32q-61 -4 -110 10q-54 16 -79 60q-16 27 -32 74q-10 21 -22 31q-24 20 -72 20
q-21 -14 -14 -32q1 -1 36 -34q17 -15 6 -25q-6 -6 -24 -7q-121 -8 -150 54q-12 26 29 91q39 61 63 70q83 32 192 -19q33 -15 68 -40q17 -11 64 -59q38 -39 67 -25q11 4 22 13q0 7 -2 13q0 3 -38 60q-18 27 -6 44q7 10 26 12q51 6 95 -18q49 -26 63 -77q14 -48 -10 -100
q-22 -49 -65 -74q-4 -2 -9 -5z" />
    <glyph glyph-name="lessequal" unicode="&#x2264;" horiz-adv-x="1191" 
d="M185 1315q138 120 337 201q191 79 354 89q172 11 233 -59q59 -70 26 -206q-33 -137 -124 -198q-38 -26 -112 -32l-19 -2l-21 -1q-28 -2 -49 -4q-66 -6 -133 -17l-19 -3l-21 -3q-24 -4 -44 -7q-52 -9 -89 -18q-98 -23 -98 -45q-1 -19 89 -34q17 -2 45 -6l24 -4l26 -3
q67 -10 113 -18q142 -27 232 -69q118 -56 160 -145q42 -90 16 -200q-25 -109 -93 -141q-41 -19 -91 7q-29 15 -109 79q-41 32 -69 53q-43 31 -84 56q-106 63 -225 98q-58 17 -137 31l-31 6l-30 5q-33 6 -54 10q-114 26 -158 94q-34 53 -36 125q-1 25 3 51q1 9 2 19l2 8l1 6
q28 143 183 277zM905 191q14 -5 23 -15q22 -24 22 -67q0 -42 -22 -67q-16 -19 -48 -22q-16 -2 -70 1q-184 9 -404 -2q-54 -3 -119 -10l-12 -1l-12 -2q-14 -1 -22 -2q-23 -2 -38 -3q-36 -2 -58 2q-25 5 -44 21q-51 40 -52 113q0 33 12 60q12 29 35 44q22 15 73 14
q35 -1 135 -13q71 -9 278 -22l39 -2l39 -3q44 -3 74 -5q80 -5 122 -10q32 -3 49 -9z" />
    <glyph glyph-name="greaterequal" unicode="&#x2265;" horiz-adv-x="1195" 
d="M980 674q-138 -120 -337 -201q-191 -78 -354 -89q-172 -11 -233 59q-59 70 -26 206q33 137 124 198q38 26 112 32l19 2l21 1q28 2 49 4q65 6 133 17l19 3l21 3q24 4 44 7q52 9 89 18q98 23 98 45q1 19 -89 34q-17 2 -45 6l-24 4l-26 3q-67 10 -113 19q-142 26 -232 68
q-118 56 -160 145q-42 90 -16 200q25 109 93 141q41 19 91 -7q29 -15 109 -79q41 -32 69 -53q43 -31 84 -56q106 -63 224 -98q59 -17 138 -31l31 -6l29 -5q34 -6 55 -10q114 -25 158 -94q34 -52 36 -125q1 -24 -3 -51q-1 -9 -3 -19l-1 -8l-1 -6q-28 -143 -183 -277zM905 191
q14 -5 23 -15q22 -24 22 -67q0 -42 -22 -67q-16 -19 -48 -22q-16 -2 -70 1q-184 9 -404 -2q-54 -3 -119 -10l-12 -1l-12 -2q-14 -1 -22 -2q-23 -2 -38 -3q-36 -2 -58 2q-25 5 -44 21q-51 40 -52 113q0 33 12 60q12 29 35 44q22 15 73 14q35 -1 135 -13q71 -9 278 -22l39 -2
l39 -3q44 -3 74 -5q80 -5 122 -10q32 -3 49 -9z" />
    <glyph glyph-name="uniF001" unicode="&#xf001;" horiz-adv-x="1333" 
d="M226 1138q-3 19 -4 31q-2 19 -2 35q0 41 9 77q18 72 77 133q20 21 43 39l18 12l6 5l6 3l1 2l3 1l6 4q9 5 19 10q30 15 61 25q97 31 192 12l9 -2l11 -2q14 -4 26 -7q34 -9 60 -22q75 -35 87 -92q9 -45 -19 -93q-27 -48 -71 -64q-25 -9 -52 -4q-11 2 -24 7l-23 9
q-60 24 -90 9q-43 -21 -59 -86q-16 -64 13 -103q11 -15 39 -28q26 -13 53 -10q19 3 46 15l20 9q12 5 20 7q21 5 36 -4q31 -20 41 -71q4 -20 4 -43q0 -19 -2 -36q-6 -42 -26 -77q-25 -46 -64 -59q-26 -9 -58 -7q-21 1 -55 9q-65 15 -83 2q-21 -15 -15 -68q2 -18 8 -40
q2 -7 4 -16l2 -6l1 -5q1 -2 1 -4q1 -3 2 -7q3 -10 5 -21q9 -32 17 -67q24 -107 36 -202q38 -298 -54 -385q-30 -28 -94 -38q-69 -11 -128 10q-160 55 -114 275q26 129 31 359q4 236 -23 255q-15 10 -35 9q-8 -1 -18 -3l-18 -4q-48 -12 -72 5q-29 20 -37 67q-6 37 1 76
q9 42 34 77q29 41 66 48q19 3 38 -4q13 -5 32 -16q36 -23 48 -16q16 9 8 75zM906 769q-2 -41 2 -87q1 -16 3 -33l2 -14l1 -5l1 -6q19 -134 16 -261q-2 -47 -6 -98q-2 -19 -4 -43l-2 -19l-2 -19q-8 -83 -2 -116q8 -46 48 -72q64 -40 158 -27q92 13 137 66q29 33 21 98
q-1 12 -4 37l-3 21l-3 23q-8 61 -11 120q-2 59 14 373q9 161 7 194q-4 55 -34 84q-39 36 -102 46q-66 10 -117 -14q-22 -11 -40 -28q-7 -6 -13 -14q-5 -6 -10 -13q-52 -74 -57 -193zM929 1246q23 -72 86 -109q53 -32 118 -27q60 6 107 41l3 2l4 3q6 5 11 10q16 14 28 30
q36 49 38 107q1 64 -38 118q-13 17 -29 32q-6 5 -11 9l-4 3l-2 2q-56 40 -130 34q-24 -2 -48 -9q-8 -2 -15 -5l-5 -2l-3 -1l-3 -1l-5 -2q-5 -3 -11 -6q-16 -8 -30 -19q-41 -32 -59 -76q-25 -64 -2 -134z" />
    <glyph glyph-name="uniF001" unicode="&#xfb01;" horiz-adv-x="1333" 
d="M226 1138q-3 19 -4 31q-2 19 -2 35q0 41 9 77q18 72 77 133q20 21 43 39l18 12l6 5l6 3l1 2l3 1l6 4q9 5 19 10q30 15 61 25q97 31 192 12l9 -2l11 -2q14 -4 26 -7q34 -9 60 -22q75 -35 87 -92q9 -45 -19 -93q-27 -48 -71 -64q-25 -9 -52 -4q-11 2 -24 7l-23 9
q-60 24 -90 9q-43 -21 -59 -86q-16 -64 13 -103q11 -15 39 -28q26 -13 53 -10q19 3 46 15l20 9q12 5 20 7q21 5 36 -4q31 -20 41 -71q4 -20 4 -43q0 -19 -2 -36q-6 -42 -26 -77q-25 -46 -64 -59q-26 -9 -58 -7q-21 1 -55 9q-65 15 -83 2q-21 -15 -15 -68q2 -18 8 -40
q2 -7 4 -16l2 -6l1 -5q1 -2 1 -4q1 -3 2 -7q3 -10 5 -21q9 -32 17 -67q24 -107 36 -202q38 -298 -54 -385q-30 -28 -94 -38q-69 -11 -128 10q-160 55 -114 275q26 129 31 359q4 236 -23 255q-15 10 -35 9q-8 -1 -18 -3l-18 -4q-48 -12 -72 5q-29 20 -37 67q-6 37 1 76
q9 42 34 77q29 41 66 48q19 3 38 -4q13 -5 32 -16q36 -23 48 -16q16 9 8 75zM906 769q-2 -41 2 -87q1 -16 3 -33l2 -14l1 -5l1 -6q19 -134 16 -261q-2 -47 -6 -98q-2 -19 -4 -43l-2 -19l-2 -19q-8 -83 -2 -116q8 -46 48 -72q64 -40 158 -27q92 13 137 66q29 33 21 98
q-1 12 -4 37l-3 21l-3 23q-8 61 -11 120q-2 59 14 373q9 161 7 194q-4 55 -34 84q-39 36 -102 46q-66 10 -117 -14q-22 -11 -40 -28q-7 -6 -13 -14q-5 -6 -10 -13q-52 -74 -57 -193zM929 1246q23 -72 86 -109q53 -32 118 -27q60 6 107 41l3 2l4 3q6 5 11 10q16 14 28 30
q36 49 38 107q1 64 -38 118q-13 17 -29 32q-6 5 -11 9l-4 3l-2 2q-56 40 -130 34q-24 -2 -48 -9q-8 -2 -15 -5l-5 -2l-3 -1l-3 -1l-5 -2q-5 -3 -11 -6q-16 -8 -30 -19q-41 -32 -59 -76q-25 -64 -2 -134z" />
    <glyph glyph-name="uniF002" unicode="&#xf002;" horiz-adv-x="1429" 
d="M226 1138q-3 19 -4 31q-2 19 -2 35q0 41 9 77q18 72 77 133q20 21 43 39l18 12l6 5l6 3l1 2l3 1l6 4q9 5 19 10q30 15 61 25q97 31 192 12l9 -2l11 -2q14 -4 26 -7q34 -9 60 -22q75 -35 87 -92q9 -45 -19 -93q-27 -48 -71 -64q-25 -9 -52 -4q-11 2 -24 7l-23 9
q-60 24 -90 9q-43 -21 -59 -86q-16 -64 13 -103q11 -15 39 -28q26 -13 53 -10q19 3 46 15l20 9q12 5 20 7q21 5 36 -4q31 -20 41 -71q4 -20 4 -43q0 -19 -2 -36q-6 -42 -26 -77q-25 -46 -64 -59q-26 -9 -58 -7q-21 1 -55 9q-65 15 -83 2q-21 -15 -15 -68q2 -18 8 -40
q2 -7 4 -16l2 -6l1 -5q1 -2 1 -4q1 -3 2 -7q3 -10 5 -21q9 -32 17 -67q24 -107 36 -202q38 -298 -54 -385q-30 -28 -94 -38q-69 -11 -128 10q-160 55 -114 275q26 129 31 359q4 236 -23 255q-15 10 -35 9q-8 -1 -18 -3l-18 -4q-48 -12 -72 5q-29 20 -37 67q-6 37 1 76
q9 42 34 77q29 41 66 48q19 3 38 -4q13 -5 32 -16q36 -23 48 -16q16 9 8 75zM1343 275q-7 1 -14 1h-14q-33 -2 -51 10q-31 23 -40 87q-9 68 2 205q10 119 31 237q4 -1 18 86q14 89 26 195q33 287 10 321q-48 69 -148 74q-100 6 -171 -56q-56 -48 -80 -616q-24 -579 44 -685
q2 -4 4 -7l6 -8q7 -11 15 -21q23 -29 48 -53q74 -68 160 -83q81 -15 158 8q91 28 111 96q15 51 -11 112q-26 60 -71 86q-16 9 -33 11z" />
    <glyph glyph-name="uniF002" unicode="&#xfb02;" horiz-adv-x="1429" 
d="M226 1138q-3 19 -4 31q-2 19 -2 35q0 41 9 77q18 72 77 133q20 21 43 39l18 12l6 5l6 3l1 2l3 1l6 4q9 5 19 10q30 15 61 25q97 31 192 12l9 -2l11 -2q14 -4 26 -7q34 -9 60 -22q75 -35 87 -92q9 -45 -19 -93q-27 -48 -71 -64q-25 -9 -52 -4q-11 2 -24 7l-23 9
q-60 24 -90 9q-43 -21 -59 -86q-16 -64 13 -103q11 -15 39 -28q26 -13 53 -10q19 3 46 15l20 9q12 5 20 7q21 5 36 -4q31 -20 41 -71q4 -20 4 -43q0 -19 -2 -36q-6 -42 -26 -77q-25 -46 -64 -59q-26 -9 -58 -7q-21 1 -55 9q-65 15 -83 2q-21 -15 -15 -68q2 -18 8 -40
q2 -7 4 -16l2 -6l1 -5q1 -2 1 -4q1 -3 2 -7q3 -10 5 -21q9 -32 17 -67q24 -107 36 -202q38 -298 -54 -385q-30 -28 -94 -38q-69 -11 -128 10q-160 55 -114 275q26 129 31 359q4 236 -23 255q-15 10 -35 9q-8 -1 -18 -3l-18 -4q-48 -12 -72 5q-29 20 -37 67q-6 37 1 76
q9 42 34 77q29 41 66 48q19 3 38 -4q13 -5 32 -16q36 -23 48 -16q16 9 8 75zM1343 275q-7 1 -14 1h-14q-33 -2 -51 10q-31 23 -40 87q-9 68 2 205q10 119 31 237q4 -1 18 86q14 89 26 195q33 287 10 321q-48 69 -148 74q-100 6 -171 -56q-56 -48 -80 -616q-24 -579 44 -685
q2 -4 4 -7l6 -8q7 -11 15 -21q23 -29 48 -53q74 -68 160 -83q81 -15 158 8q91 28 111 96q15 51 -11 112q-26 60 -71 86q-16 9 -33 11z" />
    </font>
</defs>
</svg>
